<svg version="1.1" xmlns="http://www.w3.org/2000/svg" width="24" height="24" viewBox="0 0 24 24">
<path fill="#fff" opacity="0.8" d="M12 0.352c1.959 0 3.85 0.485 5.536 1.397 0.408 0.221 0.56 0.731 0.339 1.139s-0.731 0.56-1.139 0.339c-1.442-0.781-3.059-1.195-4.737-1.195-5.505 0-9.968 4.463-9.968 9.968s4.463 9.968 9.968 9.968c5.505 0 9.968-4.463 9.968-9.968 0-2.477-0.906-4.811-2.519-6.623-0.308-0.347-0.277-0.878 0.069-1.186s0.878-0.277 1.186 0.069c1.884 2.117 2.944 4.848 2.944 7.74 0 6.433-5.215 11.648-11.648 11.648s-11.648-5.215-11.648-11.648c0-6.433 5.215-11.648 11.648-11.648zM12 4.401c0.425 0 0.777 0.316 0.832 0.726l0.008 0.114v7.171l-3.896 3.657c-0.338 0.318-0.87 0.301-1.187-0.038-0.286-0.304-0.301-0.765-0.054-1.086l0.092-0.101 3.365-3.16 0-6.443c0-0.425 0.316-0.777 0.726-0.832l0.114-0.008z"></path>
</svg>
