<?xml version="1.0" encoding="UTF-8"?>
<svg width="20px" height="18px" viewBox="0 0 20 18" version="1.1" xmlns="http://www.w3.org/2000/svg" xmlns:xlink="http://www.w3.org/1999/xlink">
    <title>Outlined/UI/send</title>
    <g id="Mobile" stroke="none" stroke-width="1" fill="none" fill-rule="evenodd">
        <g id="Docs_zh_mo" transform="translate(-324.000000, -76.000000)" fill="#252C32">
            <g id="topbar" transform="translate(0.000000, 60.000000)">
                <g id="Group" transform="translate(323.000000, 14.000000)">
                    <g id="Outlined/UI/send" transform="translate(11.000000, 11.000000) rotate(-270.000000) translate(-11.000000, -11.000000) ">
                        <path d="M17.1875,1.37499997 C18.3265873,1.37499997 19.25,2.29841268 19.25,3.43749998 L19.25,3.43749998 L19.25,18.5625 C19.25,19.7015873 18.3265873,20.625 17.1875,20.625 L17.1875,20.625 L11,20.625 L11,19.25 L17.1875,19.25 C17.5671958,19.25 17.875,18.9421958 17.875,18.5625 L17.875,18.5625 L17.875,3.43749998 C17.875,3.05780421 17.5671958,2.74999997 17.1875,2.74999997 L17.1875,2.74999997 L11,2.74999997 L11,1.37499997 Z M11,6.58624999 L14.4375,10.02375 C14.97062,10.5600515 14.97062,11.4261985 14.4375,11.9625 L14.4375,11.9625 L11,15.4 L10.030625,14.4375 L12.780625,11.6875 L2.74999997,11.6875 L2.74999997,10.3125 L12.753125,10.3125 L10.003125,7.56249999 L11,6.58624999 Z" id="Style"></path>
                    </g>
                </g>
            </g>
        </g>
    </g>
</svg>