<?xml version="1.0" encoding="UTF-8"?>
<svg width="31px" height="36px" viewBox="0 0 31 36" version="1.1" xmlns="http://www.w3.org/2000/svg" xmlns:xlink="http://www.w3.org/1999/xlink">
    <!-- Generator: Sketch 56.3 (81716) - https://sketch.com -->
    <title>功能定义</title>
    <desc>Created with Sketch.</desc>
    <g id="Page-1" stroke="none" stroke-width="1" fill="none" fill-rule="evenodd">
        <g id="openGauss-Home02" transform="translate(-576.000000, -770.000000)" fill="#467FBF" fill-rule="nonzero">
            <g id="编组" transform="translate(576.000000, 769.000000)">
                <g id="功能定义" transform="translate(0.000000, 1.000000)">
                    <path d="M11.4211921,22.2945778 C11.9709832,22.6902471 12.1628008,23.5741007 11.8496286,24.2687201 C11.5364564,24.9633395 10.8368864,25.2056864 10.2870953,24.8100172 L4.57880791,20.7054222 C4.02901677,20.3097529 3.8371992,19.4258993 4.15037138,18.7312799 C4.46354356,18.0366605 5.16311356,17.7943136 5.71290474,18.1899828 L11.4211921,22.2945778 Z M26.4012763,13.1995633 L17.3058081,18.3475846 C17.3093564,18.3840537 17.3270979,18.4158171 17.3270979,18.4522862 L17.3270979,29.8235783 C17.3270979,30.2438733 17.1016641,30.6322419 16.7357151,30.8423894 C16.3697661,31.0525369 15.9188984,31.0525369 15.5529494,30.8423894 C15.1870004,30.6322419 14.9615665,30.2438733 14.9615665,29.8235783 L14.9615665,18.499343 L5.59761055,13.1995633 C5.02995939,12.877952 4.8319106,12.1595306 5.15525621,11.5949241 C5.47860181,11.0303177 6.2008974,10.8333312 6.76854858,11.1549424 L16.0000348,16.3806076 L25.2327038,11.153766 C25.8006816,10.8328045 26.5227124,11.030581 26.8454048,11.5955124 C27.1680972,12.1604437 26.9692541,12.8786017 26.4012763,13.1995633 Z M29.22226,7.51755291 C30.3245357,8.16888894 31.0011177,9.359551 30.9999914,10.646036 L30.9999914,25.5588319 C31.0011612,26.861328 30.3073372,28.0641415 29.1829138,28.7089156 L17.2598424,35.5310967 C16.1684096,36.1563011 14.8303923,36.1563011 13.7389594,35.5310967 L1.81588797,28.7089156 C0.693926944,28.0668985 2.08994386e-06,26.8632666 2.08994386e-06,25.5588319 L2.08994386e-06,10.646036 C-0.0013718101,9.35979628 0.674724523,8.16919054 1.77654183,7.51755291 L13.694844,0.491366352 C14.8068437,-0.163788784 16.183612,-0.163788784 17.2956116,0.491366352 L29.22226,7.51755291 Z M28.6153756,25.5588319 L28.6153756,10.646036 C28.6153756,10.2164246 28.3900296,9.81921403 28.022799,9.60440832 L16.0949583,2.57702173 C15.7245834,2.35861011 15.2658723,2.35861011 14.8954973,2.57702173 L2.97719513,9.60320829 C2.60996452,9.81921403 2.38461798,10.2164246 2.38461798,10.646036 L2.38461798,25.5588319 C2.38422804,25.9929973 2.61550271,26.3939351 2.9903105,26.6088598 L14.9133819,33.431041 C15.276964,33.6397735 15.7230301,33.6397735 16.0866122,33.431041 L28.0096836,26.6088598 C28.3840681,26.3952542 28.6153756,25.9932435 28.6153756,25.5588319 Z M25.6664762,16.2200747 C26.4035138,15.7710021 27,16.0309915 27,16.8015055 L27,23.316603 C27,24.087117 26.4023711,25.0762584 25.6664762,25.525331 L20.3335238,28.7799253 C19.5964862,29.2289979 19,28.9690085 19,28.1984945 L19,21.683397 C19,20.912883 19.5976289,19.9237416 20.3335238,19.474669 L25.6664762,16.2200747 Z" id="形状结合"></path>
                </g>
            </g>
        </g>
    </g>
</svg>