<?xml version="1.0" encoding="UTF-8"?>
<svg width="36px" height="30px" viewBox="0 0 36 30" version="1.1" xmlns="http://www.w3.org/2000/svg" xmlns:xlink="http://www.w3.org/1999/xlink">
    <!-- Generator: Sketch 56.3 (81716) - https://sketch.com -->
    <title>物模型</title>
    <desc>Created with Sketch.</desc>
    <g id="Page-1" stroke="none" stroke-width="1" fill="none" fill-rule="evenodd">
        <g id="openGauss-Home02" transform="translate(-1034.000000, -597.000000)" fill="#467FBF" fill-rule="nonzero">
            <g id="编组-5" transform="translate(1034.000000, 593.000000)">
                <g id="物模型" transform="translate(0.000000, 4.000000)">
                    <path d="M30.7211463,24.1764706 C32.3939309,24.1764706 33.7500046,25.3615992 33.7500046,26.8235294 C33.7524934,28.0776485 32.7468895,29.1608941 31.3421841,29.4172404 C29.9374787,29.6735867 28.5198944,29.0325515 27.9479364,27.8823529 L21.8151324,27.8823529 C21.1318251,29.1296471 19.685249,30 18,30 C16.314751,30 14.8681749,29.1296471 14.1848676,27.8823529 L8.05206357,27.8823529 C7.47635847,29.0280644 6.06130996,29.664954 4.65974169,29.4091802 C3.25817342,29.1534064 2.25299516,28.0748468 2.25000464,26.8235294 C2.24750656,25.5694104 3.25311045,24.4861648 4.65781588,24.2298185 C6.06252131,23.9734722 7.48010557,24.6145074 8.05206357,25.7647059 L13.8214063,25.7647059 C14.0586131,24.3446468 15.215639,23.1732602 16.7884623,22.7608235 L16.7884623,18.3529412 L9.51923578,18.3529412 C7.51535235,18.3529412 5.88462254,16.9277647 5.88462254,15.1764706 C5.88462254,13.4251765 7.51535235,12 9.51923578,12 L26.4807642,12 C28.4846477,12 30.1153775,13.4251765 30.1153775,15.1764706 C30.1153775,16.9277647 28.4846477,18.3529412 26.4807642,18.3529412 L19.2115377,18.3529412 L19.2115377,22.7608235 C20.7840214,23.1737179 21.9408191,24.3448735 22.1785937,25.7647059 L27.9479364,25.7647059 C28.4287653,24.8004816 29.5176286,24.1768825 30.7211463,24.1764706 Z M9.51923578,16.2352941 L26.4807642,16.2352941 C27.1288242,16.2099589 27.6393183,15.743409 27.6393183,15.1764706 C27.6393183,14.6095321 27.1288242,14.1429823 26.4807642,14.1176471 L9.51923578,14.1176471 C8.8711758,14.1429823 8.36068166,14.6095321 8.36068166,15.1764706 C8.36068166,15.743409 8.8711758,16.2099589 9.51923578,16.2352941 Z M18,27.8823529 C19.0019417,27.8823529 19.8173066,27.1697647 19.8173066,26.2941176 C19.8173066,25.4184706 19.0019417,24.7058824 18,24.7058824 C16.9980583,24.7058824 16.1826934,25.4184706 16.1826934,26.2941176 C16.1826934,27.1697647 16.9980583,27.8823529 18,27.8823529 Z M9.00005523,23 C4.03688608,23 -1.52877643e-13,19.3155418 -1.52877643e-13,14.7855422 C-0.0205413925,10.9822319 2.83821712,7.66945425 6.89406832,6.79670808 C8.74339281,2.68490313 13.130805,0 18.0005993,0 C22.8703936,0 27.2578058,2.68490313 29.1071302,6.79670808 C33.1625044,7.66988939 36.0206698,10.9825564 36,14.7855422 C36,19.3155418 31.9631125,23 26.9999433,23 L23.351966,23 C22.6892284,23 22.1519735,22.5096349 22.1519735,21.904739 C22.1519735,21.299843 22.6892284,20.8094779 23.351966,20.8094779 L26.9999433,20.8094779 C30.6383207,20.8094779 33.5999023,18.1063736 33.5999023,14.7855422 C33.6161539,11.8164417 31.2473295,9.28438384 28.0319369,8.83389362 L27.3179414,8.73203435 L27.0827428,8.10773555 C25.7511957,4.56668037 22.1018005,2.18898368 18,2.19004012 C13.8972248,2.19004012 10.2468475,4.56785185 8.91605575,8.10773555 L8.68205721,8.73203435 L7.96806165,8.83389362 C4.75266913,9.28438384 2.38384469,11.8164417 2.40009626,14.7855422 C2.4040644,18.1109686 5.35664346,20.8058561 9.00005523,20.8094779 L12.4308339,20.8094779 C13.0935715,20.8094779 13.6308264,21.299843 13.6308264,21.904739 C13.6308264,22.5096349 13.0935715,23 12.4308339,23 L9.00005523,23 Z" id="形状结合"></path>
                </g>
            </g>
        </g>
    </g>
</svg>