<?xml version="1.0" encoding="UTF-8"?>
<svg width="32px" height="32px" viewBox="0 0 32 32" version="1.1" xmlns="http://www.w3.org/2000/svg" xmlns:xlink="http://www.w3.org/1999/xlink">
    <!-- Generator: Sketch 56.3 (81716) - https://sketch.com -->
    <title>神经</title>
    <desc>Created with Sketch.</desc>
    <g id="Page-1" stroke="none" stroke-width="1" fill="none" fill-rule="evenodd">
        <g id="openGauss-Home02" transform="translate(-1035.000000, -772.000000)" fill="#467FBF" fill-rule="nonzero">
            <g id="编组-2" transform="translate(1035.000000, 769.000000)">
                <g id="神经" transform="translate(0.000000, 3.000000)">
                    <path d="M27.4285714,20.5714286 C26.6354286,20.5714286 25.8994286,20.7931429 25.2491429,21.1497143 L20.2971429,17.5051429 C20.4628571,17.032 20.5714286,16.5302857 20.5714286,16 C20.5714286,15.84 20.5405714,15.6891429 20.5245714,15.5325714 L25.0982857,12.7874286 C25.7290693,13.3812387 26.5622599,13.7126353 27.4285714,13.7142857 C29.3221191,13.7142857 30.8571429,12.179262 30.8571429,10.2857143 C30.8571429,8.39216657 29.3221191,6.85714286 27.4285714,6.85714286 C25.5350237,6.85714286 24,8.39216657 24,10.2857143 C24,10.4457143 24.0262857,10.5988571 24.0468571,10.7531429 L19.7131429,13.3531429 C19.08972,12.4823047 18.1798697,11.8584767 17.1428571,11.5908571 L17.1428571,8.98057143 C19.1085714,8.46971429 20.5714286,6.69485714 20.5714286,4.57142857 C20.5714286,2.05028571 18.5211429,0 16,0 C13.4788571,0 11.4285714,2.05028571 11.4285714,4.57142857 C11.4285714,6.69485714 12.8914286,8.46971429 14.8571429,8.98057143 L14.8571429,11.5908571 C13.742175,11.8792546 12.7772383,12.5780581 12.1554286,13.5474286 L7.92114286,11.0068571 C8.22682322,9.58605284 7.60352174,8.12688662 6.36565922,7.36542637 C5.12779669,6.60396611 3.54434226,6.70566583 2.41406025,7.61922368 C1.28377825,8.53278153 0.852262174,10.059695 1.33718778,11.4297214 C1.8221134,12.7997479 3.11811356,13.715201 4.57142857,13.7142857 C5.35125085,13.711519 6.10633775,13.4403173 6.70971429,12.9462857 L11.4491429,15.7908571 C11.4468571,15.8617143 11.4285714,15.928 11.4285714,16 C11.4285714,16.5314286 11.5371429,17.0331429 11.704,17.5074286 L6.80685714,21.1805714 C6.12756217,20.7861108 5.35693407,20.5761185 4.57142857,20.5714286 C2.05028571,20.5714286 0,22.6217143 0,25.1428571 C0,27.664 2.05028571,29.7142857 4.57142857,29.7142857 C7.09257143,29.7142857 9.14285714,27.664 9.14285714,25.1428571 C9.14285714,24.2788571 8.888,23.48 8.47085714,22.7897143 L12.9817143,19.4068571 C13.5188847,19.8844391 14.1615893,20.2279199 14.8571429,20.4091429 L14.8571429,25.3531429 C13.490015,25.8328602 12.5740205,27.1225806 12.5714286,28.5714286 C12.5714286,30.4649763 14.1064523,32 16,32 C17.8935477,32 19.4285714,30.4649763 19.4285714,28.5714286 C19.4259795,27.1225806 18.509985,25.8328602 17.1428571,25.3531429 L17.1428571,20.4091429 C17.8394564,20.2282471 18.4830608,19.8843124 19.0205714,19.4057143 L23.5554286,22.7428571 C23.1018139,23.4613674 22.8598071,24.2931418 22.8571429,25.1428571 C22.8571429,27.664 24.9074286,29.7142857 27.4285714,29.7142857 C29.9497143,29.7142857 32,27.664 32,25.1428571 C32,22.6217143 29.9497143,20.5714286 27.4285714,20.5714286 Z M13.7142857,4.57142857 C13.7142857,3.31085714 14.7394286,2.28571429 16,2.28571429 C17.2605714,2.28571429 18.2857143,3.31085714 18.2857143,4.57142857 C18.2857143,5.832 17.2605714,6.85714286 16,6.85714286 C14.7394286,6.85714286 13.7142857,5.832 13.7142857,4.57142857 Z M4.57142857,27.4285714 C3.31085714,27.4285714 2.28571429,26.4034286 2.28571429,25.1428571 C2.28571429,23.8822857 3.31085714,22.8571429 4.57142857,22.8571429 C5.832,22.8571429 6.85714286,23.8822857 6.85714286,25.1428571 C6.85714286,26.4034286 5.832,27.4285714 4.57142857,27.4285714 Z M16,18.2857143 C14.7394286,18.2857143 13.7142857,17.2605714 13.7142857,16 C13.7142857,14.7394286 14.7394286,13.7142857 16,13.7142857 C17.2605714,13.7142857 18.2857143,14.7394286 18.2857143,16 C18.2857143,17.2605714 17.2605714,18.2857143 16,18.2857143 Z M27.4285714,27.4285714 C26.168,27.4285714 25.1428571,26.4034286 25.1428571,25.1428571 C25.1428571,23.8822857 26.168,22.8571429 27.4285714,22.8571429 C28.6891429,22.8571429 29.7142857,23.8822857 29.7142857,25.1428571 C29.7142857,26.4034286 28.6891429,27.4285714 27.4285714,27.4285714 Z" id="形状"></path>
                </g>
            </g>
        </g>
    </g>
</svg>