<?xml version="1.0" encoding="UTF-8"?>
<svg width="31px" height="32px" viewBox="0 0 31 32" version="1.1" xmlns="http://www.w3.org/2000/svg" xmlns:xlink="http://www.w3.org/1999/xlink">
    <!-- Generator: Sketch 56.3 (81716) - https://sketch.com -->
    <title>形状结合</title>
    <desc>Created with Sketch.</desc>
    <g id="Page-1" stroke="none" stroke-width="1" fill="none" fill-rule="evenodd">
        <g id="openGauss-Home02" transform="translate(-1036.000000, -949.000000)" fill="#467FBF" fill-rule="nonzero">
            <g id="API接入" transform="translate(1036.000000, 949.000000)">
                <path d="M14.9572897,5.83388341 C14.2833404,5.83388341 13.7369966,5.3146153 13.7369966,4.67406563 L13.7369966,1.15981777 C13.7369966,0.519268105 14.2833404,0 14.9572897,0 C15.631239,0 16.1775829,0.519268105 16.1775829,1.15981777 L16.1775829,4.67406563 C16.1775829,5.3146153 15.631239,5.83388341 14.9572897,5.83388341 Z M8.48851572,18.8829932 L13.7369966,18.8829932 L13.7369966,9.31333673 C13.7369966,8.67278706 14.2833404,8.15351895 14.9572897,8.15351895 C15.631239,8.15351895 16.1775829,8.67278706 16.1775829,9.31333673 L16.1775829,18.8829932 L21.5114843,18.8829932 C21.7090286,18.8828454 21.8871905,18.9958794 21.9628084,19.1693336 C22.0384264,19.3427878 21.9965899,19.5424602 21.8568272,19.6751487 L15.345343,25.8639364 C15.2537877,25.9510512 15.1295508,26 15,26 C14.8704492,26 14.7462123,25.9510512 14.654657,25.8639364 L8.14317276,19.6751487 C8.00341005,19.5424602 7.96157358,19.3427878 8.03719155,19.1693336 C8.11280953,18.9958794 8.29097141,18.8828454 8.48851572,18.8829932 Z M29.6729493,3.30138195 C30.4878354,3.69927494 31.0030273,4.52472781 31,5.42759291 L31,24.0618813 C31.0019939,25.0179432 30.4252126,25.8812301 29.5382187,26.2497559 L15.9626152,31.9073981 C15.667525,32.0308673 15.3348602,32.0308673 15.0397699,31.9073981 L1.46297418,26.2485701 C0.574705733,25.8797739 2.17159625e-13,25.0212258 2.17159625e-13,24.0618813 L2.17159625e-13,5.42759291 C-0.0030900789,4.52438021 0.512694316,3.69871993 1.32824353,3.30138195 L7.81916089,0.111472587 C8.40665621,-0.161156069 9.10551536,0.0830486962 9.39245621,0.661234603 C9.67939706,1.23942051 9.44925484,1.9396805 8.87435227,2.23768355 L2.38462722,5.42759291 L2.38462722,24.0618813 L15.5,29.5286033 L28.6153733,24.0618813 L28.6153733,5.42759291 L22.1256483,2.23768355 C21.5632467,1.93259729 21.343325,1.24033151 21.6273815,0.669248118 C21.911438,0.098164726 22.5981457,-0.148022592 23.1832243,0.111472587 L29.6729493,3.30138195 Z" id="形状结合"></path>
            </g>
        </g>
    </g>
</svg>