<?xml version="1.0" encoding="UTF-8"?>
<svg width="31px" height="32px" viewBox="0 0 31 32" version="1.1" xmlns="http://www.w3.org/2000/svg" xmlns:xlink="http://www.w3.org/1999/xlink">
    <!-- Generator: Sketch 56.3 (81716) - https://sketch.com -->
    <title>储存</title>
    <desc>Created with Sketch.</desc>
    <g id="Page-1" stroke="none" stroke-width="1" fill="none" fill-rule="evenodd">
        <g id="openGauss-Home02" transform="translate(-577.000000, -596.000000)"  fill-rule="nonzero">
            <g id="编组-11" transform="translate(577.000000, 593.000000)">
                <g id="储存" transform="translate(0.000000, 3.000000)">
                    <path d="M15.1111111,0 C9.49791453,0 0,0.968198642 0,4.59951849 L0,27.4004815 C0,31.0306515 9.49791453,32 15.1111111,32 C20.7231453,32 30.2222222,31.0306515 30.2222222,27.4004815 L30.2222222,4.59951849 C30.2222222,0.968198642 20.7231453,0 15.1111111,0 Z M2.32478632,14.1481189 C5.49695726,15.6337633 11.2310427,16.0983147 15.1111111,16.0983147 C18.9935043,16.0983147 24.7322393,15.6326135 27.9032479,14.1446692 L27.906735,19.4720615 C27.4743248,20.3287218 22.8503248,21.8477128 15.1111111,21.8477128 C7.40676923,21.8477128 2.79206838,20.3425204 2.32478632,19.4847102 L2.32478632,14.1481189 Z M15.1111111,13.7985555 C7.40676923,13.7985555 2.79206838,12.293363 2.32478632,11.4355528 L2.32478632,7.24999102 C5.49695726,8.73448561 11.2310427,9.19903698 15.1111111,9.19903698 C18.9923419,9.19903698 24.7275897,8.73448561 27.8985983,7.24769126 L27.9009231,11.4298034 C27.4487521,12.2876136 22.8305641,13.7985555 15.1111111,13.7985555 Z M15.1111111,2.29975924 C22.6259829,2.29975924 27.205812,3.73250925 27.8614017,4.59951849 C27.205812,5.46652772 22.6259829,6.89927773 15.1111111,6.89927773 C7.59623932,6.89927773 3.01641026,5.46652772 2.36198291,4.59951849 C3.01641026,3.73250925 7.59623932,2.29975924 15.1111111,2.29975924 Z M15.1111111,29.7002408 C7.35329915,29.7002408 2.72232479,28.1732006 2.32478632,27.4004815 L2.32478632,22.1972762 C5.49695726,23.6829207 11.2310427,24.1474721 15.1111111,24.1474721 C18.9958291,24.1474721 24.7392137,23.6806209 27.9090598,22.1915268 L27.912547,27.3188401 C27.498735,28.1732006 22.8689231,29.7002408 15.1111111,29.7002408 Z" id="形状"></path>
                </g>
            </g>
        </g>
    </g>
</svg>