
<svg width="25px" height="32px" viewBox="0 0 25 32" version="1.1" xmlns="http://www.w3.org/2000/svg" xmlns:xlink="http://www.w3.org/1999/xlink">
    <!-- Generator: Sketch 56.3 (81716) - https://sketch.com -->
    <title>安全</title>
    <desc>Created with Sketch.</desc>
    <g id="Page-1" stroke="none" stroke-width="1" fill-rule="evenodd">
        <g id="openGauss-Home02" transform="translate(-581.000000, -949.000000)" fill-rule="nonzero">
            <g id="编组-12" transform="translate(581.000000, 945.000000)">
                <g id="安全" transform="translate(0.000000, 4.000000)">
                    <path d="M24.075,4.50775462 C19.2041667,3.9503441 15.5395833,2.61740591 13.1833333,0.544766044 L12.5635417,0 L11.8947917,0.482597385 C8.20208333,3.14952748 4.55,4.50143238 1.04166667,4.50143238 L0,4.50143238 L0,19.2533175 C0,23.775824 3.94166667,27.8779018 12.0510417,31.7945273 L12.4770833,32 L12.9114583,31.8113866 C20.9333333,28.3257269 25,24.1014192 25,19.2533175 L25,4.61417893 L24.075,4.50775462 Z M22.9166667,19.2533175 C22.9166667,23.0993447 19.4208333,26.608186 12.521875,29.6850077 C5.59479167,26.2678389 2.08333333,22.7589977 2.08333333,19.2533175 L2.08333333,6.57512595 C5.490625,6.35174026 8.97083333,5.03776878 12.4510417,2.65850044 C14.9489583,4.58467516 18.4625,5.86914288 22.9166667,6.48556093 L22.9166667,19.2533175 Z" id="形状"></path>
                    <path d="M7.81378499,14.6633482 C7.56844794,14.394276 7.19367337,14.2725287 6.83063525,14.3439672 C6.46759712,14.4154057 6.17144956,14.6691768 6.0537485,15.0096874 C5.93604743,15.3501981 6.01467445,15.7257165 6.26001151,15.9947887 L10.2050828,20.3227239 C10.6134796,20.7698869 11.18254,21 11.7567832,21 C12.3802715,20.9994579 12.970807,20.7285126 13.3665298,20.2614274 L19.7671644,12.6395586 C20.1286762,12.20918 20.0618494,11.5761827 19.6179026,11.2257196 C19.1739558,10.8752565 18.5210026,10.9400409 18.1594908,11.3704195 L11.7588563,18.9912834 L7.81378499,14.6633482 L7.81378499,14.6633482 Z" id="路径"></path>
                </g>
            </g>
        </g>
    </g>
</svg>