<svg xmlns="http://www.w3.org/2000/svg" viewBox="0 0 180 120"><defs><style>.cls-1{fill:none;}.cls-2{fill:#fff;}</style></defs><title>资源 15</title><g id="图层_2" data-name="图层 2"><g id="Layer_1" data-name="Layer 1"><g id="_4" data-name="4"><rect class="cls-1" width="180" height="120"/><path class="cls-2" d="M64.43,66.78a5.11,5.11,0,0,1-2.09-2.13,7.2,7.2,0,0,1-.75-3.42,7.61,7.61,0,0,1,.75-3.49,5.36,5.36,0,0,1,2.12-2.27,6.11,6.11,0,0,1,3.11-.78,5.93,5.93,0,0,1,3.07.77,5.23,5.23,0,0,1,2.07,2.22,7.43,7.43,0,0,1,.75,3.44,7.15,7.15,0,0,1-.78,3.45,5.25,5.25,0,0,1-2.12,2.18,6.43,6.43,0,0,1-3.1.74A6.33,6.33,0,0,1,64.43,66.78Zm5.39-2.5a5.29,5.29,0,0,0,.73-3A5.88,5.88,0,0,0,69.78,58a2.58,2.58,0,0,0-2.28-1.16A2.52,2.52,0,0,0,65.22,58a5.77,5.77,0,0,0-.75,3.16,5,5,0,0,0,.82,3.09,2.73,2.73,0,0,0,2.34,1.09A2.46,2.46,0,0,0,69.82,64.28Z"/><path class="cls-2" d="M75.74,57.94c0-.92,0-1.93-.1-3H78.3a11.82,11.82,0,0,1,.2,1.57,5,5,0,0,1,3.78-1.79,4.38,4.38,0,0,1,2.29.62,4.44,4.44,0,0,1,1.7,2,7.88,7.88,0,0,1,.65,3.41,8.47,8.47,0,0,1-.74,3.7,5.22,5.22,0,0,1-2.07,2.32,5.84,5.84,0,0,1-3.06.79,7.66,7.66,0,0,1-2.49-.42v5.1l-2.82.24Zm7.43,6.31A5.69,5.69,0,0,0,84,60.86a5,5,0,0,0-.71-3,2.3,2.3,0,0,0-1.91-.93,3,3,0,0,0-1.52.39,5.53,5.53,0,0,0-1.33,1V65a4.1,4.1,0,0,0,1,.33,5.24,5.24,0,0,0,1.11.12A3,3,0,0,0,83.17,64.25Z"/><path class="cls-2" d="M99.26,61.45H91.18c.13,2.59,1.37,3.88,3.7,3.88a7.92,7.92,0,0,0,1.78-.21,10.23,10.23,0,0,0,1.75-.57L99,66.49a10.51,10.51,0,0,1-4.65,1,6.85,6.85,0,0,1-3.32-.74,4.78,4.78,0,0,1-2-2.14,7.53,7.53,0,0,1-.69-3.37,8,8,0,0,1,.73-3.52,5.27,5.27,0,0,1,2-2.26,5.62,5.62,0,0,1,3-.77A5,5,0,0,1,97,55.5a5,5,0,0,1,1.74,2.18,8,8,0,0,1,.56,3Zm-2.75-1.8a3.57,3.57,0,0,0-.75-2.21A2.26,2.26,0,0,0,94,56.7a2.38,2.38,0,0,0-1.79.74,4,4,0,0,0-.94,2.21Z"/><path class="cls-2" d="M101.54,58.06q0-1.73-.09-3.15h2.64c0,.26.09.59.14,1s.07.71.08,1a8.83,8.83,0,0,1,1.14-1.09,4.83,4.83,0,0,1,1.34-.76,4.77,4.77,0,0,1,1.74-.3,3.44,3.44,0,0,1,2.82,1.19,5.3,5.3,0,0,1,1,3.47v7.91h-2.8V59.55c0-1.76-.66-2.63-2-2.63a3.22,3.22,0,0,0-1.67.47,7.32,7.32,0,0,0-1.53,1.28v8.59h-2.82Z"/><path class="cls-2" d="M118.21,66.43a6.78,6.78,0,0,1-2.64-2.94,10.15,10.15,0,0,1-.89-4.35,9.8,9.8,0,0,1,1-4.68,7.19,7.19,0,0,1,2.9-3,8.64,8.64,0,0,1,4.24-1,10.28,10.28,0,0,1,2.69.35,11.8,11.8,0,0,1,2.36.9l-.54,1.18a11.66,11.66,0,0,0-2.17-.86,8.71,8.71,0,0,0-2.31-.31,7,7,0,0,0-3.51.87A6,6,0,0,0,117,55.12a8.73,8.73,0,0,0-.85,4,9.35,9.35,0,0,0,.68,3.65A5.61,5.61,0,0,0,119,65.32a6.36,6.36,0,0,0,3.58.94,11.39,11.39,0,0,0,2.22-.23,11.07,11.07,0,0,0,2.09-.63V61.08H122.3V59.81h5.93v6.3a13,13,0,0,1-2.83,1,12.82,12.82,0,0,1-3,.36A7.94,7.94,0,0,1,118.21,66.43Z"/><path class="cls-2" d="M139,67.26c0-.2-.07-.49-.1-.84s-.05-.67-.06-.92A5.84,5.84,0,0,1,137,66.91a5.58,5.58,0,0,1-2.54.58,4.25,4.25,0,0,1-1.9-.4,3,3,0,0,1-1.29-1.18,3.78,3.78,0,0,1-.46-1.91,3.52,3.52,0,0,1,1.28-2.83,6.6,6.6,0,0,1,4.2-1.07,20.79,20.79,0,0,1,2.52.16v-.49a4.27,4.27,0,0,0-.82-3,3,3,0,0,0-2.32-.87,7.27,7.27,0,0,0-1.91.27,9.59,9.59,0,0,0-1.69.62l-.29-1.09a7.49,7.49,0,0,1,1.74-.64,9.35,9.35,0,0,1,2.33-.29,5.1,5.1,0,0,1,2.32.48,3.32,3.32,0,0,1,1.48,1.62,7.44,7.44,0,0,1,.52,3.07v5c0,.51,0,1.29.09,2.32Zm-2.74-1.19a5.84,5.84,0,0,0,1.46-.72,4.74,4.74,0,0,0,1.05-1V61.24a18.68,18.68,0,0,0-2.36-.14,5.26,5.26,0,0,0-3.3.77,2.57,2.57,0,0,0-.94,2.09,2.27,2.27,0,0,0,.67,1.8,2.62,2.62,0,0,0,1.8.59A4.85,4.85,0,0,0,136.26,66.07Z"/><path class="cls-2" d="M144.41,66.33a5.67,5.67,0,0,1-.9-3.51V55h1.34v7.75a4.31,4.31,0,0,0,.67,2.68,2.36,2.36,0,0,0,2,.85,4.42,4.42,0,0,0,2.23-.62,8.22,8.22,0,0,0,1.93-1.55V55H153v9.14c0,.86,0,1.89.1,3.09h-1.18c0-.3-.13-.92-.23-1.87a9.5,9.5,0,0,1-2.06,1.52,5,5,0,0,1-2.42.58A3.33,3.33,0,0,1,144.41,66.33Z"/><path class="cls-2" d="M157,67.29a7.68,7.68,0,0,1-1.56-.53l.38-1.13a6.17,6.17,0,0,0,1.47.52,7.83,7.83,0,0,0,1.66.19,3.58,3.58,0,0,0,2.28-.63A2.06,2.06,0,0,0,162,64a1.83,1.83,0,0,0-.33-1.11,3.11,3.11,0,0,0-.95-.77,18.85,18.85,0,0,0-1.81-.81,10.36,10.36,0,0,1-1.83-.91,3.4,3.4,0,0,1-1.08-1,2.71,2.71,0,0,1-.37-1.46,3.07,3.07,0,0,1,.44-1.64,2.88,2.88,0,0,1,1.3-1.09,5.27,5.27,0,0,1,2.09-.38,8.18,8.18,0,0,1,3.44.81l-.31,1.08a6.74,6.74,0,0,0-3.07-.77,3,3,0,0,0-1.91.52,1.66,1.66,0,0,0-.67,1.37,1.47,1.47,0,0,0,.33,1,2.75,2.75,0,0,0,.89.69q.57.3,1.71.78a14.93,14.93,0,0,1,1.86.9,3.4,3.4,0,0,1,1.12,1.05,2.89,2.89,0,0,1,.45,1.67,3.53,3.53,0,0,1-.52,1.89A3.37,3.37,0,0,1,161.26,67a5.68,5.68,0,0,1-2.42.46A8.69,8.69,0,0,1,157,67.29Z"/><path class="cls-2" d="M166.1,67.29a8.13,8.13,0,0,1-1.56-.53l.38-1.13a6.17,6.17,0,0,0,1.47.52,7.83,7.83,0,0,0,1.66.19,3.56,3.56,0,0,0,2.28-.63,2.06,2.06,0,0,0,.79-1.7,1.83,1.83,0,0,0-.33-1.11,3.11,3.11,0,0,0-.95-.77,18.85,18.85,0,0,0-1.81-.81,10.36,10.36,0,0,1-1.83-.91,3.4,3.4,0,0,1-1.08-1,2.71,2.71,0,0,1-.37-1.46,3.07,3.07,0,0,1,.44-1.64,2.85,2.85,0,0,1,1.31-1.09,5.19,5.19,0,0,1,2.08-.38,8.15,8.15,0,0,1,3.44.81l-.31,1.08a6.74,6.74,0,0,0-3.07-.77,3,3,0,0,0-1.91.52,1.65,1.65,0,0,0-.66,1.37,1.52,1.52,0,0,0,.32,1,2.69,2.69,0,0,0,.9.69q.56.3,1.71.78a15.41,15.41,0,0,1,1.85.9A3.4,3.4,0,0,1,172,62.2a2.89,2.89,0,0,1,.45,1.67,3.44,3.44,0,0,1-.52,1.89A3.4,3.4,0,0,1,170.39,67a5.74,5.74,0,0,1-2.42.46A8.78,8.78,0,0,1,166.1,67.29Z"/><path class="cls-2" d="M48.73,54.6l-13-7.07-7,4h0s-2.39,1.34-2.54,3.49a1.71,1.71,0,0,1-.68-.86V49.14h0a1.16,1.16,0,0,1,.68-1l9.6-5.57,13,7"/><path class="cls-2" d="M7.62,49.53a1.23,1.23,0,0,1,.67-.87l16.12-9.48a7.58,7.58,0,0,1,3.76-.91v5a7.58,7.58,0,0,0-3.76.91l-13.55,8h0l13.55,8a8.22,8.22,0,0,0,7.51,0L48.05,50.6a1.19,1.19,0,0,0,.68-1h0v5h0a1.19,1.19,0,0,1-.68,1L31.92,65.05a8.16,8.16,0,0,1-7.51,0L8.29,55.57a1.19,1.19,0,0,1-.68-1h0V49.53Z"/><path class="cls-2" d="M48.7,62.61a1.19,1.19,0,0,1-.68,1L31.9,73.07a8.22,8.22,0,0,1-7.51,0L8.26,63.58a1.19,1.19,0,0,1-.68-1v-5a1.19,1.19,0,0,0,.68,1L24.39,68.1a8.16,8.16,0,0,0,7.51,0L48,58.62a1.19,1.19,0,0,0,.68-1Z"/><path class="cls-2" d="M48.7,70.37a1.19,1.19,0,0,1-.68,1L31.9,80.82a8.16,8.16,0,0,1-7.51,0L8.26,71.34a1.19,1.19,0,0,1-.68-1v-5a1.18,1.18,0,0,0,.68,1l16.13,9.49a8.22,8.22,0,0,0,7.51,0L48,66.37a1.17,1.17,0,0,0,.68-1Z"/></g></g></g></svg>