<?xml version="1.0" encoding="UTF-8"?>
<svg width="48px" height="48px" viewBox="0 0 48 48" version="1.1" xmlns="http://www.w3.org/2000/svg" xmlns:xlink="http://www.w3.org/1999/xlink">
    <title>切片</title>
    <g id="PC" stroke="none" stroke-width="1" fill="none" fill-rule="evenodd">
        <g id="首页1备份-3" transform="translate(-1220.000000, -1528.000000)">
            <g id="社区贡献者+社区软件+sig组+社区用户+商用OSV" transform="translate(820.000000, 1478.000000)">
                <g id="楼层一/五个三级插画区域" transform="translate(397.000000, 50.000000)">
                    <g id="插画/openEuler/三级插画/1" transform="translate(3.000000, 0.000000)">
                        <g id="编组-6" transform="translate(3.000000, 5.400000)">
                            <path d="M7.16326531,6.75915933 C11.8128613,0.920770785 19.8669551,-1.44298312 27.1711493,0.887149994 C34.4753435,3.21728311 39.397197,9.72053327 39.3979592,17.0424467 C39.3979592,17.3414476 39.3979592,17.6287231 39.3979592,17.9335868" id="Path"></path>
                            <g id="编组-28" stroke="#FFFFFF" stroke-linecap="round" stroke-width="1.5">
                                <path d="M6.56326531,7.23646981 C11.2128613,0.985792709 19.2669551,-1.54488203 26.5711493,0.949797724 C33.8753435,3.44447748 38.797197,10.4069666 38.7979592,18.2459304 C38.7979592,18.5660459 38.7979592,18.8736078 38.7979592,19.2" id="Path"></path>
                                <path d="M38.2959184,22.6716011 C35.225584,30.2852662 27.9106291,35.2642931 19.7845841,35.2716011 C19.5573244,35.2716011 19.3300647,35.2716011 19.0959184,35.2716011" id="Path"></path>
                                <path d="M13.7326531,32.8760286 C7.08477663,29.5012941 2.92987458,22.8906366 2.93265306,15.6926891 C2.93265306,15.4182376 2.93265306,15.1437862 2.93265306,14.8760286" id="Path"></path>
                                <path d="M42.3795918,15.5380143 C42.3795918,13.557125 40.7760403,11.951297 38.7979592,11.951297 C36.8198781,11.951297 35.2163265,13.557125 35.2163265,15.5380143 C35.2163265,17.5189036 36.8198781,19.1247317 38.7979592,19.1247317 C40.7760403,19.1247317 42.3795918,17.5189036 42.3795918,15.5380143 L42.3795918,15.5380143 Z" id="Path" fill="#1E1E1E" fill-rule="nonzero"></path>
                                <path d="M7.16326531,14.3424419 C7.16326531,12.3615526 5.55971375,10.7557245 3.58163265,10.7557245 C1.60355156,10.7557245 0,12.3615526 0,14.3424419 C0,16.3233312 1.60355156,17.9291592 3.58163265,17.9291592 C5.55833485,17.9258295 7.15994032,16.3219503 7.16326531,14.3424419 L7.16326531,14.3424419 Z" id="Path" fill="#1E1E1E" fill-rule="nonzero"></path>
                                <path d="M23.877551,34.0600113 C23.8799897,32.6034195 23.0089168,31.2888869 21.6707674,30.7297705 C20.332618,30.1706541 18.791127,30.4771498 17.7655496,31.5062477 C16.7399722,32.5353456 16.4324388,34.0842214 16.9864436,35.4301741 C17.5404484,36.7761269 18.8468029,37.6538909 20.2959659,37.6538909 C21.2453042,37.6554976 22.1563092,37.27757 22.8281599,36.603413 C23.5000107,35.9292561 23.877551,35.0142188 23.877551,34.0600113 L23.877551,34.0600113 Z" id="Path" fill="#1E1E1E" fill-rule="nonzero"></path>
                            </g>
                            <path d="M38.2040816,22.711449 C35.3403291,29.2133692 28.5175475,33.4653602 20.9382485,33.4716011 C20.7262795,33.4716011 20.5143106,33.4716011 20.2959184,33.4716011" id="Path"></path>
                            <path d="M13.1326531,32.2760286 C7.25357867,29.1378978 3.5791755,22.9907155 3.58163265,16.2974185 C3.58163265,16.0422089 3.58163265,15.7869993 3.58163265,15.5380143" id="Path"></path>
                            <path d="M28.2986157,9.34301877 C31.8777816,13.3299508 32.0416705,19.5381399 28.6784443,23.7311025 C25.3152181,27.9240651 19.5096236,28.7494381 15.2234127,25.643985 C10.9372019,22.5385318 9.5528134,16.5038593 12.0149573,11.658043 C14.4771012,6.81222667 19.9916583,4.71819547 24.7954812,6.80492149" id="Path"></path>
                            <path d="M28.2986157,10.8757824 C31.8777816,14.5440044 32.0416705,20.2559193 28.6784443,24.1137021 C25.3152181,27.9714849 19.5096236,28.7308787 15.2234127,25.8736713 C10.9372019,23.0164639 9.5528134,17.464195 12.0149573,13.0057467 C14.4771012,8.54729837 19.9916583,6.6206612 24.7954812,8.54057715" id="Path" stroke="#FFFFFF" stroke-width="1.5" stroke-linecap="round"></path>
                            <polygon id="Rectangle" points="16.7142857 16.1358005 20.8928571 11.951297 25.0714286 16.1358005 20.8928571 20.3203041"></polygon>
                            <polygon id="Rectangle" stroke="#BD72FF" stroke-width="1.5" stroke-linecap="round" points="16.8 17.3845036 20.9785714 13.2 25.1571429 17.3845036 20.9785714 21.5690072"></polygon>
                        </g>
                    </g>
                </g>
            </g>
        </g>
    </g>
</svg>