<?xml version="1.0" encoding="UTF-8"?>
<svg width="48px" height="48px" viewBox="0 0 48 48" version="1.1" xmlns="http://www.w3.org/2000/svg" xmlns:xlink="http://www.w3.org/1999/xlink">
    <title>切片</title>
    <g id="PC" stroke="none" stroke-width="1" fill="none" fill-rule="evenodd">
        <g id="首页1备份-3" transform="translate(-1034.000000, -1528.000000)" stroke-width="2">
            <g id="社区贡献者+社区软件+sig组+社区用户+商用OSV" transform="translate(820.000000, 1478.000000)">
                <g id="楼层一/五个三级插画区域" transform="translate(214.000000, 50.000000)">
                    <g id="编组-4" transform="translate(2.400000, 5.400000)">
                        <path d="M15.2742857,0 L40.8857143,0 C42.163859,0 43.2,1.03656106 43.2,2.31522392 L43.2,25.5909417 C43.2,26.2044111 42.9559796,26.7926646 42.5217885,27.2258733 C42.0875974,27.6590821 41.4989328,27.901632 40.8857143,27.9 L2.31428571,27.9 C1.70106717,27.901632 1.11240257,27.6590821 0.678211492,27.2258733 C0.244020414,26.7926646 0,26.2044111 0,25.5909417 L0,2.31522392 C0,1.03656106 1.03614101,0 2.31428571,0 L7.28228571,0" id="Path" stroke="#FFFFFF" stroke-linecap="round"></path>
                        <line x1="9.34054054" y1="36.61875" x2="33.8594595" y2="36.61875" id="Path" stroke="#FFFFFF" stroke-linecap="round"></line>
                        <line x1="17.8054054" y1="27.9" x2="17.8054054" y2="36.0375" id="Path" stroke="#FFFFFF" stroke-linecap="round"></line>
                        <line x1="25.9783784" y1="32.55" x2="25.9783784" y2="36.0375" id="Path" stroke="#FFFFFF" stroke-linecap="round"></line>
                        <path d="M21.6201546,16.275 C19.4933104,16.2823904 17.5713654,15.1176451 16.7518191,13.3246353 C15.9322728,11.5316255 16.3768112,9.46408909 17.8778462,8.08751301 C19.3788812,6.71093693 21.6402776,6.29690207 23.606021,7.03875219 C25.5717644,7.78060231 26.8540541,9.53197982 26.8540541,11.475036 C26.8540541,14.1188163 24.5140023,16.2648611 21.6201546,16.275 L21.6201546,16.275 Z" id="Path" stroke="#BD72FF"></path>
                        <path d="M12.8432432,27.9 L30.3567568,27.9 L30.3567568,22.0959274 C30.3567568,22.0959274 30.1363069,18.2471057 24.1596674,18.8268961 L21.6,23.8352988 L19.0403326,18.7652163 C19.0403326,18.7652163 14.0740881,17.5316196 12.8432432,21.8060322 L12.8432432,27.9 Z" id="Path" stroke="#FFFFFF" stroke-linecap="round" stroke-linejoin="round"></path>
                    </g>
                </g>
            </g>
        </g>
    </g>
</svg>