<?xml version="1.0" encoding="UTF-8"?>
<svg width="116px" height="144px" viewBox="0 0 116 144" version="1.1" xmlns="http://www.w3.org/2000/svg" xmlns:xlink="http://www.w3.org/1999/xlink">
    <title>01</title>
    <g id="PC" stroke="none" stroke-width="1" fill="none" fill-rule="evenodd">
        <g id="Certification_zh1" transform="translate(-432.000000, -1788.000000)">
            <g id="认证流程" transform="translate(432.000000, 1724.000000)">
                <g id="01" transform="translate(0.000000, 64.000000)">
                    <rect id="Rectangle" fill="#FFFFFF" x="0" y="0" width="116" height="144" rx="4"></rect>
                    <g id="编组-2" transform="translate(12.000000, 12.000000)">
                        <path d="M93.2928838,16.6456814 L78.2832713,63.9675248 L21.7492451,63.9675248 L13.741116,16.6456814 L93.2928838,16.6456814 Z" id="路径-6" stroke="#575D6C" stroke-width="2" stroke-linecap="round" stroke-linejoin="round"></path>
                        <line x1="22.594236" y1="62.9675248" x2="14.8623853" y2="18.3803689" id="路径-7" stroke="#575D6C" stroke-width="2" stroke-linecap="round" stroke-linejoin="round"></line>
                        <path d="M53.343821,0 C53.343821,0 50.3363611,10.6482568 33.9871943,10.6482568 C33.9871943,10.6482568 30.9031505,38.1913653 53.343821,46 C75.7847602,38.1913653 72.7004478,10.6482568 72.7004478,10.6482568 C56.3512809,10.6482568 53.343821,0 53.343821,0 Z" id="Fill-1" stroke="#575D6C" stroke-width="2" fill="#FFFFFF" stroke-linecap="round" stroke-linejoin="round"></path>
                        <line x1="21.1521916" y1="54.9376139" x2="79.8438357" y2="55" id="路径-8" stroke="#575D6C" stroke-width="2" stroke-linecap="round" stroke-linejoin="round"></line>
                        <rect id="矩形" fill="#FFFFFF" x="53.8438357" y="59" width="42" height="42"></rect>
                        <text id="01" font-family="Helvetica" font-size="24" font-weight="normal" fill="#B541FF">
                            <tspan x="59.8438357" y="89">01</tspan>
                        </text>
                        <path d="" id="路径-9" stroke="#575D6C" stroke-width="2" stroke-linecap="round" stroke-linejoin="round"></path>
                        <circle id="椭圆形" stroke="#575D6C" stroke-width="2" stroke-linecap="round" stroke-linejoin="round" cx="28.8521916" cy="74.6119693" r="6.41851852"></circle>
                    </g>
                </g>
            </g>
        </g>
    </g>
</svg>