<?xml version="1.0" encoding="UTF-8"?>
<svg width="116px" height="144px" viewBox="0 0 116 144" version="1.1" xmlns="http://www.w3.org/2000/svg" xmlns:xlink="http://www.w3.org/1999/xlink">
    <title>05</title>
    <g id="PC" stroke="none" stroke-width="1" fill="none" fill-rule="evenodd">
        <g id="Certification_zh1" transform="translate(-1059.000000, -1788.000000)">
            <g id="认证流程" transform="translate(432.000000, 1724.000000)">
                <g id="05" transform="translate(627.000000, 64.000000)">
                    <rect id="Rectangle" fill="#FFFFFF" x="0" y="0" width="116" height="144" rx="4"></rect>
                    <g id="编组" transform="translate(14.000000, 12.000000)">
                        <g id="编组-2备份" stroke="#575D6C" stroke-linejoin="round" stroke-width="2">
                            <rect id="矩形" fill="#FFFFFF" x="0" y="4" width="67" height="79"></rect>
                            <rect id="矩形备份" fill="#FFFFFF" x="9" y="0" width="52" height="6"></rect>
                            <rect id="矩形" x="10" y="12" width="48" height="19"></rect>
                            <line x1="10" y1="67.5" x2="58" y2="67.5" id="路径" stroke-linecap="round"></line>
                            <line x1="10" y1="59.5" x2="46.7016129" y2="59.5" id="路径备份" stroke-linecap="round"></line>
                            <line x1="10" y1="51.5" x2="53.6986301" y2="51.5" id="路径备份-2" stroke-linecap="round"></line>
                            <line x1="10" y1="42.5" x2="58" y2="42.5" id="路径备份-3" stroke-linecap="round"></line>
                        </g>
                        <g id="编组备份-4" transform="translate(45.693935, 11.976167)" fill="#FFFFFF" stroke="#575D6C" stroke-linejoin="round" stroke-width="2">
                            <path d="M8.11849693,40.6801459 L8.11849693,47.6561848 L-2.8438499,44.1681654 L8.11849693,40.6801459 Z" id="路径-2" transform="translate(3.786380, 44.168165) rotate(-409.000000) translate(-3.786380, -44.168165) "></path>
                            <path d="M50.8725137,18.1603218 L50.8725137,24.4011977 L-3.83551545,24.4011977 L-3.83551545,18.1603218 L50.8725137,18.1603218 Z" id="矩形" transform="translate(23.518499, 21.280760) rotate(-409.000000) translate(-23.518499, -21.280760) "></path>
                            <path d="M20.8411247,29.5367785 L20.8411247,35.7776544 L6.11849693,35.7776544 L6.11849693,29.5367785 L20.8411247,29.5367785 Z" id="矩形备份-6" transform="translate(13.479811, 32.657216) rotate(-409.000000) translate(-13.479811, -32.657216) "></path>
                        </g>
                        <rect id="矩形备份-4" fill="#FFFFFF" x="52" y="59" width="42" height="42"></rect>
                        <text id="05" font-family="Helvetica" font-size="24" font-weight="normal" fill="#B541FF">
                            <tspan x="55" y="89">05</tspan>
                        </text>
                    </g>
                </g>
            </g>
        </g>
    </g>
</svg>