<?xml version="1.0" encoding="UTF-8"?>
<svg width="116px" height="144px" viewBox="0 0 116 144" version="1.1" xmlns="http://www.w3.org/2000/svg" xmlns:xlink="http://www.w3.org/1999/xlink">
    <title>06</title>
    <g id="PC" stroke="none" stroke-width="1" fill="none" fill-rule="evenodd">
        <g id="Certification_zh1" transform="translate(-1216.000000, -1788.000000)">
            <g id="认证流程" transform="translate(432.000000, 1724.000000)">
                <g id="06" transform="translate(784.000000, 64.000000)">
                    <rect id="Rectangle" fill="#FFFFFF" x="0" y="0" width="116" height="144" rx="4"></rect>
                    <g id="编组" transform="translate(14.000000, 15.000000)">
                        <g id="编组备份" fill="#FFFFFF" stroke="#575D6C" stroke-linejoin="round" stroke-width="2">
                            <rect id="矩形备份-4" x="-1" y="-1" width="45.6103896" height="75"></rect>
                            <rect id="矩形备份-5" x="42.6103896" y="-1" width="45.6103896" height="75"></rect>
                        </g>
                        <path d="M29.0994044,34.1278195 L29.0994044,56.7133238 L21.5129382,49.3016444 L13.926472,56.7133238 L13.926472,34.1278195 L29.0994044,34.1278195 Z" id="矩形备份" stroke="#575D6C" stroke-width="2" fill="#FFFFFF" stroke-linejoin="round"></path>
                        <rect id="矩形备份-3" stroke="#575D6C" stroke-width="2" fill="#FFFFFF" stroke-linejoin="round" x="54.5430134" y="11.075188" width="22.8571429" height="22.8571429"></rect>
                        <circle id="椭圆形备份" stroke="#575D6C" stroke-width="2" fill="#FFFFFF" stroke-linejoin="round" cx="21.5129382" cy="30.7368421" r="11.4285714"></circle>
                        <path d="M21.5129382,22.4396967 L23.9514081,27.3805763 L29.4039924,28.1728832 L25.4584653,32.0188216 L26.3898779,37.4493738 L21.5129382,34.8854148 L16.6359985,37.4493738 L17.5674111,32.0188216 L13.6218839,28.1728832 L19.0744683,27.3805763 L21.5129382,22.4396967 Z" id="星形备份" stroke="#575D6C" stroke-width="2" fill="#FFFFFF" stroke-linejoin="round"></path>
                        <line x1="54.9941412" y1="45.0075188" x2="76.9490284" y2="45.0075188" id="路径-5备份-3" stroke="#575D6C" stroke-width="2" fill="#FFFFFF" stroke-linecap="round" stroke-linejoin="round"></line>
                        <line x1="54.9941412" y1="51.593985" x2="76.9490284" y2="51.593985" id="路径-5备份-4" stroke="#575D6C" stroke-width="2" fill="#FFFFFF" stroke-linecap="round" stroke-linejoin="round"></line>
                        <rect id="矩形备份-5" fill="#FFFFFF" x="51.6103896" y="56" width="42" height="42"></rect>
                        <text id="06" font-family="Helvetica" font-size="24" font-weight="normal" fill="#B541FF">
                            <tspan x="55.6103896" y="86">06</tspan>
                        </text>
                    </g>
                </g>
            </g>
        </g>
    </g>
</svg>