<?xml version="1.0" encoding="UTF-8"?>
<svg width="116px" height="144px" viewBox="0 0 116 144" version="1.1" xmlns="http://www.w3.org/2000/svg" xmlns:xlink="http://www.w3.org/1999/xlink">
    <title>07</title>
    <g id="PC" stroke="none" stroke-width="1" fill="none" fill-rule="evenodd">
        <g id="Certification_zh1" transform="translate(-1372.000000, -1788.000000)">
            <g id="认证流程" transform="translate(432.000000, 1724.000000)">
                <g id="07" transform="translate(940.000000, 64.000000)">
                    <rect id="Rectangle" fill="#FFFFFF" x="0" y="0" width="116" height="144" rx="4"></rect>
                    <g id="编组" transform="translate(15.000000, 12.000000)">
                        <line x1="14.7642857" y1="81.3821217" x2="72.9857143" y2="81.5214075" id="路径备份-8" stroke="#575D6C" stroke-width="2" stroke-linecap="round" stroke-linejoin="round"></line>
                        <rect id="矩形备份-4" stroke="#575D6C" stroke-width="2" fill="#FFFFFF" stroke-linejoin="round" x="-1" y="3.9142646" width="88.9142857" height="63.8428571"></rect>
                        <g id="编组备份" transform="translate(23.600021, 0.000000)" fill="#FFFFFF" stroke="#575D6C" stroke-linejoin="round" stroke-width="2">
                            <rect id="矩形" x="6.85712175" y="19.7999789" width="28" height="22"></rect>
                            <path d="M4.46610198,4.46610198 L28.8443913,11.9841379 L36.3624272,36.3624272 L11.9841379,28.8443913 L4.46610198,4.46610198 Z" id="矩形" transform="translate(20.414265, 20.414265) rotate(-45.000000) translate(-20.414265, -20.414265) "></path>
                        </g>
                        <line x1="0" y1="57.0240049" x2="86.9142857" y2="57.0240049" id="路径备份-9" stroke="#575D6C" stroke-width="2"></line>
                        <path d="M47.5597344,51.7044897 L51.2711949,55.5478194 L36.2061642,70.0959505 L32.4947037,66.2526207 L47.5597344,51.7044897 Z M57.7873643,32.7198632 L58.1355961,32.7211964 C61.3853145,32.7779204 64.6133935,34.0743702 67.049566,36.5971008 C69.4857386,39.1198313 70.6687403,42.3911892 70.6120163,45.6409077 C70.5552923,48.8906261 69.2588424,52.118705 66.7361119,54.5548776 C64.2133813,56.9910501 60.9420234,58.1740519 57.692305,58.1173278 C54.4425866,58.0606038 51.2145077,56.7641539 48.7783351,54.2414234 C46.3421625,51.7186928 45.1591608,48.4473349 45.2158848,45.1976165 C45.2726089,41.9478981 46.5690587,38.7198192 49.0917893,36.2836466 C51.4343248,34.0214864 54.4223604,32.8398663 57.4391774,32.7280215 L57.7873643,32.7198632 Z M58.0617974,36.9491238 C55.8941,36.9112865 53.7119681,37.7003979 52.0292018,39.3254264 C50.3464355,40.9504549 49.4816495,43.1037178 49.4438122,45.2714153 C49.4059749,47.4391127 50.1950863,49.6212446 51.8201148,51.3040109 C53.4451433,52.9867771 55.5984063,53.8515631 57.7661038,53.8894004 C59.9338012,53.9272377 62.1159331,53.1381263 63.7986993,51.5130978 C65.4814656,49.8880693 66.3462516,47.7348063 66.3840889,45.5671089 C66.4219262,43.3994115 65.6328148,41.2172796 64.0077863,39.5345133 C62.3827578,37.8517471 60.2294948,36.9869611 58.0617974,36.9491238 Z" id="形状结合备份" stroke="#575D6C" stroke-width="2" fill="#FFFFFF" stroke-linejoin="round"></path>
                        <rect id="矩形备份-6" fill="#FFFFFF" x="51.4571429" y="59.7999789" width="42" height="42"></rect>
                        <text id="07" font-family="Helvetica" font-size="24" font-weight="normal" fill="#B541FF">
                            <tspan x="55.4571429" y="89">07</tspan>
                        </text>
                    </g>
                </g>
            </g>
        </g>
    </g>
</svg>