<?xml version="1.0" encoding="UTF-8"?>
<svg width="16px" height="16px" viewBox="0 0 16 16" version="1.1" xmlns="http://www.w3.org/2000/svg" xmlns:xlink="http://www.w3.org/1999/xlink">
    <title>博士帽 学时</title>
    <g id="PC" stroke="none" stroke-width="1" fill="none" fill-rule="evenodd">
        <g id="Certification_zh2" transform="translate(-576.000000, -1446.000000)">
            <g id="等级体系-OGCA" transform="translate(440.000000, 1160.000000)">
                <g id="Group-7" transform="translate(0.000000, 72.000000)">
                    <g id="Group-3" transform="translate(0.000000, 112.000000)">
                        <g id="Group-6" transform="translate(40.000000, 48.000000)">
                            <g id="博士帽-学时" transform="translate(96.000000, 54.000000)">
                                <rect id="Rectangle" x="0" y="0" width="16" height="16"></rect>
                                <path d="M16,5.04369404 C16.0008619,4.27230013 15.5593343,3.5654564 14.8567772,3.21350908 L8.96971221,0.230970519 C8.36089894,-0.076990173 7.63695424,-0.076990173 7.02814097,0.230970519 L1.1370501,3.21348989 C0.438341278,3.56861767 0,4.2741713 0,5.04368445 C0,5.8131976 0.438341278,6.51875122 1.1370501,6.873879 L2.36172836,7.49376458 L2.36172836,12.0216328 C2.36151339,12.2818809 2.5360089,12.5114667 2.79105898,12.5865082 L7.16688495,14.8018024 C7.68896187,15.0660659 8.30989286,15.0660659 8.83196978,14.8018024 L13.2067746,12.5865082 C13.4622291,12.5118285 13.6372061,12.2821555 13.6371264,12.0216328 L13.6371264,7.49380295 L14.7934244,6.90436769 L14.7934244,9.49492797 C14.7934244,9.82046408 15.0635247,10.0843632 15.3967103,10.0843632 C15.7298959,10.0843632 16,9.82046408 16,9.49492797 L16,5.04369404 Z M12.4305545,11.6522764 L8.27693496,13.7555548 C8.10291284,13.8436382 7.89594189,13.8436382 7.72191977,13.7555548 L3.56830019,11.652238 L3.56830019,8.10486235 L7.02814097,9.85743449 C7.63695424,10.1653952 8.36089894,10.1653952 8.96971221,9.85743449 L12.4305545,8.10486235 L12.4305545,11.6522764 Z M8.41469702,8.81020836 C8.15392804,8.94200238 7.84392514,8.94200238 7.58315616,8.81020836 L1.69210456,5.82765061 C1.39096954,5.67601239 1.20174428,5.37273596 1.20174428,5.04173693 C1.20174428,4.71073791 1.39096954,4.40746147 1.69210456,4.25582326 L7.5831758,1.2772181 C7.84394478,1.14542408 8.15394768,1.14542408 8.41471666,1.2772181 L14.3057879,4.25975666 C14.6069229,4.41139488 14.7961482,4.71467131 14.7961482,5.04567034 C14.7961482,5.37666936 14.6069229,5.6799458 14.3057879,5.83158401 L8.41469702,8.81020836 Z" id="Shape" fill="#252C32" fill-rule="nonzero"></path>
                            </g>
                        </g>
                    </g>
                </g>
            </g>
        </g>
    </g>
</svg>