<?xml version="1.0" standalone="no"?><!DOCTYPE svg PUBLIC "-//W3C//DTD SVG 1.1//EN" "http://www.w3.org/Graphics/SVG/1.1/DTD/svg11.dtd"><svg t="1583742137242" class="icon" viewBox="0 0 1024 1024" version="1.1" xmlns="http://www.w3.org/2000/svg" p-id="2624" width="16" height="16" xmlns:xlink="http://www.w3.org/1999/xlink"><defs><style type="text/css"></style></defs><path d="M867.584 160.192c-149.632-16.928-262.208-57.408-334.592-120.352l-19.04-16.544-20.544 14.656C379.968 118.944 267.776 160 160 160H128v448c0 137.344 121.088 261.92 370.208 380.864l13.088 6.24 13.344-5.728C771.072 883.52 896 755.232 896 608V163.424l-28.416-3.232zM832 608c0 116.8-107.392 223.36-319.328 316.8C299.872 821.024 192 714.464 192 608V222.976c104.672-6.784 211.584-46.688 318.496-118.944C587.232 162.528 695.168 201.536 832 220.256V608z" p-id="2625" fill="#467fbf"></path><path d="M359.776 468.672a32 32 0 1 0-47.968 42.4l121.792 137.824c12.608 14.24 30.176 21.568 47.904 21.568a64.384 64.384 0 0 0 49.696-23.52l197.6-242.72a32 32 0 0 0-49.632-40.416l-197.6 242.688-121.792-137.824z" p-id="2626" fill="#467fbf"></path></svg>