<?xml version="1.0" encoding="UTF-8"?>
<svg width="36px" height="36px" viewBox="0 0 36 36" version="1.1" xmlns="http://www.w3.org/2000/svg" xmlns:xlink="http://www.w3.org/1999/xlink">
    <title>arrow</title>
    <g id="PC" stroke="none" stroke-width="1" fill="none" fill-rule="evenodd">
        <g id="Certification_zh2" transform="translate(-1420.000000, -1270.000000)">
            <g id="等级体系-OGCA" transform="translate(440.000000, 1160.000000)">
                <g id="Group-7" transform="translate(0.000000, 72.000000)">
                    <g id="arrow" transform="translate(980.000000, 38.000000)">
                        <rect id="Rectangle" x="0" y="0" width="36" height="36"></rect>
                        <g id="收起-(1)" transform="translate(2.000000, 0.000000)" fill="#FFFFFF" fill-rule="nonzero">
                            <path d="M18.6640984,35.6151171 C19.1687524,35.10352 19.1687524,34.2743797 18.6640984,33.7627826 L3.11812662,18.0094684 L18.6640984,2.25897783 C19.0040999,1.93090678 19.1418757,1.44189705 19.0240438,0.981417728 C18.906212,0.520938408 18.5512875,0.161344599 18.0967875,0.0419625999 C17.6422874,-0.0774193989 17.1596274,0.0621689009 16.8358164,0.406643361 L0.378490445,17.0833011 C-0.126163482,17.5948982 -0.126163482,18.4240385 0.378490445,18.9356356 L16.8386034,35.6151171 C17.3435574,36.1264101 18.1619314,36.1264101 18.6668855,35.6151171 L18.6640984,35.6151171 Z M31.5958499,35.6151171 C32.1005038,35.10352 32.1005038,34.2743797 31.5958499,33.7627826 L16.049878,18.0094684 L31.5986369,2.25897783 C31.9386384,1.93090678 32.0764141,1.44189705 31.9585823,0.981417728 C31.8407504,0.520938408 31.4858259,0.161344599 31.0313259,0.0419625999 C30.5768259,-0.0774193989 30.0941659,0.0621689009 29.7703548,0.406643361 L13.3074549,17.0833011 C12.8028009,17.5948982 12.8028009,18.4240385 13.3074549,18.9356356 L29.7675678,35.6151171 C30.0101757,35.8615209 30.3395809,36 30.6831023,36 C31.0266237,36 31.3560289,35.8615209 31.5986369,35.6151171 L31.5958499,35.6151171 Z" id="Shape"></path>
                        </g>
                    </g>
                </g>
            </g>
        </g>
    </g>
</svg>