<?xml version="1.0" encoding="UTF-8"?>
<svg width="24px" height="25px" viewBox="0 0 24 25" version="1.1" xmlns="http://www.w3.org/2000/svg" xmlns:xlink="http://www.w3.org/1999/xlink">
    <title>Group</title>
    <g id="PC" stroke="none" stroke-width="1" fill="none" fill-rule="evenodd">
        <g id="Member_zh" transform="translate(-528.000000, -702.000000)" fill-rule="nonzero">
            <g id="TC" transform="translate(410.000000, 320.000000)">
                <g id="Content" transform="translate(60.000000, 40.000000)">
                    <g id="people" transform="translate(0.000000, 178.000000)">
                        <g id="Outlined/UI/email" transform="translate(18.000000, 164.000000)">
                            <g id="Group" transform="translate(40.000000, 0.500000)">
                                <circle id="Combined-Shape" fill="#C71D23" cx="11.961183" cy="11.961183" r="11.961183"></circle>
                                <path d="M18.0156123,10.6323811 L11.2228791,10.6323811 C10.8967201,10.6325358 10.6322921,10.8968946 10.632052,11.2230535 L10.6316653,12.6996755 C10.6314203,13.0258948 10.8958041,13.2904171 11.2220234,13.2905025 C11.2220766,13.2905026 11.2221298,13.2905026 11.222183,13.290343 L15.3575862,13.2903085 C15.6838056,13.2903009 15.9482609,13.5547517 15.9482636,13.8809711 C15.9482636,13.8809728 15.9482636,13.8809744 15.9482587,13.8809761 L15.9482587,14.0286277 L15.9482587,14.0286277 L15.9482587,14.1762973 C15.9482587,15.1549555 15.1548995,15.9483147 14.1762413,15.9483147 L8.56441347,15.9483147 C8.23824091,15.9482984 7.97382328,15.6838881 7.973798,15.3577155 L7.97364333,9.74643168 C7.97356749,8.76777355 8.76690483,7.97439248 9.74556296,7.97436549 C9.74557925,7.97436549 9.74559555,7.97436549 9.74561181,7.97441435 L18.0139637,7.97441435 C18.34004,7.97404787 18.6044338,7.70981805 18.6050025,7.383742 L18.6059183,5.90711992 C18.6064869,5.5809008 18.3421979,5.31628379 18.0159786,5.31608144 C18.0158565,5.31608144 18.0157344,5.31608144 18.0156123,5.31644757 L9.74612472,5.31644757 C7.29947931,5.31644757 5.31608133,7.29984555 5.31608133,9.74649093 L5.31608133,18.0156123 C5.31608133,18.3418317 5.5805344,18.6062847 5.90675379,18.6062847 L14.6193329,18.6062847 C16.8212656,18.6062847 18.6062847,16.8212656 18.6062847,14.6193329 L18.6062847,11.2230536 C18.6062847,10.8968342 18.3418317,10.6323811 18.0156123,10.6323811 Z" id="G" fill="#FFFFFF"></path>
                            </g>
                        </g>
                    </g>
                </g>
            </g>
        </g>
    </g>
</svg>