<svg xmlns="http://www.w3.org/2000/svg" xmlns:xlink="http://www.w3.org/1999/xlink" width="72px" height="72px"
    viewBox="0 0 72 72" version="1.1">
    <title>gitee</title>
    <g id="网页" stroke="none" stroke-width="1" fill="none" fill-rule="evenodd">
        <g id="logo_gitee_g_red" fill="#C71D23" fill-rule="nonzero">
            <path
                d="M36,72 C16.117749,72 0,55.882251 0,36 C0,16.117749 16.117749,0 36,0 C55.882251,0 72,16.117749 72,36 C72,55.882251 55.882251,72 36,72 Z M54.222232,32.0006574 L33.7779,32.001123 C32.796248,32.001123 32.000389,32.7967732 32.000132,33.7784255 L31.998023,38.222667 C31.997765,39.2045011 32.793491,40.0006433 33.775325,40.0009005 L33.775805,40.0009005 L46.222276,40.0003017 C47.20411,40.0002935 48.000051,40.7962207 48.000059,41.7780549 L48.000059,41.7780697 L48.000044,42.2224621 L48.000044,42.6669087 C48.000044,45.6124111 45.612243,48.0002126 42.66674,48.0002126 L25.776621,48.0001636 C24.794928,48.0001636 23.999101,47.2043584 23.999074,46.2226652 L23.998412,29.3341838 C23.998331,26.3886813 26.386067,24.000814 29.331569,24.0007328 L29.331716,24.0007328 L54.21727,23.9997769 C55.198674,23.9997769 55.994429,23.2045149 55.995038,22.2231115 L56,17.7788706 C56.000609,16.7970366 55.205169,16.0006093 54.223335,16 C54.222967,16 54.2226,16 54.222232,16 L29.33348,16.0011758 C21.969753,16.0011758 16,21.9706347 16,29.3343621 L16,54.222232 C16,55.2040662 16.795924,56 17.777758,56 L44.000329,56 C50.627564,56 56,50.6275642 56,44.0003287 L56,33.7784254 C56,32.7965913 55.204066,32.0006574 54.222232,32.0006574 L54.222232,32.0006574 Z"
                id="形状" />
        </g>
    </g>
</svg>