<svg width="16" height="16" xmlns="http://www.w3.org/2000/svg"><g fill="none" fill-rule="evenodd"><path d="M0 0h16v16H0z"/><path d="M16 5.044a2.05 2.05 0 0 0-1.143-1.83L8.97.23a2.156 2.156 0 0 0-1.942 0l-5.89 2.982A2.058 2.058 0 0 0 0 5.043c0 .77.438 1.476 1.137 1.83l1.225.62v4.529c0 .26.174.49.43.565l4.375 2.215a1.848 1.848 0 0 0 1.665 0l4.375-2.215a.591.591 0 0 0 .43-.565V7.494l1.156-.59v2.59c0 .326.27.59.604.59a.596.596 0 0 0 .603-.59v-4.45Zm-3.57 6.608-4.153 2.104a.616.616 0 0 1-.555 0l-4.154-2.104V8.105l3.46 1.752a2.156 2.156 0 0 0 1.942 0l3.46-1.752v3.547ZM8.416 8.81a.924.924 0 0 1-.832 0l-5.89-2.982a.882.882 0 0 1-.491-.786c0-.331.189-.635.49-.786l5.891-2.979a.924.924 0 0 1 .832 0l5.89 2.983c.302.151.491.455.491.786 0 .33-.19.634-.49.786L8.415 8.81Z" fill="currentColor" fill-rule="nonzero"/></g></svg>