<svg version="1.1" xmlns="http://www.w3.org/2000/svg" width="32" height="32" viewBox="0 0 32 32">
<title>refresh</title>
<path fill="currentColor"  d="M27.327 13.329h-6.667c-0.368 0-0.667-0.298-0.667-0.667v-0.387c-0.003-0.181 0.070-0.355 0.2-0.48l2.373-2.373c-1.734-1.762-4.101-2.756-6.573-2.76-5.070 0.011-9.204 4.069-9.31 9.138s3.855 9.296 8.92 9.519c5.066 0.223 9.383-3.639 9.723-8.698 0.021-0.352 0.314-0.627 0.667-0.627h1.333c0.182 0.005 0.354 0.082 0.48 0.213 0.123 0.134 0.185 0.312 0.173 0.493-0.331 5.649-4.564 10.3-10.158 11.159s-11.027-2.306-13.038-7.596c-2.011-5.29-0.054-11.265 4.697-14.34s11.004-2.412 15.005 1.59l1.987-1.987c0.122-0.127 0.291-0.199 0.467-0.2h0.387c0.368 0 0.667 0.298 0.667 0.667v6.667c0 0.368-0.298 0.667-0.667 0.667z"></path>
</svg>
