<svg version="1.1" xmlns="http://www.w3.org/2000/svg" width="32" height="32" viewBox="0 0 32 32">
<title>moon-solid</title>
<path fill="currentColor"  d="M29.333 19.664c-1.884 6.218-7.902 10.24-14.374 9.604s-11.591-5.751-12.227-12.216c-0.636-6.465 3.389-12.479 9.613-14.361v0c0.242-0.064 0.499 0.002 0.681 0.173l0.12 0.12c0.143 0.15 0.216 0.353 0.2 0.56-0.514 4.144 0.909 8.294 3.859 11.252s7.098 4.394 11.248 3.895c0.207-0.015 0.41 0.057 0.561 0.2l0.12 0.12c0.172 0.181 0.238 0.439 0.174 0.68l0.027-0.027z"></path>
</svg>
