<svg version="1.1" xmlns="http://www.w3.org/2000/svg" width="32" height="32" viewBox="0 0 32 32">
<title>live-streaming</title>
<path fill="currentColor"  d="M18.667 6.667c1.473 0 2.667 1.194 2.667 2.667v2.842l5.78-3.362c0.329-0.232 0.711-0.378 1.11-0.424 0.127-0.001 0.252 0.032 0.362 0.097l0.302 0.17c0.276 0.166 0.445 0.465 0.446 0.788v13.115c-0.001 0.323-0.17 0.622-0.446 0.788l-0.302 0.17c-0.116 0.073-0.25 0.111-0.386 0.109-0.322-0.039-0.63-0.16-0.893-0.352l-5.973-3.488v2.881c0 1.473-1.194 2.667-2.667 2.667h-13.333c-1.473 0-2.667-1.194-2.667-2.667v-13.333c0-1.473 1.194-2.667 2.667-2.667h13.333zM17.333 9.333h-10.667c-0.684 0-1.247 0.515-1.324 1.178l-0.009 0.155v10.667c0 0.684 0.515 1.247 1.178 1.324l0.155 0.009h10.667c0.684 0 1.247-0.515 1.324-1.178l0.009-0.155v-10.667c0-0.736-0.597-1.333-1.333-1.333zM26.715 12.071l-5.382 3.171v1.515l5.382 3.172v-7.858zM13.333 12v2.667h-5.333v-2.667h5.333z"></path>
</svg>
