<svg version="1.1" xmlns="http://www.w3.org/2000/svg" width="32" height="32" viewBox="0 0 32 32">
<title>user</title>
<path fill="currentColor"  d="M16.004 16c2.947 0 5.335-2.388 5.335-5.333s-2.389-5.333-5.335-5.333c-2.947 0-5.335 2.388-5.335 5.333s2.389 5.333 5.335 5.333zM16.004 8c1.473 0 2.668 1.194 2.668 2.667s-1.194 2.667-2.668 2.667c-1.473 0-2.668-1.194-2.668-2.667s1.194-2.667 2.668-2.667zM26.528 24.733l-2.521-5.187c-0.689-1.381-2.111-2.242-3.655-2.213h-8.697c-1.519-0.003-2.909 0.854-3.588 2.213l-2.588 5.187c-0.208 0.413-0.187 0.904 0.054 1.297s0.67 0.634 1.133 0.636h18.674c0.462-0.001 0.891-0.242 1.133-0.636s0.262-0.885 0.054-1.297zM8.828 24l1.627-3.267c0.228-0.453 0.693-0.737 1.2-0.733h8.697c0.507-0.003 0.972 0.281 1.2 0.733l1.627 3.267h-14.352z"></path>
</svg>
