<svg version="1.1" xmlns="http://www.w3.org/2000/svg" width="32" height="32" viewBox="0 0 32 32">
<title>cancel-solid</title>
<path fill="currentColor"  d="M16 2.667c-7.364 0-13.333 5.97-13.333 13.333s5.97 13.333 13.333 13.333c7.364 0 13.333-5.97 13.333-13.333 0-3.536-1.405-6.928-3.905-9.428s-5.892-3.905-9.428-3.905zM20.12 18.48c0.129 0.121 0.202 0.29 0.202 0.467s-0.073 0.346-0.202 0.467l-0.707 0.707c-0.121 0.129-0.29 0.202-0.467 0.202s-0.346-0.073-0.467-0.202l-2.48-2.467-2.48 2.467c-0.121 0.129-0.29 0.202-0.467 0.202s-0.346-0.073-0.467-0.202l-0.707-0.707c-0.129-0.121-0.202-0.29-0.202-0.467s0.073-0.346 0.202-0.467l2.467-2.48-2.467-2.48c-0.129-0.121-0.202-0.29-0.202-0.467s0.073-0.346 0.202-0.467l0.707-0.707c0.121-0.129 0.29-0.202 0.467-0.202s0.346 0.073 0.467 0.202l2.48 2.467 2.48-2.467c0.121-0.129 0.29-0.202 0.467-0.202s0.346 0.073 0.467 0.202l0.707 0.707c0.129 0.121 0.202 0.29 0.202 0.467s-0.073 0.346-0.202 0.467l-2.467 2.48 2.467 2.48z"></path>
</svg>
