<svg version="1.1" xmlns="http://www.w3.org/2000/svg" width="32" height="32" viewBox="0 0 32 32">
<title>chevron-left</title>
<path fill="currentColor"  d="M10.96 16.96c-0.188-0.187-0.293-0.442-0.293-0.707v-0.507c0.003-0.265 0.108-0.518 0.293-0.707l6.853-6.84c0.125-0.126 0.296-0.197 0.473-0.197s0.348 0.071 0.473 0.197l0.947 0.947c0.125 0.123 0.196 0.291 0.196 0.467s-0.071 0.344-0.196 0.467l-5.933 5.92 5.933 5.92c0.126 0.125 0.197 0.296 0.197 0.473s-0.071 0.348-0.197 0.473l-0.947 0.933c-0.125 0.126-0.296 0.197-0.473 0.197s-0.348-0.071-0.473-0.197l-6.853-6.84z"></path>
</svg>
