<svg version="1.1" xmlns="http://www.w3.org/2000/svg" width="32" height="32" viewBox="0 0 32 32">
<title>more</title>
<path fill="currentColor"  d="M27.333 9.333h-22.667c-0.368 0-0.667-0.298-0.667-0.667v-1.333c0-0.368 0.298-0.667 0.667-0.667h22.667c0.368 0 0.667 0.298 0.667 0.667v1.333c0 0.368-0.298 0.667-0.667 0.667zM28 16.667v-1.333c0-0.368-0.298-0.667-0.667-0.667h-22.667c-0.368 0-0.667 0.298-0.667 0.667v1.333c0 0.368 0.298 0.667 0.667 0.667h22.667c0.368 0 0.667-0.298 0.667-0.667zM28 24.667v-1.333c0-0.368-0.298-0.667-0.667-0.667h-22.667c-0.368 0-0.667 0.298-0.667 0.667v1.333c0 0.368 0.298 0.667 0.667 0.667h22.667c0.368 0 0.667-0.298 0.667-0.667z"></path>
</svg>
