<svg version="1.1" xmlns="http://www.w3.org/2000/svg" width="32" height="32" viewBox="0 0 32 32">
<title>link</title>
<path fill="currentColor"  d="M11.533 18.587l7.053-7.053c0.125-0.126 0.296-0.197 0.473-0.197s0.348 0.071 0.473 0.197l0.933 0.933c0.126 0.125 0.197 0.296 0.197 0.473s-0.071 0.348-0.197 0.473l-7.053 7.053c-0.125 0.126-0.296 0.197-0.473 0.197s-0.348-0.071-0.473-0.197l-0.933-0.933c-0.126-0.125-0.197-0.296-0.197-0.473s0.071-0.348 0.197-0.473zM28 10.213v0.453c0.001 1.421-0.565 2.785-1.573 3.787l-3.76 3.773c-0.702 0.695-1.832 0.695-2.533 0l-0.133-0.147c-0.254-0.259-0.254-0.674 0-0.933l4.587-4.587c0.489-0.508 0.758-1.188 0.747-1.893v-0.453c0.001-0.711-0.283-1.392-0.787-1.893l-0.867-0.867c-0.501-0.504-1.183-0.787-1.893-0.787h-0.453c-0.711-0.001-1.392 0.283-1.893 0.787l-4.587 4.547c-0.259 0.254-0.674 0.254-0.933 0l-0.147-0.147c-0.695-0.702-0.695-1.832 0-2.533l3.773-3.787c1.009-0.993 2.371-1.545 3.787-1.533h0.453c1.415-0.001 2.772 0.56 3.773 1.56l0.88 0.88c1 1.001 1.561 2.358 1.56 3.773zM17.147 20c0.259-0.254 0.674-0.254 0.933 0l0.147 0.147c0.695 0.702 0.695 1.832 0 2.533l-3.8 3.8c-1.004 0.982-2.355 1.528-3.76 1.52h-0.453c-1.415 0.001-2.772-0.56-3.773-1.56l-0.88-0.88c-0.997-0.998-1.558-2.35-1.56-3.76v-0.467c-0.001-1.421 0.565-2.785 1.573-3.787l3.76-3.773c0.702-0.695 1.832-0.695 2.533 0l0.147 0.147c0.254 0.259 0.254 0.674 0 0.933l-4.56 4.587c-0.504 0.501-0.787 1.183-0.787 1.893v0.453c-0.001 0.711 0.283 1.392 0.787 1.893l0.867 0.867c0.501 0.504 1.183 0.787 1.893 0.787h0.453c0.715 0.004 1.402-0.279 1.907-0.787l4.573-4.547z"></path>
</svg>
