<svg version="1.1" xmlns="http://www.w3.org/2000/svg" width="32" height="32" viewBox="0 0 32 32">
<title>video</title>
<path fill="currentColor"  d="M26.667 6.667c1.473 0 2.667 1.194 2.667 2.667v13.333c0 1.473-1.194 2.667-2.667 2.667h-21.333c-1.473 0-2.667-1.194-2.667-2.667v-13.333c0-1.473 1.194-2.667 2.667-2.667h21.333zM25.333 9.333h-18.667c-0.684 0-1.247 0.515-1.324 1.178l-0.009 0.155v10.667c0 0.684 0.515 1.247 1.178 1.324l0.155 0.009h18.667c0.684 0 1.247-0.515 1.324-1.178l0.009-0.155v-10.667c0-0.736-0.597-1.333-1.333-1.333zM14.893 11.707l5.187 3.467c0.279 0.182 0.448 0.493 0.448 0.827s-0.169 0.645-0.448 0.827l-5.187 3.467c-0.306 0.207-0.702 0.228-1.028 0.055s-0.531-0.512-0.532-0.882v-6.933c0.001-0.37 0.205-0.709 0.532-0.882s0.722-0.152 1.028 0.055z"></path>
</svg>
