<svg version="1.1" xmlns="http://www.w3.org/2000/svg" width="32" height="32" viewBox="0 0 32 32">
<title>browse</title>
<path fill="currentColor"  d="M29.317 15.6v0c-2.173-5.445-7.466-8.994-13.325-8.933-5.82-0.034-11.070 3.492-13.245 8.893v0c-0.051 0.141-0.078 0.29-0.080 0.44-0.001 0.142 0.026 0.282 0.080 0.413v0c2.166 5.412 7.419 8.949 13.245 8.92 5.82 0.034 11.070-3.492 13.245-8.893v0c0.057-0.139 0.084-0.289 0.080-0.44v0c0.022-0.132 0.022-0.268 0-0.4zM15.992 22.667c-4.509-0.010-8.614-2.6-10.567-6.667 1.946-4.072 6.056-6.664 10.567-6.664s8.621 2.592 10.567 6.664c-1.953 4.066-6.058 6.657-10.567 6.667zM15.992 13.333c1.472 0 2.665 1.194 2.665 2.667s-1.193 2.667-2.665 2.667c-1.472 0-2.665-1.194-2.665-2.667s1.193-2.667 2.665-2.667v0zM15.992 10.667c-2.944 0-5.33 2.388-5.33 5.333s2.386 5.333 5.33 5.333c2.944 0 5.33-2.388 5.33-5.333s-2.386-5.333-5.33-5.333v0z"></path>
</svg>
