<svg version="1.1" xmlns="http://www.w3.org/2000/svg" width="32" height="32" viewBox="0 0 32 32">
<title>done-outline</title>
<path fill="currentColor"  d="M16 2.667c-7.364 0-13.333 5.97-13.333 13.333s5.97 13.333 13.333 13.333c7.364 0 13.333-5.97 13.333-13.333 0-3.536-1.405-6.928-3.905-9.428s-5.892-3.905-9.428-3.905zM16 26.667c-5.891 0-10.667-4.776-10.667-10.667s4.776-10.667 10.667-10.667c5.891 0 10.667 4.776 10.667 10.667 0 2.829-1.124 5.542-3.124 7.542s-4.713 3.124-7.542 3.124zM21.093 11.32c-0.259-0.254-0.674-0.254-0.933 0l-6.32 6.32-2-1.987c-0.121-0.129-0.29-0.202-0.467-0.202s-0.346 0.073-0.467 0.202l-0.707 0.707c-0.126 0.125-0.197 0.296-0.197 0.473s0.071 0.348 0.197 0.473l3.133 3.16c0.121 0.129 0.29 0.202 0.467 0.202s0.346-0.073 0.467-0.202l7.493-7.493c0.126-0.125 0.197-0.296 0.197-0.473s-0.071-0.348-0.197-0.473l-0.667-0.707z"></path>
</svg>
