<svg version="1.1" xmlns="http://www.w3.org/2000/svg" width="32" height="32" viewBox="0 0 32 32">
<title>star-solid</title>
<path fill="currentColor"  d="M2.935 13.139c-0.225-0.164-0.322-0.453-0.24-0.719l0.107-0.333c0.078-0.263 0.312-0.45 0.586-0.466l8.512-0.679 3.264-7.846c0.109-0.275 0.384-0.447 0.679-0.426h0.346c0.278-0.006 0.53 0.165 0.626 0.426l3.277 7.846 8.512 0.679c0.274 0.017 0.508 0.203 0.586 0.466l0.107 0.333c0.091 0.258 0.011 0.545-0.2 0.719l-6.42 5.515 1.971 8.273c0.065 0.265-0.035 0.543-0.253 0.706l-0.386 0.213c-0.225 0.152-0.521 0.152-0.746 0l-7.246-4.396-7.286 4.436c-0.225 0.152-0.521 0.152-0.746 0l-0.293-0.2c-0.218-0.163-0.318-0.441-0.253-0.706l1.918-8.326-6.42-5.515z"></path>
</svg>
