<svg version="1.1" xmlns="http://www.w3.org/2000/svg" width="32" height="32" viewBox="0 0 32 32">
<title>time</title>
<path fill="currentColor"  d="M16 2.667c-7.364 0-13.333 5.97-13.333 13.333s5.97 13.333 13.333 13.333c7.364 0 13.333-5.97 13.333-13.333 0-3.536-1.405-6.928-3.905-9.428s-5.892-3.905-9.428-3.905zM16 26.667c-5.891 0-10.667-4.776-10.667-10.667s4.776-10.667 10.667-10.667c5.891 0 10.667 4.776 10.667 10.667 0 2.829-1.124 5.542-3.124 7.542s-4.713 3.124-7.542 3.124zM17.173 15.52v-6.853c0-0.368-0.298-0.667-0.667-0.667h-1.013c-0.368 0-0.667 0.298-0.667 0.667v7.547c0.007 0.175 0.078 0.341 0.2 0.467l5.333 5.333c0.264 0.256 0.683 0.256 0.947 0l0.707-0.707c0.256-0.264 0.256-0.683 0-0.947l-4.84-4.84z"></path>
</svg>
