<svg version="1.1" xmlns="http://www.w3.org/2000/svg" width="32" height="32" viewBox="0 0 32 32">
<title>comment</title>
<path fill="currentColor"  d="M28 15.333v10c0 1.473-1.194 2.667-2.667 2.667h-18.667c-1.473 0-2.667-1.194-2.667-2.667v-18.667c0-1.473 1.194-2.667 2.667-2.667h10c0.368 0 0.667 0.298 0.667 0.667v1.333c0 0.368-0.298 0.667-0.667 0.667h-10v18.667h18.667v-10c0-0.368 0.298-0.667 0.667-0.667h1.333c0.368 0 0.667 0.298 0.667 0.667zM27.613 4.947l-0.56-0.56c-0.248-0.246-0.584-0.385-0.933-0.387h-0.4c-0.35 0.001-0.685 0.14-0.933 0.387l-2.4 2.4c-0.254 0.259-0.254 0.674 0 0.933l1.893 1.893c0.259 0.254 0.674 0.254 0.933 0l2.4-2.4c0.246-0.248 0.385-0.584 0.387-0.933v-0.4c-0.001-0.35-0.14-0.685-0.387-0.933zM10.44 19.053l-1.053 2.667c-0.1 0.248-0.042 0.531 0.147 0.72v0c0.189 0.189 0.472 0.246 0.72 0.147l2.667-1.053c0.339-0.132 0.648-0.331 0.907-0.587l8.84-8.747c0.254-0.259 0.254-0.674 0-0.933l-1.933-1.933c-0.259-0.254-0.674-0.254-0.933 0l-8.773 8.813c-0.255 0.259-0.455 0.568-0.587 0.907z"></path>
</svg>
