<svg version="1.1" xmlns="http://www.w3.org/2000/svg" width="32" height="32" viewBox="0 0 32 32">
<title>delete</title>
<path fill="currentColor"  d="M26.667 6v1.333c0 0.368-0.298 0.667-0.667 0.667h-20c-0.368 0-0.667-0.298-0.667-0.667v-1.333c0-0.368 0.298-0.667 0.667-0.667h6v-1.333c0-0.736 0.597-1.333 1.333-1.333h5.333c0.736 0 1.333 0.597 1.333 1.333v1.333h6c0.368 0 0.667 0.298 0.667 0.667zM21.707 24h-11.413l-0.96-13.333h-2.667l1.16 16.187c0.098 1.399 1.264 2.483 2.667 2.48h11.040c1.403 0.003 2.568-1.081 2.667-2.48l1.133-16.187h-2.667l-0.96 13.333z"></path>
</svg>
