<svg version="1.1" xmlns="http://www.w3.org/2000/svg" width="32" height="32" viewBox="0 0 32 32">
<title>star-outlined</title>
<path fill="currentColor"  d="M18.473 13.16l6.396 0.507-4.88 4.173 1.489 6.24-5.478-3.347-5.492 3.347 1.503-6.24-4.88-4.173 6.396-0.507 2.473-5.947 2.473 5.947zM15.827 2.667c-0.28-0.004-0.534 0.166-0.638 0.427l-3.258 7.853-8.497 0.68c-0.273 0.017-0.507 0.203-0.585 0.467l-0.146 0.333c-0.090 0.258-0.011 0.546 0.199 0.72l6.449 5.52-1.915 8.293c-0.065 0.265 0.035 0.543 0.253 0.707l0.332 0.2c0.114 0.089 0.255 0.136 0.399 0.133 0.122 0.002 0.242-0.030 0.346-0.093l7.233-4.44 7.273 4.44c0.104 0.064 0.224 0.096 0.346 0.093 0.144 0.003 0.285-0.044 0.399-0.133l0.293-0.2c0.218-0.163 0.317-0.442 0.253-0.707l-1.915-8.293 6.462-5.533c0.2-0.175 0.274-0.455 0.186-0.707l-0.106-0.333c-0.078-0.263-0.312-0.45-0.585-0.467l-8.497-0.68-3.311-7.853c-0.096-0.261-0.347-0.433-0.625-0.427h-0.346z"></path>
</svg>
