<svg version="1.1" xmlns="http://www.w3.org/2000/svg" width="32" height="32" viewBox="0 0 32 32">
<title>add</title>
<path fill="currentColor"  d="M25.333 15.333v1.333c0 0.368-0.298 0.667-0.667 0.667h-7.333v7.333c0 0.368-0.298 0.667-0.667 0.667h-1.333c-0.368 0-0.667-0.298-0.667-0.667v-7.333h-7.333c-0.368 0-0.667-0.298-0.667-0.667v-1.333c0-0.368 0.298-0.667 0.667-0.667h7.333v-7.333c0-0.368 0.298-0.667 0.667-0.667h1.333c0.368 0 0.667 0.298 0.667 0.667v7.333h7.333c0.368 0 0.667 0.298 0.667 0.667z"></path>
</svg>
