<svg version="1.1" xmlns="http://www.w3.org/2000/svg" width="32" height="32" viewBox="0 0 32 32">
<title>tips</title>
<path fill="currentColor"  d="M16 2.667c-7.364 0-13.333 5.97-13.333 13.333s5.97 13.333 13.333 13.333c7.364 0 13.333-5.97 13.333-13.333 0-3.536-1.405-6.928-3.905-9.428s-5.892-3.905-9.428-3.905zM16 26.667c-5.891 0-10.667-4.776-10.667-10.667s4.776-10.667 10.667-10.667c5.891 0 10.667 4.776 10.667 10.667 0 2.829-1.124 5.542-3.124 7.542s-4.713 3.124-7.542 3.124zM16.667 21.333h-1.333c-0.368 0-0.667 0.298-0.667 0.667v1.333c0 0.368 0.298 0.667 0.667 0.667h1.333c0.368 0 0.667-0.298 0.667-0.667v-1.333c0-0.368-0.298-0.667-0.667-0.667zM21.173 12c0-2.121-1.719-3.84-3.84-3.84h-2.667c-2.121 0-3.84 1.719-3.84 3.84v0.667c0 0.368 0.298 0.667 0.667 0.667h1.013c0.368 0 0.667-0.298 0.667-0.667v-0.667c0-0.396 0.157-0.776 0.437-1.056s0.66-0.437 1.056-0.437h2.667c0.825 0 1.493 0.669 1.493 1.493v0.747c0.001 0.643-0.406 1.216-1.013 1.427l-1.267 0.413c-1.024 0.339-1.717 1.295-1.72 2.373v1.040c0 0.368 0.298 0.667 0.667 0.667h1.013c0.368 0 0.667-0.298 0.667-0.667v-1.040c0.006-0.086 0.074-0.154 0.16-0.16l1.267-0.413c1.581-0.512 2.655-1.979 2.667-3.64l-0.093-0.747z"></path>
</svg>
