<svg version="1.1" xmlns="http://www.w3.org/2000/svg" width="32" height="32" viewBox="0 0 32 32">
<title>sun-solid</title>
<path fill="currentColor"  d="M22.667 16c0 3.682-2.985 6.667-6.667 6.667s-6.667-2.985-6.667-6.667c0-3.682 2.985-6.667 6.667-6.667s6.667 2.985 6.667 6.667v0zM15.333 6.667h1.333c0.368 0 0.667-0.298 0.667-0.667v-1.333c0-0.368-0.298-0.667-0.667-0.667h-1.333c-0.368 0-0.667 0.298-0.667 0.667v1.333c0 0.368 0.298 0.667 0.667 0.667zM16.667 25.333h-1.333c-0.368 0-0.667 0.298-0.667 0.667v1.333c0 0.368 0.298 0.667 0.667 0.667h1.333c0.368 0 0.667-0.298 0.667-0.667v-1.333c0-0.368-0.298-0.667-0.667-0.667zM27.333 14.667h-1.333c-0.368 0-0.667 0.298-0.667 0.667v1.333c0 0.368 0.298 0.667 0.667 0.667h1.333c0.368 0 0.667-0.298 0.667-0.667v-1.333c0-0.368-0.298-0.667-0.667-0.667zM6 14.667h-1.333c-0.368 0-0.667 0.298-0.667 0.667v1.333c0 0.368 0.298 0.667 0.667 0.667h1.333c0.368 0 0.667-0.298 0.667-0.667v-1.333c0-0.368-0.298-0.667-0.667-0.667zM24 7.040c-0.264-0.256-0.683-0.256-0.947 0l-0.92 0.96c-0.126 0.125-0.197 0.296-0.197 0.473s0.071 0.348 0.197 0.473l0.933 0.933c0.125 0.126 0.296 0.197 0.473 0.197s0.348-0.071 0.473-0.197l0.947-0.933c0.256-0.264 0.256-0.683 0-0.947l-0.96-0.96zM8.933 22.133c-0.125-0.126-0.296-0.197-0.473-0.197s-0.348 0.071-0.473 0.197l-0.947 0.933c-0.256 0.264-0.256 0.683 0 0.947l0.947 0.947c0.264 0.256 0.683 0.256 0.947 0l0.933-0.96c0.126-0.125 0.197-0.296 0.197-0.473s-0.071-0.348-0.197-0.473l-0.933-0.92zM24 22.133c-0.125-0.126-0.296-0.197-0.473-0.197s-0.348 0.071-0.473 0.197l-0.933 0.933c-0.126 0.125-0.197 0.296-0.197 0.473s0.071 0.348 0.197 0.473l0.933 0.947c0.264 0.256 0.683 0.256 0.947 0l0.947-0.947c0.256-0.264 0.256-0.683 0-0.947l-0.947-0.933zM8 9.867c0.125 0.126 0.296 0.197 0.473 0.197s0.348-0.071 0.473-0.197l0.933-0.933c0.25-0.263 0.245-0.678-0.013-0.933l-0.933-0.947c-0.264-0.256-0.683-0.256-0.947 0l-0.947 0.947c-0.256 0.264-0.256 0.683 0 0.947l0.96 0.92z"></path>
</svg>
