<svg version="1.1" xmlns="http://www.w3.org/2000/svg" width="32" height="32" viewBox="0 0 32 32">
<title>tag</title>
<path fill="currentColor" d="M27.613 4.547l-0.16-0.16c-0.256-0.244-0.594-0.382-0.947-0.387h-10.6c-0.711-0.001-1.392 0.283-1.893 0.787l-9.627 9.627c-0.517 0.52-0.517 1.36 0 1.88l11.32 11.32c0.52 0.517 1.36 0.517 1.88 0l9.627-9.627c0.504-0.501 0.787-1.183 0.787-1.893v-10.6c-0.005-0.353-0.143-0.691-0.387-0.947zM25.333 16.093l-8.68 8.693-9.44-9.44 8.693-8.68h9.427v9.427zM20 14.667c1.473 0 2.667-1.194 2.667-2.667s-1.194-2.667-2.667-2.667c-1.473 0-2.667 1.194-2.667 2.667s1.194 2.667 2.667 2.667z"></path>
</svg>
