<svg width="24" height="19" xmlns="http://www.w3.org/2000/svg" xmlns:xlink="http://www.w3.org/1999/xlink"><defs><filter id="a"><feColorMatrix in="SourceGraphic" values="0 0 0 0 0.996078 0 0 0 0 0.701961 0 0 0 0 0.164706 0 0 0 1.000000 0"/></filter><path id="b" d="M0 .002h23.817v18.066H0z"/></defs><g transform="translate(0 -3)" filter="url(#a)" fill="none" fill-rule="evenodd"><g transform="translate(0 3)"><mask id="c" fill="#fff"><use xlink:href="#b"/></mask><path d="M11.367 3.32c-3.174-2.088-4.554-1.47-6.084-.768-.978.444-2.016.906-3.45.96v12.714c1.068-.06 1.908-.438 2.694-.798 1.842-.834 3.522-1.584 6.84.288V3.32Zm1.092 12.396c3.318-1.872 4.992-1.122 6.822-.288.792.36 1.632.738 2.7.798V3.512c-1.428-.054-2.472-.516-3.444-.96-1.542-.702-2.916-1.32-6.078.768v12.396ZM5.127 5.492c1.278-.582 2.454-1.122 4.428-.3.282.102.6-.018.714-.3a.559.559 0 0 0-.3-.726c-2.418-.978-3.792-.354-5.286.324-.546.246-1.122.492-1.758.66a.563.563 0 0 0-.396.678.563.563 0 0 0 .672.396c.726-.186 1.332-.468 1.926-.732Zm0 8.052c1.278-.564 2.454-1.104 4.428-.3.282.114.6-.03.714-.306a.534.534 0 0 0-.3-.702c-2.418-.984-3.792-.378-5.286.312-.546.234-1.122.504-1.758.666a.544.544 0 0 0-.396.66.57.57 0 0 0 .672.408c.726-.186 1.332-.462 1.926-.738Zm0-2.688c1.278-.576 2.454-1.11 4.422-.294a.55.55 0 0 0 .72-.306.539.539 0 0 0-.3-.708c-2.418-.984-3.792-.36-5.286.318-.546.234-1.122.498-1.758.66a.548.548 0 0 0-.396.666c.084.3.372.474.672.408.72-.186 1.326-.468 1.926-.744Zm0-2.676c1.278-.582 2.454-1.104 4.422-.306a.56.56 0 0 0 .72-.294.561.561 0 0 0-.3-.726c-2.418-.984-3.792-.354-5.286.312-.546.252-1.122.522-1.758.678a.551.551 0 0 0-.396.672.541.541 0 0 0 .672.378c.72-.174 1.326-.456 1.926-.714Zm14.01-3.69c-1.5-.678-2.88-1.302-5.292-.324a.564.564 0 0 0-.3.726c.12.282.432.402.714.3 1.974-.822 3.15-.282 4.428.3.594.264 1.206.546 1.926.732.3.072.594-.102.666-.396a.55.55 0 0 0-.39-.678c-.636-.168-1.212-.414-1.752-.66Zm0 8.058c-1.5-.69-2.88-1.296-5.292-.312a.54.54 0 0 0-.3.702c.12.276.432.42.714.306 1.974-.804 3.15-.264 4.428.3.594.276 1.206.552 1.926.738.3.06.594-.102.666-.408a.532.532 0 0 0-.39-.66c-.636-.162-1.212-.432-1.752-.666Zm0-2.682c-1.5-.678-2.88-1.302-5.292-.318a.544.544 0 0 0-.3.708c.12.288.432.42.714.306 1.974-.816 3.15-.282 4.428.294.594.276 1.206.558 1.926.744.3.066.594-.108.666-.408a.535.535 0 0 0-.39-.666c-.636-.162-1.212-.426-1.752-.66Zm0-2.7c-1.5-.666-2.88-1.296-5.292-.312a.566.566 0 0 0-.3.726c.12.27.432.408.714.294 1.974-.798 3.15-.276 4.428.306.594.258 1.206.54 1.926.714a.53.53 0 0 0 .666-.378.539.539 0 0 0-.39-.672c-.636-.156-1.212-.426-1.752-.678ZM4.527.878c1.95-.876 3.69-1.668 7.374.612 3.696-2.28 5.448-1.488 7.38-.612.99.444 2.04.93 3.528.792a.917.917 0 0 1 .996.828v.09h.012v14.544a.92.92 0 0 1-.918.912c-1.938.156-3.174-.426-4.362-.954-1.548-.678-2.934-1.326-6.12.792a.895.895 0 0 1-1.008 0c-3.204-2.118-4.584-1.47-6.126-.792-1.194.54-2.466 1.122-4.44.948a.918.918 0 0 1-.84-.906h-.006V2.588c0-.516.42-.93.924-.93.048 0 .102.012.15.012 1.458.12 2.49-.348 3.456-.792Z" fill="#231916" mask="url(#c)"/></g></g></svg>