<svg version="1.1" xmlns="http://www.w3.org/2000/svg" width="32" height="32" viewBox="0 0 32 32">
<title>iconm-menu</title>
<path fill="currentColor" d="M5.067 6.667h21.867c0.589 0 1.067 0.478 1.067 1.067s-0.478 1.067-1.067 1.067h-21.867c-0.589 0-1.067-0.478-1.067-1.067s0.478-1.067 1.067-1.067zM5.067 14.667h21.867c0.589 0 1.067 0.478 1.067 1.067s-0.478 1.067-1.067 1.067h-21.867c-0.589 0-1.067-0.478-1.067-1.067s0.478-1.067 1.067-1.067zM5.067 22.667h21.867c0.589 0 1.067 0.478 1.067 1.067s-0.478 1.067-1.067 1.067h-21.867c-0.589 0-1.067-0.478-1.067-1.067s0.478-1.067 1.067-1.067z"></path>
</svg>
