<svg version="1.1" xmlns="http://www.w3.org/2000/svg" width="32" height="32" viewBox="0 0 32 32">
<title>home</title>
<path fill="currentColor"  d="M2.667 18c0 0.368 0.298 0.667 0.667 0.667h2v8c0 0.736 0.597 1.333 1.333 1.333h6.667c0.736 0 1.333-0.597 1.333-1.333v-6.333c0-0.184 0.149-0.333 0.333-0.333h2c0.184 0 0.333 0.149 0.333 0.333v6.333c0 0.736 0.597 1.333 1.333 1.333h6.667c0.736 0 1.333-0.597 1.333-1.333v-8h2c0.368 0 0.667-0.298 0.667-0.667v-2.787c-0.001-0.35-0.14-0.685-0.387-0.933l-9.893-9.893c-0.248-0.246-0.584-0.385-0.933-0.387h-4.24c-0.35 0.001-0.685 0.14-0.933 0.387l-9.893 9.893c-0.246 0.248-0.385 0.584-0.387 0.933v2.787zM20 25.333v-6.667c0-0.736-0.597-1.333-1.333-1.333h-5.333c-0.736 0-1.333 0.597-1.333 1.333v6.667h-4v-8.667c0-0.368-0.298-0.667-0.667-0.667h-1.933c0.043-0.232 0.155-0.445 0.32-0.613l8.72-8.72h3.12l8.72 8.72c0.19 0.159 0.325 0.374 0.387 0.613h-2c-0.368 0-0.667 0.298-0.667 0.667v8.667h-4z"></path>
</svg>
