<svg version="1.1" xmlns="http://www.w3.org/2000/svg" width="32" height="32" viewBox="0 0 32 32">
<title>chevron-up</title>
<path fill="currentColor"  d="M15.040 10.96c0.187-0.188 0.442-0.293 0.707-0.293h0.507c0.265 0.003 0.518 0.108 0.707 0.293l6.84 6.853c0.126 0.125 0.197 0.296 0.197 0.473s-0.071 0.348-0.197 0.473l-0.947 0.947c-0.123 0.125-0.291 0.196-0.467 0.196s-0.344-0.071-0.467-0.196l-5.92-5.933-5.92 5.933c-0.125 0.126-0.296 0.197-0.473 0.197s-0.348-0.071-0.473-0.197l-0.933-0.947c-0.126-0.125-0.197-0.296-0.197-0.473s0.071-0.348 0.197-0.473l6.84-6.853z"></path>
</svg>
