<svg version="1.1" xmlns="http://www.w3.org/2000/svg" width="32" height="32" viewBox="0 0 32 32">
<title>doc</title>
<path fill="currentColor"  d="M24 2.667h-9.013c-1.060 0.001-2.077 0.423-2.827 1.173l-5.653 5.653c-0.75 0.749-1.172 1.766-1.173 2.827v14.347c0 1.473 1.194 2.667 2.667 2.667h16c1.473 0 2.667-1.194 2.667-2.667v-21.333c0-1.473-1.194-2.667-2.667-2.667zM24 26.667h-16v-13.333h6.667c0.736 0 1.333-0.597 1.333-1.333v-6.667h8v21.333zM10.667 16.667v1.333c0 0.368 0.298 0.667 0.667 0.667h9.333c0.368 0 0.667-0.298 0.667-0.667v-1.333c0-0.368-0.298-0.667-0.667-0.667h-9.333c-0.368 0-0.667 0.298-0.667 0.667zM16.667 21.333h-5.333c-0.368 0-0.667 0.298-0.667 0.667v1.333c0 0.368 0.298 0.667 0.667 0.667h5.333c0.368 0 0.667-0.298 0.667-0.667v-1.333c0-0.368-0.298-0.667-0.667-0.667z"></path>
</svg>
