<svg version="1.1" xmlns="http://www.w3.org/2000/svg" width="32" height="32" viewBox="0 0 32 32">
<title>filter</title>
<path fill="currentColor" d="M12.012 23.995v-5.543c0-0.707-0.281-1.385-0.781-1.885l-7.778-7.78c-0.5-0.5-0.781-1.178-0.781-1.885v-1.567c0-1.473 1.194-2.667 2.667-2.667h21.333c1.473 0 2.667 1.194 2.667 2.667v1.571c0 0.705-0.279 1.381-0.777 1.881l-7.745 7.782c-0.497 0.5-0.777 1.176-0.777 1.881v9.548c0 0.738-0.599 1.337-1.337 1.337s-1.337-0.599-1.337-1.337v-10.882c0-0.707 0.281-1.385 0.781-1.885l8.050-8.051c0.318-0.318 0.497-0.749 0.497-1.199 0-0.388-0.314-0.702-0.702-0.702h-19.937c-0.388 0-0.702 0.314-0.702 0.702 0 0.45 0.179 0.881 0.497 1.198l8.064 8.042c0.502 0.5 0.784 1.18 0.784 1.888v6.888c0 0.741-0.601 1.342-1.342 1.342s-1.342-0.601-1.342-1.342z"></path>
</svg>
