<svg width="24px" height="24px" viewBox="0 0 24 24" version="1.1">
    <g>
        <g transform="translate(-320.000000, -32.000000)">
            <g transform="translate(320.000000, 32.000000)">
                <path fill="currentColor" d="M12,12 C14.7624684,12 17.0018915,9.76142375 17.0018915,7 C17.0018915,4.23857625 14.7624684,2 12,2 C9.23753158,2 6.99810846,4.23857625 6.99810846,7 C6.99810846,9.76142375 9.23753158,12 12,12 Z M12.000946,4 C13.6583227,4 15.001892,5.34314575 15.001892,7 C15.001892,8.65685425 13.6583227,10 12.000946,10 C10.3435693,10 9,8.65685425 9,7 C9,5.34314575 10.3435693,4 12.000946,4 Z M21.8662311,20.1875 L19.5028373,15.325 C18.8567058,14.0306261 17.5234131,13.2231704 16.0765416,13.25 L7.92345839,13.25 C6.49904297,13.2472017 5.1959237,14.051053 4.55968633,15.325 L2.13376893,20.1875 C1.93873362,20.5743978 1.9580209,21.0346598 2.18474205,21.4038973 C2.4114632,21.7731348 2.81328439,21.9986889 3.2466898,22 L20.7533102,22 C21.1867156,21.9986889 21.5885368,21.7731348 21.815258,21.4038973 C22.0419791,21.0346598 22.0612664,20.5743978 21.8662311,20.1875 Z M4.58032227,20 L6.58736059,15.9166998 C6.80993656,15.3508647 7.26373642,14.9956312 7.75836431,15.0000406 L16.2416357,15.0000406 C16.7362636,14.9956312 17.1900634,15.3508647 17.4126394,15.9166998 L19.4941406,20 L4.58032227,20 Z"></path>
            </g>
        </g>
    </g>
</svg>