<svg version="1.1" xmlns="http://www.w3.org/2000/svg" width="32" height="32" viewBox="0 0 32 32">
<title>map-pin</title>
<path fill="currentColor" d="M18.667 13.333c0 1.473-1.194 2.667-2.667 2.667s-2.667-1.194-2.667-2.667c0-1.473 1.194-2.667 2.667-2.667s2.667 1.194 2.667 2.667zM16 5.333c-4.418 0-8 3.582-8 8 0 3.733 1.573 4.987 3.76 6.667 1.838 1.242 3.304 2.962 4.24 4.973 0.94-2.009 2.405-3.727 4.24-4.973 2.187-1.68 3.76-2.933 3.76-6.667 0-4.418-3.582-8-8-8v0zM16 2.667c5.891 0 10.667 4.776 10.667 10.667 0 8.293-6.733 8.227-8.347 13.040l-0.68 2.053c-0.191 0.567-0.736 0.938-1.333 0.907h-0.747c-0.598 0.031-1.143-0.34-1.333-0.907l-0.68-2.053c-1.48-4.813-8.213-4.747-8.213-13.040 0-5.891 4.776-10.667 10.667-10.667z"></path>
</svg>
