<svg version="1.1" xmlns="http://www.w3.org/2000/svg" width="32" height="32" viewBox="0 0 32 32">
<title>chevron-down</title>
<path fill="currentColor"  d="M16.96 21.040c-0.187 0.188-0.442 0.293-0.707 0.293h-0.507c-0.265-0.003-0.518-0.108-0.707-0.293l-6.84-6.853c-0.126-0.125-0.197-0.296-0.197-0.473s0.071-0.348 0.197-0.473l0.947-0.947c0.123-0.125 0.291-0.196 0.467-0.196s0.344 0.071 0.467 0.196l5.92 5.933 5.92-5.933c0.125-0.126 0.296-0.197 0.473-0.197s0.348 0.071 0.473 0.197l0.933 0.947c0.126 0.125 0.197 0.296 0.197 0.473s-0.071 0.348-0.197 0.473l-6.84 6.853z"></path>
</svg>
