<svg version="1.1" xmlns="http://www.w3.org/2000/svg" width="32" height="32" viewBox="0 0 32 32">
<title>download</title>
<path fill="currentColor"  d="M15.067 22.4c0.133 0.133 0.4 0.267 0.667 0.267h0.533c0.267 0 0.533-0.133 0.667-0.267l6.8-6.8c0.267-0.267 0.267-0.667 0-0.933 0 0 0 0 0 0l-0.933-0.933c-0.267-0.267-0.667-0.267-0.933 0 0 0 0 0 0 0l-4.533 4.533v-13.6c0-0.4-0.267-0.667-0.667-0.667h-1.333c-0.4 0-0.667 0.267-0.667 0.667v13.6l-4.533-4.533c-0.267-0.4-0.8-0.4-0.933-0.133 0 0 0 0 0 0l-0.933 0.933c-0.267 0.267-0.267 0.667 0 0.933 0 0 0 0 0 0l6.8 6.933zM28 25.333h-24v2.667h24v-2.667z"></path>
</svg>
