<?xml version="1.0" encoding="UTF-8"?>
<svg width="22px" height="22px" viewBox="0 0 22 22" version="1.1" xmlns="http://www.w3.org/2000/svg" xmlns:xlink="http://www.w3.org/1999/xlink">
    <title>Outlined/UI/account备份</title>
    <g id="PC" stroke="none" stroke-width="1" fill="none" fill-rule="evenodd">
        <g id="Member_zh" transform="translate(-471.000000, -417.000000)" fill="#252C32">
            <g id="TC" transform="translate(410.000000, 320.000000)">
                <g id="Content" transform="translate(60.000000, 40.000000)">
                    <g id="HomeLink" transform="translate(0.000000, 52.000000)">
                        <g id="Outlined/UI/account备份" transform="translate(0.000000, 4.000000)">
                            <path d="M13.59,2.15999997 C12.6986899,1.31427837 11.3013101,1.31427837 10.41,2.15999997 L0.967499965,11.595 L2.03249997,12.66 L3.74999997,10.9425 L3.74999997,20.25 C3.74999997,21.4926407 4.75735929,22.5 5.99999998,22.5 L18,22.5 C19.2426407,22.5 20.25,21.4926407 20.25,20.25 L20.25,10.9425 L21.9675,12.66 L23.0325,11.595 L13.59,2.15999997 Z M10.5,21 L10.5,15.75 L13.5,15.75 L13.5,21 L10.5,21 Z M18.75,20.25 C18.75,20.6642136 18.4142136,21 18,21 L15,21 L15,14.25 L8.99999999,14.25 L8.99999999,21 L5.99999998,21 C5.58578642,21 5.24999998,20.6642136 5.24999998,20.25 L5.24999998,9.44249999 L11.4675,3.21749997 C11.6083249,3.07551548 11.8000218,2.99565123 12,2.99565123 C12.1999782,2.99565123 12.3916751,3.07551548 12.5325,3.21749997 L18.75,9.44249999 L18.75,20.25 Z" id="Style"></path>
                        </g>
                    </g>
                </g>
            </g>
        </g>
    </g>
</svg>