<?xml version="1.0" encoding="UTF-8"?>
<svg width="20px" height="20px" viewBox="0 0 20 20" version="1.1" xmlns="http://www.w3.org/2000/svg" xmlns:xlink="http://www.w3.org/1999/xlink">
    <title>Outlined/UI/account</title>
    <g id="PC" stroke="none" stroke-width="1" fill="none" fill-rule="evenodd">
        <g id="Member_zh" transform="translate(-472.000000, -502.000000)" fill="#252C32">
            <g id="TC" transform="translate(410.000000, 320.000000)">
                <g id="Content" transform="translate(60.000000, 40.000000)">
                    <g id="Member" transform="translate(0.000000, 136.000000)">
                        <g id="Outlined/UI/account" transform="translate(0.000000, 4.000000)">
                            <path d="M18,12.75 C20.0710678,12.75 21.75,14.4289322 21.75,16.5 L21.75,16.5 L21.75,21.75 L20.25,21.75 L20.25,16.5 C20.25,15.2573593 19.2426407,14.25 18,14.25 L18,14.25 L5.99999998,14.25 C4.75735929,14.25 3.74999997,15.2573593 3.74999997,16.5 L3.74999997,16.5 L3.74999997,21.75 L2.24999997,21.75 L2.24999997,16.5 C2.24999997,14.4289322 3.92893216,12.75 5.99999998,12.75 L5.99999998,12.75 Z M12,2.24999997 C14.4852814,2.24999997 16.5,4.2647186 16.5,6.74999997 C16.5,9.23528137 14.4852814,11.25 12,11.25 C9.51471862,11.25 7.49999999,9.23528137 7.49999999,6.74999997 C7.49999999,4.2647186 9.51471862,2.24999997 12,2.24999997 Z M12,3.74999997 C10.3431457,3.74999997 8.99999999,5.09314573 8.99999999,6.74999997 C8.99999999,8.40685424 10.3431457,9.74999997 12,9.74999997 C13.6568543,9.74999997 15,8.40685424 15,6.74999997 C15,5.09314573 13.6568543,3.74999997 12,3.74999997 Z" id="Style"></path>
                        </g>
                    </g>
                </g>
            </g>
        </g>
    </g>
</svg>