<?xml version="1.0" encoding="UTF-8"?>
<svg width="260px" height="140px" viewBox="0 0 260 140" version="1.1" xmlns="http://www.w3.org/2000/svg" xmlns:xlink="http://www.w3.org/1999/xlink">
    <title>插画2</title>
    <defs>
        <rect id="path-1" x="0" y="0" width="260" height="140"></rect>
    </defs>
    <g id="PC" stroke="none" stroke-width="1" fill="none" fill-rule="evenodd">
        <g id="Minisite" transform="translate(-1240.000000, -931.000000)">
            <g id="赛道选择" transform="translate(400.000000, 849.000000)">
                <g id="Group" transform="translate(580.000000, 72.000000)">
                    <g id="插画2" transform="translate(260.000000, 10.000000)">
                        <mask id="mask-2" fill="white">
                            <use xlink:href="#path-1"></use>
                        </mask>
                        <g id="矩形"></g>
                        <g id="编组" mask="url(#mask-2)">
                            <g transform="translate(8.000000, 10.000000)">
                                <polygon id="Fill-1" stroke="none" fill="#FFFFFF" fill-rule="evenodd" points="7.04980843 97.816092 131.302682 97.816092 131.302682 11.4559387 7.04980843 11.4559387"></polygon>
                                <polygon id="Stroke-2" stroke="#000000" stroke-width="1" fill="none" stroke-linecap="round" stroke-linejoin="round" points="7.04980843 97.816092 131.302682 97.816092 131.302682 11.4559387 7.04980843 11.4559387"></polygon>
                                <polygon id="Fill-4" stroke="none" fill="#53139A" fill-rule="evenodd" points="7.04980843 97.816092 131.302682 97.816092 131.302682 89.8850575 7.04980843 89.8850575"></polygon>
                                <polygon id="Stroke-5" stroke="#000000" stroke-width="1" fill="none" stroke-linecap="round" stroke-linejoin="round" points="7.04980843 97.816092 131.302682 97.816092 131.302682 89.8850575 7.04980843 89.8850575"></polygon>
                                <polygon id="Fill-6" stroke="none" fill="#C896FF" fill-rule="evenodd" points="7.04980843 24.6743295 131.302682 24.6743295 131.302682 11.4559387 7.04980843 11.4559387"></polygon>
                                <g id="编组" stroke="none" stroke-width="1" fill="none" fill-rule="evenodd">
                                    <polygon id="Stroke-7" stroke="#000000" points="7.04980843 24.5828314 131.235432 24.5828314 131.235432 11.4559387 7.04980843 11.4559387"></polygon>
                                    <path d="M140.291324,114.252849 C137.912791,114.252849 135.984826,112.332284 135.984826,109.963847 L135.984826,88.7735267 C135.984826,86.4050898 137.912791,84.4845248 140.291324,84.4845248 L225.693676,84.4845248 C228.072209,84.4845248 229.999739,86.4050898 229.999739,88.7735267 L229.999739,109.963847 C229.999739,112.332284 228.072209,114.252849 225.693676,114.252849 L140.291324,114.252849 Z" id="Fill-9" fill="#FFC14B"></path>
                                    <path d="M194.866766,54.2528488 C193.551191,54.2528488 192.484826,52.3322838 192.484826,49.9638469 L192.484826,28.7735267 C192.484826,26.4050898 193.551191,24.4845248 194.866766,24.4845248 L242.103127,24.4845248 C243.418702,24.4845248 244.484826,26.4050898 244.484826,28.7735267 L244.484826,49.9638469 C244.484826,52.3322838 243.418702,54.2528488 242.103127,54.2528488 L194.866766,54.2528488 Z" id="Fill-9备份" stroke="#000000" fill="#53139A"></path>
                                    <polygon id="Fill-65" fill="#FEB32A" points="202.206217 40.2832921 202.206217 37.8027545 211.066163 34.1211057 211.066163 37.2100305 206.298815 39.0475573 211.066163 40.8854964 211.066163 43.9587581"></polygon>
                                    <path d="M211.272133,33.8122957 L210.701667,34.0493029 L202.254319,37.5598943 L202,37.665414 L202,37.9407545 L202,40.1455394 L202,40.4208799 L202.254319,40.5263996 L210.702079,44.0308082 L211.272133,44.2674032 L211.272133,43.649948 L211.272133,41.0267939 L211.272133,40.7440341 L211.007921,40.642224 L206.872043,39.0474749 L211.007921,37.453138 L211.272133,37.3517401 L211.272133,37.0685681 L211.272133,34.4297509 L211.272133,33.8122957 Z M210.859946,34.4297509 L210.859946,37.0685681 L205.725753,39.0474749 L210.859946,41.0267939 L210.859946,43.649948 L202.412186,40.1455394 L202.412186,37.9407545 L210.859946,34.4297509 Z" id="Fill-66" fill="#000000"></path>
                                    <polygon id="Fill-67" fill="#FEB32A" points="219.266075 44.8813548 216.429821 33.2061756 218.398423 33.2061756 221.218602 44.8813548"></polygon>
                                    <path d="M218.560659,33 L218.236269,33 L216.692219,33 L216.167918,33 L216.291573,33.5090502 L219.027667,44.7728674 L219.103921,45.0873656 L219.4279,45.0873656 L220.956699,45.0873656 L221.480176,45.0873656 L221.357344,44.5787276 L218.636914,33.3153226 L218.560659,33 Z M218.236269,33.4121864 L220.956699,44.6751792 L219.4279,44.6751792 L216.692219,33.4121864 L218.236269,33.4121864 Z" id="Fill-68" fill="#000000"></path>
                                    <polygon id="Fill-69" fill="#FEB32A" points="226.634937 40.8854552 231.401873 39.0475161 226.634937 37.2099892 226.634937 34.1210645 235.494471 37.8027133 235.494471 40.2832509 226.634937 43.9587168"></polygon>
                                    <path d="M226.428844,33.8122957 L226.428844,34.4297509 L226.428844,37.0685681 L226.428844,37.3517401 L226.692643,37.453138 L230.828934,39.0474749 L226.692643,40.642224 L226.428844,40.7440341 L226.428844,41.0267939 L226.428844,43.649948 L226.428844,44.2674032 L226.998898,44.0308082 L235.446246,40.5263996 L235.700565,40.4208799 L235.700565,40.1455394 L235.700565,37.9407545 L235.700565,37.665414 L235.446658,37.5598943 L226.99931,34.0493029 L226.428844,33.8122957 Z M226.84103,34.4297509 L235.288378,37.9407545 L235.288378,40.1455394 L226.84103,43.649948 L226.84103,41.0267939 L231.974812,39.0474749 L226.84103,37.0685681 L226.84103,34.4297509 Z" id="Fill-70" fill="#000000"></path>
                                    <path d="M225.693676,114.252849 L140.291324,114.252849 C137.912791,114.252849 135.984826,112.332284 135.984826,109.963847 L135.984826,88.7735267 C135.984826,86.4050898 137.912791,84.4845248 140.291324,84.4845248 L225.693676,84.4845248 C228.072209,84.4845248 229.999739,86.4050898 229.999739,88.7735267 L229.999739,109.963847 C229.999739,112.332284 228.072209,114.252849 225.693676,114.252849 Z" id="Stroke-10" stroke="#000000" stroke-linecap="round" stroke-linejoin="round"></path>
                                    <path d="M211.809758,103.921764 L155.067233,103.921764 C153.62289,103.921764 152.452107,102.755737 152.452107,101.31683 L152.452107,93.3712176 C152.452107,91.9323099 153.62289,90.7662835 155.067233,90.7662835 L211.809758,90.7662835 C213.2541,90.7662835 214.425318,91.9323099 214.425318,93.3712176 L214.425318,101.31683 C214.425318,102.755737 213.2541,103.921764 211.809758,103.921764" id="Fill-11" fill="#FFFFFF"></path>
                                    <path d="M211.809758,103.921764 L155.067233,103.921764 C153.62289,103.921764 152.452107,102.755737 152.452107,101.31683 L152.452107,93.3712176 C152.452107,91.9323099 153.62289,90.7662835 155.067233,90.7662835 L211.809758,90.7662835 C213.2541,90.7662835 214.425318,91.9323099 214.425318,93.3712176 L214.425318,101.31683 C214.425318,102.755737 213.2541,103.921764 211.809758,103.921764 Z" id="Stroke-12" stroke="#000000"></path>
                                    <path d="M16.7786415,18.4426976 C16.7786415,19.5762381 15.8557583,20.4953718 14.7175938,20.4953718 C13.5794293,20.4953718 12.6565462,19.5762381 12.6565462,18.4426976 C12.6565462,17.3091572 13.5794293,16.3900234 14.7175938,16.3900234 C15.8557583,16.3900234 16.7786415,17.3091572 16.7786415,18.4426976" id="Fill-13" fill="#FFFFFF"></path>
                                    <path d="M16.7786415,18.4426976 C16.7786415,19.5762381 15.8557583,20.4953718 14.7175938,20.4953718 C13.5794293,20.4953718 12.6565462,19.5762381 12.6565462,18.4426976 C12.6565462,17.3091572 13.5794293,16.3900234 14.7175938,16.3900234 C15.8557583,16.3900234 16.7786415,17.3091572 16.7786415,18.4426976 Z" id="Stroke-14" stroke="#000000"></path>
                                    <path d="M27.025819,18.4426976 C27.025819,19.5762381 26.1029359,20.4953718 24.9647713,20.4953718 C23.8266068,20.4953718 22.9037237,19.5762381 22.9037237,18.4426976 C22.9037237,17.3091572 23.8266068,16.3900234 24.9647713,16.3900234 C26.1029359,16.3900234 27.025819,17.3091572 27.025819,18.4426976" id="Fill-15" fill="#FFCA6E"></path>
                                    <path d="M27.025819,18.4426976 C27.025819,19.5762381 26.1029359,20.4953718 24.9647713,20.4953718 C23.8266068,20.4953718 22.9037237,19.5762381 22.9037237,18.4426976 C22.9037237,17.3091572 23.8266068,16.3900234 24.9647713,16.3900234 C26.1029359,16.3900234 27.025819,17.3091572 27.025819,18.4426976 Z" id="Stroke-16" stroke="#000000"></path>
                                    <path d="M37.2729965,18.4426976 C37.2729965,19.5762381 36.3501134,20.4953718 35.2119489,20.4953718 C34.0742193,20.4953718 33.1513361,19.5762381 33.1513361,18.4426976 C33.1513361,17.3091572 34.0742193,16.3900234 35.2119489,16.3900234 C36.3501134,16.3900234 37.2729965,17.3091572 37.2729965,18.4426976" id="Fill-17" fill="#002F9C"></path>
                                    <path d="M37.2729965,18.4426976 C37.2729965,19.5762381 36.3501134,20.4953718 35.2119489,20.4953718 C34.0742193,20.4953718 33.1513361,19.5762381 33.1513361,18.4426976 C33.1513361,17.3091572 34.0742193,16.3900234 35.2119489,16.3900234 C36.3501134,16.3900234 37.2729965,17.3091572 37.2729965,18.4426976 Z" id="Stroke-18" stroke="#000000" stroke-linecap="round" stroke-linejoin="round"></path>
                                    <path d="M219.970583,119.630344 L200.112504,119.630344 C199.046535,119.630344 198.18193,118.769685 198.18193,117.708046 L198.18193,110.378367 C198.18193,109.316295 199.046535,108.455636 200.112504,108.455636 L219.970583,108.455636 C221.036552,108.455636 221.900722,109.316295 221.900722,110.378367 L221.900722,117.708046 C221.900722,118.769685 221.036552,119.630344 219.970583,119.630344" id="Fill-19" fill="#F9762D"></path>
                                    <path d="M219.970583,119.630344 L200.112504,119.630344 C199.046535,119.630344 198.18193,118.769685 198.18193,117.708046 L198.18193,110.378367 C198.18193,109.316295 199.046535,108.455636 200.112504,108.455636 L219.970583,108.455636 C221.036552,108.455636 221.900722,109.316295 221.900722,110.378367 L221.900722,117.708046 C221.900722,118.769685 221.036552,119.630344 219.970583,119.630344 Z" id="Stroke-20" stroke="#000000"></path>
                                    <polygon id="Fill-21" fill="#FFC14B" points="0.217368985 62.4887805 0.217368985 32.261756 14.5133592 32.261756 17.8600065 35.59524 41.5161713 35.59524 41.5161713 62.4887805"></polygon>
                                    <polygon id="Stroke-22" stroke="#000000" points="0.217368985 62.4887805 0.217368985 32.261756 14.5133592 32.261756 17.8600065 35.59524 41.5161713 35.59524 41.5161713 62.4887805"></polygon>
                                    <polygon id="Fill-23" fill="#DBDDE2" points="25.5684726 83.7296487 44.8302873 83.7296487 44.8302873 70.7335658 25.5684726 70.7335658"></polygon>
                                    <polygon id="Stroke-24" stroke="#000000" stroke-linecap="round" stroke-linejoin="round" points="25.5684726 83.7296487 44.8302873 83.7296487 44.8302873 70.7335658 25.5684726 70.7335658"></polygon>
                                    <polygon id="Fill-25" fill="#FFFFFF" points="52.8463666 56.7005338 57.2307138 61.0670686 57.2307138 81.5686882 37.8097214 81.5686882 37.8097214 56.7005338"></polygon>
                                    <polygon id="Stroke-26" stroke="#000000" stroke-linecap="round" stroke-linejoin="round" points="52.8463666 56.7005338 57.2307138 61.0670686 57.2307138 81.5686882 37.8097214 81.5686882 37.8097214 56.7005338"></polygon>
                                    <polygon id="Fill-27" fill="#000000" points="52.8463666 56.7005338 52.8463666 61.0670686 57.2307138 61.0670686"></polygon>
                                    <polygon id="Stroke-28" stroke="#000000" stroke-linecap="round" stroke-linejoin="round" points="52.8463666 56.7005338 52.8463666 61.0670686 57.2307138 61.0670686"></polygon>
                                    <polygon id="Fill-29" fill="#DBDDE2" points="67.7127437 83.7296487 124.781888 83.7296487 124.781888 33.1790272 67.7127437 33.1790272"></polygon>
                                    <polygon id="Stroke-30" stroke="#000000" stroke-linecap="round" stroke-linejoin="round" points="67.7127437 83.7296487 124.781888 83.7296487 124.781888 33.1790272 67.7127437 33.1790272"></polygon>
                                    <path d="M177.999932,25.8129975 L206.731954,103.977913 L176.456864,103.977913 C176.456864,103.977913 170.232839,50.2592687 161.994303,36.8828845 L177.999932,25.8129975 Z" id="Fill-31" fill="#FFFFFF"></path>
                                    <path d="M177.999932,25.8129975 L206.731954,103.977913 L176.456864,103.977913 C176.456864,103.977913 170.232839,50.2592687 161.994303,36.8828845 L177.999932,25.8129975 Z" id="Stroke-32" stroke="#000000" stroke-linecap="round" stroke-linejoin="round"></path>
                                    <path d="M80.5549443,89.8850575 L148.592404,24.4687753 L151.485004,12.561619 L157.945185,10.7372122 L165.079916,3.72719339 C165.079916,3.72719339 167.490198,1.90278661 169.418597,3.72719339 C171.346997,5.55160017 169.418597,8.1444062 169.418597,8.1444062 C169.418597,8.1444062 172.215081,4.39943444 175.203796,7.18412371 C178.192945,9.96881297 173.661163,13.4257433 173.661163,13.4257433 C173.661163,13.4257433 176.939529,11.3132951 178.964044,13.6180597 C180.988559,15.9223911 176.649878,19.8596793 176.649878,19.8596793 C176.649878,19.8596793 179.445927,17.07499 181.856209,19.9554043 C184.266925,22.8362518 177.807179,28.1175889 177.807179,28.1175889 L167.297532,36.8827113 C167.297532,36.8827113 161.99465,40.3127866 156.787885,38.6802631 L115.185308,89.8850575 L80.5549443,89.8850575 Z" id="Fill-33" fill="#000000"></path>
                                    <path d="M82.0507588,89.8850575 L148.592404,24.4687753 L151.485004,12.561619 L157.945185,10.7372122 L165.079916,3.72719339 C165.079916,3.72719339 167.490198,1.90278661 169.418597,3.72719339 C171.346997,5.55160017 169.418597,8.1444062 169.418597,8.1444062 C169.418597,8.1444062 172.215081,4.39943444 175.203796,7.18412371 C178.192945,9.96881297 173.661163,13.4257433 173.661163,13.4257433 C173.661163,13.4257433 176.939529,11.3132951 178.964044,13.6180597 C180.988559,15.9223911 176.649878,19.8596793 176.649878,19.8596793 C176.649878,19.8596793 179.445927,17.07499 181.856209,19.9554043 C184.266925,22.8362518 177.807179,28.1175889 177.807179,28.1175889 L167.297532,36.8827113 C167.297532,36.8827113 161.99465,40.3127866 156.787885,38.6802631 L115.185308,89.8850575 L82.0507588,89.8850575 Z" id="Stroke-34" stroke="#000000" stroke-linecap="round" stroke-linejoin="round"></path>
                                    <path d="M150.002432,25.8884947 L137.491321,23.1267621 C135.793859,22.7520917 134.722671,21.0784194 135.099305,19.3882876 C135.475069,17.6977226 137.156004,16.6313196 138.852595,17.00599 L151.364576,19.7677226 C153.061603,20.1419599 154.132356,21.8160653 153.756157,23.5061972 C153.380393,25.196329 151.699459,26.2631651 150.002432,25.8884947 Z" id="Fill-35" fill="#FFFFFF"></path>
                                    <path d="M153.756157,23.5061972 C153.380393,25.196329 151.699459,26.2631651 150.002432,25.8884947 L137.491321,23.1267621 C135.793859,22.7520917 134.722671,21.0784194 135.099305,19.3882876 C135.475069,17.6977226 137.156004,16.6313196 138.852595,17.00599 L151.364576,19.7677226 C153.061603,20.1419599 154.132356,21.8160653 153.756157,23.5061972 Z" id="Stroke-36" stroke="#000000" stroke-linecap="round" stroke-linejoin="round"></path>
                                    <path d="M150.505712,19.5040672 L141.251221,17.4613553 C139.554195,17.0866849 138.483442,15.4130126 138.859641,13.7224476 C139.235404,12.0323158 140.915904,10.9659128 142.613365,11.3405832 L151.867857,13.3832951 C153.564883,13.7575324 154.635636,15.4316378 154.259872,17.1217697 C153.883673,18.8119015 152.203174,19.8787376 150.505712,19.5040672 Z" id="Fill-37" fill="#FFFFFF"></path>
                                    <path d="M154.259872,17.1217697 C153.883673,18.8119015 152.203174,19.8787376 150.505712,19.5040672 L141.251221,17.4613553 C139.554195,17.0866849 138.483442,15.4130126 138.859641,13.7224476 C139.235404,12.0323158 140.915904,10.9659128 142.613365,11.3405832 L151.867857,13.3832951 C153.564883,13.7575324 154.635636,15.4316378 154.259872,17.1217697 Z" id="Stroke-38" stroke="#000000" stroke-linecap="round" stroke-linejoin="round"></path>
                                    <path d="M154.382996,13.9391501 L145.128505,11.8964382 C143.431043,11.5217678 142.360725,9.84809546 142.736489,8.15753049 C143.112688,6.46739866 144.793188,5.40099565 146.490649,5.77566608 L155.74514,7.81837795 C157.441731,8.19261523 158.512919,9.8667207 158.136721,11.5568525 C157.760957,13.2469843 156.080022,14.3133874 154.382996,13.9391501 Z" id="Fill-39" fill="#FFFFFF"></path>
                                    <path d="M158.136721,11.5568525 C157.760957,13.2469843 156.080022,14.3133874 154.382996,13.9391501 L145.128505,11.8964382 C143.431043,11.5217678 142.360725,9.84809546 142.736489,8.15753049 C143.112688,6.46739866 144.793188,5.40099565 146.490649,5.77566608 L155.74514,7.81837795 C157.441731,8.19261523 158.512919,9.8667207 158.136721,11.5568525 Z" id="Stroke-40" stroke="#000000" stroke-linecap="round" stroke-linejoin="round"></path>
                                    <path d="M152.502524,9.10351919 L158.158553,1.52737983 C159.195818,0.138283785 161.167709,-0.150623937 162.562471,0.882426911 C163.957669,1.91547776 164.24732,3.87892409 163.210055,5.26845328 L157.554026,12.8441595 C156.516761,14.2332555 154.545305,14.5221633 153.150107,13.4891124 C151.755345,12.4560616 151.465259,10.4926152 152.502524,9.10351919 Z" id="Fill-41" fill="#FFFFFF"></path>
                                    <path d="M153.150107,13.4891124 C151.755345,12.4560616 151.465259,10.4926152 152.502524,9.10351919 L158.158553,1.52737983 C159.195818,0.138283785 161.167709,-0.150623937 162.562471,0.882426911 C163.957669,1.91547776 164.24732,3.87892409 163.210055,5.26845328 L157.554026,12.8441595 C156.516761,14.2332555 154.545305,14.5221633 153.150107,13.4891124 Z" id="Stroke-42" stroke="#000000" stroke-linecap="round" stroke-linejoin="round"></path>
                                    <path d="M148.373644,32.0703403 L139.119587,30.0276284 C137.422126,29.6525248 136.351808,27.9788525 136.727572,26.2887207 C137.103771,24.5985889 138.78427,23.5321859 140.481732,23.9064231 L149.735788,25.949135 C151.432814,26.3238054 152.504002,27.9979109 152.127803,29.6880427 C151.751605,31.3781746 150.071105,32.4445776 148.373644,32.0703403 Z" id="Fill-43" fill="#FFFFFF"></path>
                                    <path d="M152.127803,29.6880427 C151.751605,31.3781746 150.071105,32.4445776 148.373644,32.0703403 L139.119587,30.0276284 C137.422126,29.6525248 136.351808,27.9788525 136.727572,26.2887207 C137.103771,24.5985889 138.78427,23.5321859 140.481732,23.9064231 L149.735788,25.949135 C151.432814,26.3238054 152.504002,27.9979109 152.127803,29.6880427 Z" id="Stroke-44" stroke="#000000" stroke-linecap="round" stroke-linejoin="round"></path>
                                </g>
                            </g>
                        </g>
                    </g>
                </g>
            </g>
        </g>
    </g>
</svg>