<?xml version="1.0" encoding="UTF-8"?>
<svg width="260px" height="140px" viewBox="0 0 260 140" version="1.1" xmlns="http://www.w3.org/2000/svg" xmlns:xlink="http://www.w3.org/1999/xlink">
    <title>插画1</title>
    <defs>
        <rect id="path-1" x="0" y="0" width="260" height="140"></rect>
    </defs>
    <g id="PC" stroke="none" stroke-width="1" fill="none" fill-rule="evenodd">
        <g id="Minisite" transform="translate(-660.000000, -931.000000)">
            <g id="赛道选择" transform="translate(400.000000, 849.000000)">
                <g id="Group-3" transform="translate(0.000000, 72.000000)">
                    <g id="插画1" transform="translate(260.000000, 10.000000)">
                        <mask id="mask-2" fill="white">
                            <use xlink:href="#path-1"></use>
                        </mask>
                        <g id="矩形"></g>
                        <g id="编组" mask="url(#mask-2)">
                            <g transform="translate(-3221.000000, -288.000000)">
                                <polygon id="Fill-1" stroke="none" fill="#DBDDE2" fill-rule="evenodd" points="3361.54785 396.907258 3454.61129 396.907258 3454.61129 312.230161 3361.54785 312.230161"></polygon>
                                <polygon id="Stroke-2" stroke="#000000" stroke-width="1" fill="none" stroke-linecap="round" stroke-linejoin="round" points="3361.54785 396.907258 3454.61129 396.907258 3454.61129 312.230161 3361.54785 312.230161"></polygon>
                                <polygon id="Fill-3" stroke="none" fill="#FFFFFF" fill-rule="evenodd" points="3361.54785 396.907258 3454.61129 396.907258 3454.61129 389.719964 3361.54785 389.719964"></polygon>
                                <polygon id="Stroke-4" stroke="#000000" stroke-width="1" fill="none" stroke-linecap="round" stroke-linejoin="round" points="3361.54785 396.907258 3454.61129 396.907258 3454.61129 389.719964 3361.54785 389.719964"></polygon>
                                <polygon id="Fill-5" stroke="none" fill="#FFFFFF" fill-rule="evenodd" points="3361.54785 322.080591 3454.61129 322.080591 3454.61129 312.348871 3361.54785 312.348871"></polygon>
                                <polygon id="Stroke-6" stroke="#000000" stroke-width="1" fill="none" stroke-linecap="round" stroke-linejoin="round" points="3361.54785 322.080591 3454.61129 322.080591 3454.61129 312.348871 3361.54785 312.348871"></polygon>
                                <polygon id="Fill-7" stroke="none" fill="#FFFFFF" fill-rule="evenodd" points="3247.33265 397.042867 3378.41616 397.042867 3378.41616 305.61828 3247.33265 305.61828"></polygon>
                                <polygon id="Stroke-8" stroke="#000000" stroke-width="1" fill="none" points="3247.33265 397.042867 3378.41658 397.042867 3378.41658 305.617867 3247.33265 305.617867"></polygon>
                                <polygon id="Fill-10" stroke="none" fill="#53139A" fill-rule="evenodd" points="3247.33265 397.042867 3378.41658 397.042867 3378.41658 390.418208 3247.33265 390.418208"></polygon>
                                <polygon id="Stroke-11" stroke="#000000" stroke-width="1" fill="none" stroke-linecap="round" stroke-linejoin="round" points="3247.33265 397.042867 3378.41658 397.042867 3378.41658 390.418208 3247.33265 390.418208"></polygon>
                                <polygon id="Fill-12" stroke="none" fill="#C896FF" fill-rule="evenodd" points="3247.33265 318.161111 3378.41616 318.161111 3378.41616 305.61828 3247.33265 305.61828"></polygon>
                                <polygon id="Stroke-13" stroke="#000000" stroke-width="1" fill="none" stroke-linecap="round" stroke-linejoin="round" points="3247.33265 318.161111 3378.41658 318.161111 3378.41658 305.617867 3247.33265 305.617867"></polygon>
                                <polygon id="Fill-15" stroke="none" fill="#DBDDE2" fill-rule="evenodd" points="3255.99887 358.52776 3314.5347 358.52776 3314.5347 324.596165 3255.99887 324.596165"></polygon>
                                <polygon id="Stroke-16" stroke="#000000" stroke-width="1" fill="none" stroke-linecap="round" stroke-linejoin="round" points="3255.99887 358.52776 3314.5347 358.52776 3314.5347 324.596165 3255.99887 324.596165"></polygon>
                                <polygon id="Fill-17" stroke="none" fill="#5519DF" fill-rule="evenodd" points="3327.44421 385.353262 3315.46648 405.467957 3415.23661 405.467957 3403.2593 385.353262"></polygon>
                                <polygon id="Stroke-18" stroke="#000000" stroke-width="1" fill="none" stroke-linecap="round" stroke-linejoin="round" points="3327.44421 385.353262 3315.46648 405.467957 3415.23661 405.467957 3403.2593 385.353262"></polygon>
                                <polygon id="Fill-19" stroke="none" fill="#5519DF" fill-rule="evenodd" points="3327.43613 385.353262 3403.23556 385.353262 3403.23556 338.338459 3327.43613 338.338459"></polygon>
                                <polygon id="Stroke-20" stroke="#000000" stroke-width="1" fill="none" stroke-linecap="round" stroke-linejoin="round" points="3327.43613 385.353262 3403.23556 385.353262 3403.23556 338.338459 3327.43613 338.338459"></polygon>
                                <polygon id="Fill-21" stroke="none" fill="#FFFFFF" fill-rule="evenodd" points="3330.57987 382.258978 3400.09181 382.258978 3400.09181 341.43233 3330.57987 341.43233"></polygon>
                                <polygon id="Stroke-22" stroke="#000000" stroke-width="1" fill="none" stroke-linecap="round" stroke-linejoin="round" points="3330.57987 382.258978 3400.09181 382.258978 3400.09181 341.43233 3330.57987 341.43233"></polygon>
                                <polygon id="Fill-23" stroke="none" fill="#FFFFFF" fill-rule="evenodd" points="3396.59008 395.410774 3334.11375 395.410774 3337.82343 387.150559 3392.46822 387.150559"></polygon>
                                <polygon id="Stroke-24" stroke="#000000" stroke-width="1" fill="none" stroke-linecap="round" stroke-linejoin="round" points="3396.59008 395.410774 3334.11375 395.410774 3337.82343 387.150559 3392.46822 387.150559"></polygon>
                                <polygon id="Fill-25" stroke="none" fill="#FFFFFF" fill-rule="evenodd" points="3376.47988 401.264686 3354.22387 401.264686 3355.1818 397.567787 3375.36945 397.567787"></polygon>
                                <polygon id="Stroke-26" stroke="#000000" stroke-width="1" fill="none" stroke-linecap="round" stroke-linejoin="round" points="3376.47988 401.264686 3354.22387 401.264686 3355.1818 397.567787 3375.36945 397.567787"></polygon>
                                <g id="编组" stroke="none" stroke-width="1" fill="none" fill-rule="evenodd" transform="translate(0.000000, 0.409713)">
                                    <path d="M3415.22218,405.058161 L3367.37682,405.058161 L3363.32709,405.058161 L3315.48132,405.058161 C3315.48132,405.058161 3315.10706,407.210186 3317.0398,408.891495 C3317.80234,409.554703 3318.792,409.901351 3319.80268,409.901351 L3363.32709,409.901351 L3367.37682,409.901351 L3410.90082,409.901351 C3411.9115,409.901351 3412.90075,409.554703 3413.66371,408.891495 C3415.59645,407.210186 3415.22218,405.058161 3415.22218,405.058161" id="Fill-27" fill="#A076FF"></path>
                                    <path d="M3415.22218,405.058161 L3367.37682,405.058161 L3363.32709,405.058161 L3315.48132,405.058161 C3315.48132,405.058161 3315.10706,407.210186 3317.0398,408.891495 C3317.80234,409.554703 3318.792,409.901351 3319.80268,409.901351 L3363.32709,409.901351 L3367.37682,409.901351 L3410.90082,409.901351 C3411.9115,409.901351 3412.90075,409.554703 3413.66371,408.891495 C3415.59645,407.210186 3415.22218,405.058161 3415.22218,405.058161 Z" id="Stroke-29" stroke="#000000"></path>
                                    <path d="M3256.04982,311.479776 C3256.04982,312.558468 3255.17516,313.433127 3254.09647,313.433127 C3253.01777,313.433127 3252.14311,312.558468 3252.14311,311.479776 C3252.14311,310.401496 3253.01777,309.526837 3254.09647,309.526837 C3255.17516,309.526837 3256.04982,310.401496 3256.04982,311.479776" id="Fill-31" fill="#FFFFFF"></path>
                                    <path d="M3256.04982,311.479776 C3256.04982,312.558468 3255.17516,313.433127 3254.09647,313.433127 C3253.01777,313.433127 3252.14311,312.558468 3252.14311,311.479776 C3252.14311,310.401496 3253.01777,309.526837 3254.09647,309.526837 C3255.17516,309.526837 3256.04982,310.401496 3256.04982,311.479776 Z" id="Stroke-33" stroke="#000000"></path>
                                    <path d="M3265.76175,311.479776 C3265.76175,312.558468 3264.88709,313.433127 3263.8084,313.433127 C3262.72971,313.433127 3261.85505,312.558468 3261.85505,311.479776 C3261.85505,310.401496 3262.72971,309.526837 3263.8084,309.526837 C3264.88709,309.526837 3265.76175,310.401496 3265.76175,311.479776" id="Fill-35" fill="#FFCA6E"></path>
                                    <path d="M3265.76175,311.479776 C3265.76175,312.558468 3264.88709,313.433127 3263.8084,313.433127 C3262.72971,313.433127 3261.85505,312.558468 3261.85505,311.479776 C3261.85505,310.401496 3262.72971,309.526837 3263.8084,309.526837 C3264.88709,309.526837 3265.76175,310.401496 3265.76175,311.479776 Z" id="Stroke-37" stroke="#000000"></path>
                                    <path d="M3275.47348,311.479776 C3275.47348,312.558468 3274.59882,313.433127 3273.52013,313.433127 C3272.44144,313.433127 3271.56678,312.558468 3271.56678,311.479776 C3271.56678,310.401496 3272.44144,309.526837 3273.52013,309.526837 C3274.59882,309.526837 3275.47348,310.401496 3275.47348,311.479776" id="Fill-39" fill="#6CC4FF"></path>
                                    <path d="M3275.47348,311.479776 C3275.47348,312.558468 3274.59882,313.433127 3273.52013,313.433127 C3272.44144,313.433127 3271.56678,312.558468 3271.56678,311.479776 C3271.56678,310.401496 3272.44144,309.526837 3273.52013,309.526837 C3274.59882,309.526837 3275.47348,310.401496 3275.47348,311.479776 Z" id="Stroke-41" stroke="#000000"></path>
                                    <polygon id="Fill-43" fill="#FEB32A" points="3251.82548 371.991828 3314.7412 371.991828 3314.7412 368.590054 3251.82548 368.590054"></polygon>
                                    <path d="M3314.94701,368.384043 L3314.53482,368.384043 L3252.03129,368.384043 L3251.6191,368.384043 L3251.6191,368.796229 L3251.6191,371.785817 L3251.6191,372.198004 L3252.03129,372.198004 L3314.53482,372.198004 L3314.94701,372.198004 L3314.94701,371.785817 L3314.94701,368.796229 L3314.94701,368.384043 Z M3252.03129,371.785817 L3314.53482,371.785817 L3314.53482,368.796229 L3252.03129,368.796229 L3252.03129,371.785817 Z" id="Fill-45" fill="#000000"></path>
                                    <polygon id="Fill-46" fill="#FEB32A" points="3236.20609 380.480806 3299.12181 380.480806 3299.12181 377.079032 3236.20609 377.079032"></polygon>
                                    <path d="M3299.32778,376.872898 L3298.91559,376.872898 L3236.41206,376.872898 L3235.99988,376.872898 L3235.99988,377.285084 L3235.99988,380.274672 L3235.99988,380.686858 L3236.41206,380.686858 L3298.91559,380.686858 L3299.32778,380.686858 L3299.32778,380.274672 L3299.32778,377.285084 L3299.32778,376.872898 Z M3236.41206,380.274672 L3298.91559,380.274672 L3298.91559,377.285084 L3236.41206,377.285084 L3236.41206,380.274672 Z" id="Fill-47" fill="#000000"></path>
                                    <polygon id="Fill-48" fill="#FFC14B" points="3426.63501 353.96836 3426.63501 325.204346 3440.18357 325.204346 3443.35576 328.37612 3465.77581 328.37612 3465.77581 353.96836"></polygon>
                                    <polygon id="Stroke-49" stroke="#000000" points="3426.63501 353.96836 3426.63501 325.204346 3440.18357 325.204346 3443.35576 328.37612 3465.77581 328.37612 3465.77581 353.96836"></polygon>
                                    <polygon id="Fill-50" fill="#FFFFFF" points="3456.36473 339.312826 3460.51998 343.468077 3460.51998 362.977683 3442.11421 362.977683 3442.11421 339.312826"></polygon>
                                    <polygon id="Stroke-51" stroke="#000000" stroke-linecap="round" stroke-linejoin="round" points="3456.36473 339.312826 3460.51998 343.468077 3460.51998 362.977683 3442.11421 362.977683 3442.11421 339.312826"></polygon>
                                    <polygon id="Fill-52" fill="#000000" points="3456.36473 339.312826 3456.36473 343.468077 3460.51998 343.468077"></polygon>
                                    <polygon id="Stroke-53" stroke="#000000" stroke-linecap="round" stroke-linejoin="round" points="3456.36473 339.312826 3456.36473 343.468077 3460.51998 343.468077"></polygon>
                                    <path d="M3348.10748,391.950717 L3348.10748,330.83914 C3348.10748,327.246523 3349.50273,324.530627 3351.71246,323.587957 C3354.12004,322.561201 3356.70239,322.660125 3358.042,323.45647 C3359.12399,322.297814 3360.08809,321.743011 3362.03361,321.632545 C3363.3522,321.558351 3365.04463,321.9219 3365.88879,322.297814 C3365.88879,322.297814 3368.42456,320.612384 3372.53694,322.074821 C3372.53694,322.074821 3373.08515,321.477975 3376.83151,321.477975 C3380.57788,321.477975 3382.22291,324.724355 3382.22291,326.277885 L3382.22291,337.24328 C3382.22291,337.24328 3388.16252,337.700394 3388.16252,344.005609 C3388.16252,350.310824 3381.6747,350.584928 3381.6747,350.584928 L3381.36392,350.584928 L3381.36392,391.950717 L3348.10748,391.950717 Z" id="Fill-54" fill="#000000"></path>
                                    <path d="M3371.53166,344.645075 C3371.53166,344.645075 3366.77998,345.650398 3366.77998,352.686832" id="Fill-55" fill="#000000"></path>
                                    <path d="M3365.88863,322.297649 C3365.88863,322.297649 3369.15561,323.585731 3369.15561,327.479244 L3369.15561,337.46652 C3369.15561,337.46652 3369.15561,340.841502 3365.68336,340.841502 C3362.00542,340.841502 3362.03344,337.46652 3362.03344,337.46652" id="Fill-56" fill="#000000"></path>
                                    <path d="M3372.53674,322.074656 C3372.53674,322.074656 3375.36928,323.673527 3375.36928,325.729513 L3375.36928,337.243527" id="Fill-57" fill="#000000"></path>
                                    <path d="M3382.22275,337.243444 L3374.41717,337.243444 C3374.41717,337.243444 3371.40121,337.700147 3371.40121,340.990219 C3371.40121,344.279466 3374.41717,344.645075 3374.41717,344.645075 L3382.22275,344.645075" id="Fill-58" fill="#000000"></path>
                                    <path d="M3348.10748,391.950717 L3348.10748,330.83914 C3348.10748,327.246523 3349.50273,324.530627 3351.71246,323.587957 C3354.12004,322.561201 3356.70239,322.660125 3358.042,323.45647 C3359.12399,322.297814 3360.08809,321.743011 3362.03361,321.632545 C3363.3522,321.558351 3365.04463,321.9219 3365.88879,322.297814 C3365.88879,322.297814 3368.42456,320.612384 3372.53694,322.074821 C3372.53694,322.074821 3373.08515,321.477975 3376.83151,321.477975 C3380.57788,321.477975 3382.22291,324.724355 3382.22291,326.277885 L3382.22291,337.24328 C3382.22291,337.24328 3388.16252,337.700394 3388.16252,344.005609 C3388.16252,350.310824 3381.6747,350.584928 3381.6747,350.584928 L3381.36392,350.584928 L3381.36392,391.950717 L3348.10748,391.950717 Z" id="Stroke-59" stroke="#FFFFFF" stroke-linecap="round" stroke-linejoin="round"></path>
                                    <path d="M3371.53166,344.645075 C3371.53166,344.645075 3366.77998,345.650398 3366.77998,352.686832" id="Stroke-60" stroke="#FFFFFF" stroke-linecap="round" stroke-linejoin="round"></path>
                                    <path d="M3365.88863,322.297649 C3365.88863,322.297649 3369.15561,323.585731 3369.15561,327.479244 L3369.15561,337.46652 C3369.15561,337.46652 3369.15561,340.841502 3365.68336,340.841502 C3362.00542,340.841502 3362.03344,337.46652 3362.03344,337.46652" id="Stroke-61" stroke="#FFFFFF" stroke-linecap="round" stroke-linejoin="round"></path>
                                    <path d="M3372.53674,322.074656 C3372.53674,322.074656 3375.36928,323.673527 3375.36928,325.729513 L3375.36928,337.243527" id="Stroke-62" stroke="#FFFFFF" stroke-linecap="round" stroke-linejoin="round"></path>
                                    <path d="M3382.22275,337.243444 L3374.41717,337.243444 C3374.41717,337.243444 3371.40121,337.700147 3371.40121,340.990219 C3371.40121,344.279466 3374.41717,344.645075 3374.41717,344.645075 L3382.22275,344.645075" id="Stroke-63" stroke="#FFFFFF" stroke-linecap="round" stroke-linejoin="round"></path>
                                    <path d="M3358.04179,323.456511 C3358.04179,323.456511 3362.03382,325.465507 3362.03382,329.213518 L3362.03382,339.200382 C3362.03382,339.200382 3362.03382,342.575776 3358.56115,342.575776 C3354.88321,342.575776 3355.08848,339.200382 3355.08848,339.200382 L3355.08848,329.03669" id="Stroke-64" stroke="#FFFFFF" stroke-linecap="round" stroke-linejoin="round"></path>
                                    <polygon id="Fill-65" fill="#FEB32A" points="3268.6227 342.391735 3268.6227 339.911197 3277.48264 336.229548 3277.48264 339.318473 3272.7153 341.156 3277.48264 342.993939 3277.48264 346.067201"></polygon>
                                    <path d="M3277.68861,335.920738 L3277.11815,336.157746 L3268.6708,339.668337 L3268.41648,339.773857 L3268.41648,340.049197 L3268.41648,342.253982 L3268.41648,342.529323 L3268.6708,342.634842 L3277.11856,346.139251 L3277.68861,346.375846 L3277.68861,345.758391 L3277.68861,343.135237 L3277.68861,342.852477 L3277.4244,342.750667 L3273.28852,341.155918 L3277.4244,339.561581 L3277.68861,339.460183 L3277.68861,339.177011 L3277.68861,336.538194 L3277.68861,335.920738 Z M3277.27643,336.538194 L3277.27643,339.177011 L3272.14223,341.155918 L3277.27643,343.135237 L3277.27643,345.758391 L3268.82867,342.253982 L3268.82867,340.049197 L3277.27643,336.538194 Z" id="Fill-66" fill="#000000"></path>
                                    <polygon id="Fill-67" fill="#FEB32A" points="3285.68256 346.989797 3282.8463 335.314618 3284.8149 335.314618 3287.63508 346.989797"></polygon>
                                    <path d="M3284.97714,335.108443 L3284.65275,335.108443 L3283.1087,335.108443 L3282.5844,335.108443 L3282.70805,335.617493 L3285.44415,346.88131 L3285.5204,347.195808 L3285.84438,347.195808 L3287.37318,347.195808 L3287.89666,347.195808 L3287.77382,346.68717 L3285.05339,335.423765 L3284.97714,335.108443 Z M3284.65275,335.520629 L3287.37318,346.783622 L3285.84438,346.783622 L3283.1087,335.520629 L3284.65275,335.520629 Z" id="Fill-68" fill="#000000"></path>
                                    <polygon id="Fill-69" fill="#FEB32A" points="3293.05142 342.993898 3297.81835 341.155959 3293.05142 339.318432 3293.05142 336.229507 3301.91095 339.911156 3301.91095 342.391694 3293.05142 346.067159"></polygon>
                                    <path d="M3292.84532,335.920738 L3292.84532,336.538194 L3292.84532,339.177011 L3292.84532,339.460183 L3293.10912,339.561581 L3297.24541,341.155918 L3293.10912,342.750667 L3292.84532,342.852477 L3292.84532,343.135237 L3292.84532,345.758391 L3292.84532,346.375846 L3293.41538,346.139251 L3301.86273,342.634842 L3302.11704,342.529323 L3302.11704,342.253982 L3302.11704,340.049197 L3302.11704,339.773857 L3301.86314,339.668337 L3293.41579,336.157746 L3292.84532,335.920738 Z M3293.25751,336.538194 L3301.70486,340.049197 L3301.70486,342.253982 L3293.25751,345.758391 L3293.25751,343.135237 L3298.39129,341.155918 L3293.25751,339.177011 L3293.25751,336.538194 Z" id="Fill-70" fill="#000000"></path>
                                </g>
                            </g>
                        </g>
                    </g>
                </g>
            </g>
        </g>
    </g>
</svg>