<?xml version="1.0" encoding="UTF-8"?>
<svg width="10px" height="10px" viewBox="0 0 10 10" version="1.1" xmlns="http://www.w3.org/2000/svg" xmlns:xlink="http://www.w3.org/1999/xlink">
    <title>展 开</title>
    <g id="PC" stroke="none" stroke-width="1" fill="none" fill-rule="evenodd">
        <g id="Minisite2" transform="translate(-796.000000, -1240.000000)" fill="#FFFFFF" fill-rule="nonzero">
            <g id="赛道选择" transform="translate(630.000000, 849.000000)">
                <g id="Group_expand" transform="translate(0.000000, 272.000000)">
                    <g id="Button" transform="translate(40.000000, 104.000000)">
                        <g id="展-开" transform="translate(126.000000, 15.000000)">
                            <path d="M9.89311844,4.62336734 C10.0356272,4.77757287 10.0356272,5.01916153 9.89311844,5.17336705 L5.26985457,9.84290312 C5.259428,9.85655755 5.24816651,9.86954042 5.23613598,9.88177576 C5.1817409,9.93317761 5.11144082,9.97172899 5.03700545,9.98907711 L4.99183526,9.99710865 L4.94602888,10 C4.93189782,10 4.91777714,9.99922477 4.90372159,9.99775117 L4.94602888,10 C4.87350018,9.99971954 4.80231401,9.98022295 4.73958205,9.94345797 L4.72685805,9.93542644 C4.71833726,9.93013189 4.71005819,9.92445045 4.70204626,9.91839958 L4.69313946,9.91101056 C4.67923976,9.9001203 4.66616157,9.88820072 4.65401317,9.87535053 L0.110910481,5.28131092 C0.0371385946,5.20302657 -0.00272080749,5.0982904 0.000144449149,4.99025764 C0.00300970579,4.88222488 0.0483636176,4.7797939 0.126179276,4.70561029 C0.281616919,4.55646282 0.525507848,4.55646282 0.680945492,4.70561029 L4.94857368,9.01565473 L9.32308342,4.59766642 C9.48831913,4.44802521 9.74174307,4.45945122 9.89311844,4.62336734 Z M4.90372159,5.50523019 L4.94602888,5.50747902 C4.88767294,5.50733278 4.83000528,5.49474313 4.77679973,5.47053395 L4.76630244,5.46571503 C4.75719632,5.46116588 4.74828179,5.45623559 4.73958205,5.450937 L4.72685805,5.44290546 C4.71833269,5.43761805 4.7100533,5.4319364 4.70204626,5.4258786 C4.69950146,5.42330851 4.69632046,5.42105968 4.69345756,5.41881085 C4.67943453,5.40783313 4.66624919,5.39580542 4.65401317,5.38282956 L0.110910481,0.788789942 C0.0371385946,0.710505593 -0.00272080749,0.605769426 0.000144449149,0.497736667 C0.00300970579,0.389703907 0.0483636176,0.287272926 0.126179276,0.213089314 C0.281616919,0.0639418403 0.525507848,0.0639418403 0.680945492,0.213089314 L4.94857368,4.52313375 L9.32308342,0.105145446 C9.48831913,-0.0444957681 9.74174307,-0.0330697529 9.89311844,0.130846367 C10.0356272,0.285051892 10.0356272,0.526640549 9.89311844,0.680846074 L5.26985457,5.35038214 C5.21157449,5.42547224 5.12906313,5.47754018 5.03668735,5.49751992 L4.99183526,5.50490893 L4.94602888,5.50747902 C4.93171438,5.50747902 4.91739989,5.5068365 4.90372159,5.50523019 L4.90372159,5.50523019 Z" id="Shape"></path>
                        </g>
                    </g>
                </g>
            </g>
        </g>
    </g>
</svg>