<svg id="图层_1" data-name="图层 1" xmlns="http://www.w3.org/2000/svg" viewBox="0 0 80 80"><defs><style>.cls-1{fill:none;stroke:#666767;stroke-linecap:round;stroke-miterlimit:10;stroke-width:3.5px;}</style></defs><title>画板 1</title><g id="_1" data-name="1"><polyline class="cls-1" points="36.71 36.01 36.71 22.21 36.71 22.21 31.34 17.37"/><polyline class="cls-1" points="42.35 36.01 42.35 22.21 42.35 22.21 47.73 17.37"/><path class="cls-1" d="M63.6,32.21a25.63,25.63,0,0,1,1.17,4.37h0l8.88,1.34a.55.55,0,0,1,.47.55v4.82a.55.55,0,0,1-.47.55l-8.88,1.34h0a25,25,0,0,1-1.17,4.36h0l7,5.59a.57.57,0,0,1,.13.72L68.34,60a.56.56,0,0,1-.69.24L59.3,57h0a25.46,25.46,0,0,1-3.2,3.2h0l3.29,8.36a.57.57,0,0,1-.25.69L55,71.64a.56.56,0,0,1-.72-.14l-5.59-7a24.68,24.68,0,0,1-4.37,1.17L43,74.52a.56.56,0,0,1-.55.48H37.59a.57.57,0,0,1-.56-.48L35.7,65.65a24.8,24.8,0,0,1-4.37-1.17l-5.59,7a.56.56,0,0,1-.72.14l-4.17-2.41a.56.56,0,0,1-.24-.69l3.29-8.36h0A24.81,24.81,0,0,1,20.7,57h0l-8.36,3.29a.56.56,0,0,1-.69-.24L9.24,55.85a.56.56,0,0,1,.14-.72l7-5.59h0a24.18,24.18,0,0,1-1.17-4.36h0L6.35,43.84a.55.55,0,0,1-.47-.55V38.47a.55.55,0,0,1,.48-.55l8.87-1.34h0a24.51,24.51,0,0,1,1.17-4.37"/><path class="cls-1" d="M47.64,36.33H31.42a1.07,1.07,0,0,1-.52-.14,16.71,16.71,0,0,1-8.11-15.63,16.79,16.79,0,0,1,33.53,1.23,16.67,16.67,0,0,1-8.16,14.4A1.07,1.07,0,0,1,47.64,36.33Z"/><path class="cls-1" d="M39.53,50.79h0a7.23,7.23,0,0,1-7.23-7.23V36.33H46.76v7.23A7.23,7.23,0,0,1,39.53,50.79Z"/></g></svg>