<svg id="图层_2" data-name="图层 2" xmlns="http://www.w3.org/2000/svg" xmlns:xlink="http://www.w3.org/1999/xlink" viewBox="0 0 80 80"><defs><style>.cls-1,.cls-2,.cls-4,.cls-5{fill:none;}.cls-2,.cls-4,.cls-5{stroke:#666767;stroke-width:3.5px;}.cls-2,.cls-5{stroke-linecap:round;}.cls-2,.cls-4{stroke-miterlimit:10;}.cls-3{clip-path:url(#clip-path);}.cls-5{stroke-linejoin:round;}</style><clipPath id="clip-path"><rect class="cls-1" x="5" y="9.87" width="70" height="45.19"/></clipPath></defs><title>画板 1</title><g id="_2" data-name="2"><path class="cls-2" d="M29.75,9.87h41.5A3.75,3.75,0,0,1,75,13.62v37.7a3.74,3.74,0,0,1-3.75,3.74H8.75A3.74,3.74,0,0,1,5,51.32V13.62A3.75,3.75,0,0,1,8.75,9.87H16.8"/><line class="cls-2" x1="20.26" y1="70.13" x2="59.74" y2="70.13"/><line class="cls-2" x1="32.91" y1="55.29" x2="32.91" y2="69.24"/><line class="cls-2" x1="47.09" y1="63.64" x2="47.09" y2="69.24"/><g class="cls-3"><path class="cls-4" d="M40,35.77a7.85,7.85,0,1,1,7.82-7.85A7.85,7.85,0,0,1,40,35.77Z"/><path class="cls-5" d="M25.7,56.21H54.3V46.8s-.36-6.24-10.12-5.3L40,49.62,35.82,41.4s-8.11-2-10.12,4.93Z"/></g></g></svg>