<?xml version="1.0" encoding="UTF-8"?>
<svg width="16px" height="16px" viewBox="0 0 16 16" version="1.1" xmlns="http://www.w3.org/2000/svg" xmlns:xlink="http://www.w3.org/1999/xlink">
    <title>形状</title>
    <g id="PC" stroke="none" stroke-width="1" fill="none" fill-rule="evenodd">
        <g id="Advisory_zh" transform="translate(-584.000000, -328.000000)" fill="#BFBFBF" fill-rule="nonzero">
            <g id="Search" transform="translate(410.000000, 320.000000)">
                <g id="Search-before" transform="translate(38.000000, 0.000000)">
                    <path d="M148.6,19.2 C149.5,18 150,16.6 150,15 C150,11.1 146.9,8 143,8 C139.1,8 136,11.1 136,15 C136,18.9 139.1,22 143,22 C144.6,22 146,21.5 147.2,20.6 L150.6,24 L152,22.6 L148.6,19.2 Z M143,20 C140.2,20 138,17.8 138,15 C138,12.2 140.2,10 143,10 C145.8,10 148,12.2 148,15 C148,17.8 145.8,20 143,20 Z" id="形状"></path>
                </g>
            </g>
        </g>
    </g>
</svg>