<?xml version="1.0" encoding="UTF-8"?>
<svg width="16px" height="16px" viewBox="0 0 16 16" version="1.1" xmlns="http://www.w3.org/2000/svg" xmlns:xlink="http://www.w3.org/1999/xlink">
    <title>icon_date</title>
    <g id="Web" stroke="none" stroke-width="1" fill="none" fill-rule="evenodd">
        <g id="News_zh" transform="translate(-938.000000, -380.000000)" fill="#1D1D1B">
            <g id="img_left" transform="translate(400.000000, 320.000000)">
                <g id="info" transform="translate(538.000000, 0.000000)">
                    <g transform="translate(0.000000, 52.000000)" id="date">
                        <path d="M12.0443548,17.6048387 L12.0443548,17.6048387 L12.0443548,17.6008065 C12.0967742,17.5483871 12.1733871,17.5120968 12.2620968,17.5120968 C12.3508065,17.5120968 12.4274194,17.5483871 12.4798387,17.6008065 L12.4798387,17.6048387 C12.5443548,17.6612903 12.5685484,17.733871 12.5685484,17.8225806 C12.5685484,17.9072581 12.5443548,17.983871 12.4798387,18.0403226 C12.4274194,18.1008065 12.3508065,18.1330645 12.2620968,18.1330645 C12.1733871,18.1330645 12.0967742,18.1008065 12.0443548,18.0403226 C11.9919355,17.983871 11.9516129,17.9072581 11.9516129,17.8225806 C11.9516129,17.733871 11.9919355,17.6612903 12.0443548,17.6048387 L12.0443548,17.6048387 Z M11.5241935,18.5645161 L11.5241935,18.5645161 C11.7096774,18.7540323 11.9758065,18.8709677 12.2620968,18.8709677 C12.5483871,18.8709677 12.8104839,18.7540323 13,18.5645161 L13,18.5604839 C13.1975806,18.3669355 13.3104839,18.108871 13.3104839,17.8225806 C13.3104839,17.5282258 13.1975806,17.2701613 13,17.0806452 C12.8104839,16.891129 12.5483871,16.7741935 12.2620968,16.7741935 C11.9758065,16.7741935 11.7096774,16.891129 11.5241935,17.0806452 C11.3346774,17.2701613 11.2137097,17.5282258 11.2137097,17.8225806 C11.2137097,18.108871 11.3346774,18.3669355 11.5241935,18.5604839 L11.5241935,18.5645161 Z M9.20564516,17.6048387 L9.20564516,17.6048387 L9.20564516,17.6008065 C9.25806452,17.5483871 9.33467742,17.5120968 9.4233871,17.5120968 C9.51209677,17.5120968 9.58870968,17.5483871 9.64112903,17.6008065 L9.64112903,17.6048387 C9.7016129,17.6612903 9.73790323,17.733871 9.73790323,17.8225806 C9.73790323,17.9072581 9.7016129,17.983871 9.64112903,18.0403226 C9.58870968,18.1008065 9.51209677,18.1330645 9.4233871,18.1330645 C9.33467742,18.1330645 9.25806452,18.1008065 9.20564516,18.0403226 C9.14112903,17.983871 9.11290323,17.9072581 9.11290323,17.8225806 C9.11290323,17.733871 9.14112903,17.6612903 9.20564516,17.6048387 L9.20564516,17.6048387 Z M8.68145161,18.5645161 L8.68145161,18.5645161 C8.87096774,18.7540323 9.13306452,18.8709677 9.4233871,18.8709677 C9.7016129,18.8709677 9.96774194,18.7540323 10.1612903,18.5645161 L10.1653226,18.5604839 C10.3508065,18.3669355 10.4717742,18.108871 10.4717742,17.8225806 C10.4717742,17.5282258 10.3508065,17.2701613 10.1653226,17.0806452 L10.1612903,17.0806452 C9.96774194,16.891129 9.7016129,16.7741935 9.4233871,16.7741935 C9.13306452,16.7741935 8.87096774,16.891129 8.68145161,17.0806452 C8.49193548,17.2701613 8.375,17.5282258 8.375,17.8225806 C8.375,18.108871 8.49193548,18.3669355 8.68145161,18.5604839 L8.68145161,18.5645161 Z M3.52419355,20.3951613 L3.52419355,20.3951613 C3.5766129,20.3346774 3.65725806,20.2983871 3.74193548,20.2983871 C3.83064516,20.2983871 3.90322581,20.3346774 3.96370968,20.3951613 C4.01209677,20.4435484 4.0483871,20.5241935 4.0483871,20.6169355 C4.0483871,20.7016129 4.01209677,20.7701613 3.96370968,20.8346774 C3.90322581,20.8830645 3.83064516,20.9193548 3.74193548,20.9193548 C3.65725806,20.9193548 3.5766129,20.8830645 3.52419355,20.8346774 C3.46774194,20.7701613 3.42741935,20.7016129 3.42741935,20.6169355 C3.42741935,20.5241935 3.46774194,20.4435484 3.52419355,20.3951613 L3.52419355,20.3951613 Z M3,21.3467742 L3,21.3467742 C3.19354839,21.5403226 3.4516129,21.6612903 3.74193548,21.6612903 C4.03225806,21.6612903 4.29032258,21.5403226 4.47580645,21.3467742 L4.48387097,21.3467742 C4.67741935,21.1612903 4.79032258,20.8951613 4.79032258,20.6169355 C4.79032258,20.3225806 4.67741935,20.0564516 4.48387097,19.8709677 L4.47580645,19.8709677 C4.29032258,19.6814516 4.03225806,19.5645161 3.74193548,19.5645161 C3.4516129,19.5645161 3.19354839,19.6814516 3,19.8709677 C2.81854839,20.0564516 2.69354839,20.3225806 2.69354839,20.6169355 C2.69354839,20.8951613 2.81854839,21.1612903 3,21.3467742 L3,21.3467742 Z M3.52419355,17.6048387 L3.52419355,17.6048387 L3.52419355,17.6008065 C3.5766129,17.5483871 3.65725806,17.5120968 3.74193548,17.5120968 C3.83064516,17.5120968 3.90322581,17.5483871 3.96370968,17.6008065 L3.96370968,17.6048387 C4.01209677,17.6612903 4.0483871,17.733871 4.0483871,17.8225806 C4.0483871,17.9072581 4.01209677,17.983871 3.96370968,18.0403226 C3.90322581,18.1008065 3.83064516,18.1330645 3.74193548,18.1330645 C3.65725806,18.1330645 3.5766129,18.1008065 3.52419355,18.0403226 C3.46774194,17.983871 3.42741935,17.9072581 3.42741935,17.8225806 C3.42741935,17.733871 3.46774194,17.6612903 3.52419355,17.6048387 L3.52419355,17.6048387 Z M3,18.5645161 L3,18.5645161 C3.19354839,18.7540323 3.4516129,18.8709677 3.74193548,18.8709677 C4.03225806,18.8709677 4.29032258,18.7540323 4.47580645,18.5645161 L4.48387097,18.5604839 C4.67741935,18.3669355 4.79032258,18.108871 4.79032258,17.8225806 C4.79032258,17.5282258 4.67741935,17.2701613 4.48387097,17.0806452 L4.47580645,17.0806452 C4.29032258,16.891129 4.03225806,16.7741935 3.74193548,16.7741935 C3.4516129,16.7741935 3.19354839,16.891129 3,17.0806452 C2.81854839,17.2701613 2.69354839,17.5282258 2.69354839,17.8225806 C2.69354839,18.108871 2.81854839,18.3669355 3,18.5604839 L3,18.5645161 Z M9.20564516,20.3951613 L9.20564516,20.3951613 C9.25806452,20.3346774 9.33467742,20.2983871 9.4233871,20.2983871 C9.51209677,20.2983871 9.58870968,20.3346774 9.64112903,20.3951613 C9.7016129,20.4435484 9.73790323,20.5241935 9.73790323,20.6169355 C9.73790323,20.7016129 9.7016129,20.7701613 9.64112903,20.8346774 C9.58870968,20.8830645 9.51209677,20.9193548 9.4233871,20.9193548 C9.33467742,20.9193548 9.25806452,20.8830645 9.20564516,20.8346774 C9.14112903,20.7701613 9.11290323,20.7016129 9.11290323,20.6169355 C9.11290323,20.5241935 9.14112903,20.4435484 9.20564516,20.3951613 L9.20564516,20.3951613 Z M8.68145161,21.3467742 L8.68145161,21.3467742 C8.87096774,21.5403226 9.13306452,21.6612903 9.4233871,21.6612903 C9.7016129,21.6612903 9.96774194,21.5403226 10.1612903,21.3467742 L10.1653226,21.3467742 C10.3508065,21.1612903 10.4717742,20.8951613 10.4717742,20.6169355 C10.4717742,20.3225806 10.3508065,20.0564516 10.1653226,19.8709677 L10.1612903,19.8709677 C9.96774194,19.6814516 9.7016129,19.5645161 9.4233871,19.5645161 C9.13306452,19.5645161 8.87096774,19.6814516 8.68145161,19.8709677 C8.49193548,20.0564516 8.375,20.3225806 8.375,20.6169355 C8.375,20.8951613 8.49193548,21.1612903 8.68145161,21.3467742 L8.68145161,21.3467742 Z M14.7741935,12.0766129 L14.7741935,12.0766129 L1.23387097,12.0766129 L1.23387097,9.22983871 L2.44354839,9.22983871 L2.44354839,10.1451613 C2.44354839,10.4879032 2.71370968,10.7580645 3.05645161,10.7580645 C3.40322581,10.7580645 3.6733871,10.4879032 3.6733871,10.1451613 L3.6733871,9.22983871 L5.73790323,9.22983871 L5.73790323,10.1451613 C5.73790323,10.4879032 6.01612903,10.7580645 6.35483871,10.7580645 C6.69758065,10.7580645 6.96774194,10.4879032 6.96774194,10.1451613 L6.96774194,9.22983871 L9.03225806,9.22983871 L9.03225806,10.1451613 C9.03225806,10.4879032 9.31048387,10.7580645 9.64919355,10.7580645 C9.98790323,10.7580645 10.2620968,10.4879032 10.2620968,10.1451613 L10.2620968,9.22983871 L12.3306452,9.22983871 L12.3306452,10.1451613 C12.3306452,10.4879032 12.6048387,10.7580645 12.9435484,10.7580645 C13.2862903,10.7580645 13.5645161,10.4879032 13.5645161,10.1451613 L13.5645161,9.22983871 L14.7741935,9.22983871 L14.7741935,12.0766129 Z M14.7741935,22.7701613 L14.7741935,22.7701613 L1.23387097,22.7701613 L1.23387097,12.8185484 L14.7741935,12.8185484 L14.7741935,22.7701613 Z M15.391129,8 L15.391129,8 L0.616935484,8 C0.274193548,8 0,8.27419355 0,8.61290323 L0,23.3830645 C0,23.7258065 0.274193548,24 0.616935484,24 L15.391129,24 C15.7258065,24 16,23.7258065 16,23.3830645 L16,8.61290323 C16,8.27419355 15.7258065,8 15.391129,8 L15.391129,8 Z M6.36290323,20.3951613 L6.36290323,20.3951613 C6.41532258,20.3346774 6.49193548,20.2983871 6.58467742,20.2983871 C6.66935484,20.2983871 6.75,20.3346774 6.80241935,20.3951613 C6.85483871,20.4435484 6.88709677,20.5241935 6.88709677,20.6169355 C6.88709677,20.7016129 6.85483871,20.7701613 6.80241935,20.8346774 C6.75,20.8830645 6.66935484,20.9193548 6.58467742,20.9193548 C6.49193548,20.9193548 6.41532258,20.8830645 6.36290323,20.8346774 C6.30645161,20.7701613 6.27822581,20.7016129 6.27822581,20.6169355 C6.27822581,20.5241935 6.30645161,20.4435484 6.36290323,20.3951613 L6.36290323,20.3951613 Z M5.83870968,21.3467742 L5.83870968,21.3467742 C6.03225806,21.5403226 6.29435484,21.6612903 6.58467742,21.6612903 C6.87096774,21.6612903 7.12903226,21.5403226 7.31854839,21.3467742 L7.3266129,21.3467742 C7.50806452,21.1612903 7.63306452,20.8951613 7.63306452,20.6169355 C7.63306452,20.3225806 7.50806452,20.0564516 7.3266129,19.8709677 L7.31854839,19.8709677 C7.12903226,19.6814516 6.87096774,19.5645161 6.58467742,19.5645161 C6.29435484,19.5645161 6.03225806,19.6814516 5.83870968,19.8709677 C5.65322581,20.0564516 5.53629032,20.3225806 5.53629032,20.6169355 C5.53629032,20.8951613 5.65322581,21.1612903 5.83870968,21.3467742 L5.83870968,21.3467742 Z M9.20564516,14.8145161 L9.20564516,14.8145161 C9.25806452,14.7580645 9.33467742,14.7258065 9.4233871,14.7258065 C9.51209677,14.7258065 9.58870968,14.7580645 9.64112903,14.8145161 C9.7016129,14.8709677 9.73790323,14.9516129 9.73790323,15.0322581 C9.73790323,15.1169355 9.7016129,15.1975806 9.64112903,15.2580645 C9.58870968,15.3064516 9.51209677,15.3387097 9.4233871,15.3387097 C9.33467742,15.3387097 9.25806452,15.3064516 9.20564516,15.2580645 C9.14112903,15.1975806 9.11290323,15.1169355 9.11290323,15.0322581 C9.11290323,14.9516129 9.14112903,14.8709677 9.20564516,14.8145161 L9.20564516,14.8145161 Z M8.68145161,15.7741935 L8.68145161,15.7741935 C8.87096774,15.9677419 9.13306452,16.0806452 9.4233871,16.0806452 C9.70967742,16.0806452 9.97177419,15.9677419 10.1653226,15.7741935 C10.3508065,15.5887097 10.4717742,15.3266129 10.4717742,15.0322581 C10.4717742,14.75 10.3508065,14.4879032 10.1653226,14.2903226 L10.1612903,14.2903226 C9.96774194,14.1048387 9.7016129,13.9919355 9.4233871,13.9919355 C9.13306452,13.9919355 8.87096774,14.1048387 8.68145161,14.2903226 C8.49193548,14.4879032 8.375,14.75 8.375,15.0322581 C8.375,15.3185484 8.49193548,15.5806452 8.68145161,15.7741935 L8.68145161,15.7741935 Z M12.0443548,14.8145161 L12.0443548,14.8145161 C12.0967742,14.7580645 12.1733871,14.7258065 12.2620968,14.7258065 C12.3508065,14.7258065 12.4274194,14.7580645 12.4798387,14.8145161 C12.5443548,14.8709677 12.5685484,14.9516129 12.5685484,15.0322581 C12.5685484,15.1169355 12.5443548,15.1975806 12.4798387,15.2580645 C12.4274194,15.3064516 12.3508065,15.3387097 12.2620968,15.3387097 C12.1733871,15.3387097 12.0967742,15.3064516 12.0443548,15.2580645 C11.9919355,15.1975806 11.9516129,15.1169355 11.9516129,15.0322581 C11.9516129,14.9516129 11.9919355,14.8709677 12.0443548,14.8145161 L12.0443548,14.8145161 Z M11.5241935,15.7741935 L11.5241935,15.7741935 C11.7096774,15.9677419 11.9717742,16.0806452 12.2620968,16.0806452 C12.5604839,16.0806452 12.8104839,15.9677419 13,15.7741935 C13.1975806,15.5887097 13.3104839,15.3266129 13.3104839,15.0322581 C13.3104839,14.75 13.1975806,14.4879032 13,14.2903226 C12.8104839,14.1048387 12.5483871,13.9919355 12.2620968,13.9919355 C11.9758065,13.9919355 11.7096774,14.1048387 11.5241935,14.2903226 C11.3346774,14.4879032 11.2137097,14.75 11.2137097,15.0322581 C11.2137097,15.3185484 11.3346774,15.5806452 11.5201613,15.7741935 L11.5241935,15.7741935 Z M6.36290323,17.6048387 L6.36290323,17.6048387 L6.36290323,17.6008065 C6.41532258,17.5483871 6.49193548,17.5120968 6.58467742,17.5120968 C6.66935484,17.5120968 6.75,17.5483871 6.80241935,17.6008065 L6.80241935,17.6048387 C6.85483871,17.6612903 6.88709677,17.733871 6.88709677,17.8225806 C6.88709677,17.9072581 6.85483871,17.983871 6.80241935,18.0403226 C6.75,18.1008065 6.66935484,18.1330645 6.58467742,18.1330645 C6.49193548,18.1330645 6.41532258,18.1008065 6.36290323,18.0403226 C6.30645161,17.983871 6.27822581,17.9072581 6.27822581,17.8225806 C6.27822581,17.733871 6.30645161,17.6612903 6.36290323,17.6048387 L6.36290323,17.6048387 Z M5.83870968,18.5645161 L5.83870968,18.5645161 C6.03225806,18.7540323 6.29435484,18.8709677 6.58467742,18.8709677 C6.87096774,18.8709677 7.12903226,18.7540323 7.31854839,18.5645161 L7.3266129,18.5604839 C7.50806452,18.3669355 7.63306452,18.108871 7.63306452,17.8225806 C7.63306452,17.5282258 7.50806452,17.2701613 7.3266129,17.0806452 L7.31854839,17.0806452 C7.12903226,16.891129 6.87096774,16.7741935 6.58467742,16.7741935 C6.29435484,16.7741935 6.03225806,16.891129 5.83870968,17.0806452 C5.65322581,17.2701613 5.53629032,17.5282258 5.53629032,17.8225806 C5.53629032,18.108871 5.65322581,18.3669355 5.83870968,18.5604839 L5.83870968,18.5645161 Z M6.36290323,14.8145161 L6.36290323,14.8145161 C6.41532258,14.7580645 6.49193548,14.7258065 6.58467742,14.7258065 C6.66935484,14.7258065 6.75,14.7580645 6.80241935,14.8145161 C6.85483871,14.8709677 6.88709677,14.9516129 6.88709677,15.0322581 C6.88709677,15.1169355 6.85483871,15.1975806 6.80241935,15.2580645 C6.75,15.3064516 6.66935484,15.3387097 6.58467742,15.3387097 C6.49193548,15.3387097 6.41532258,15.3064516 6.36290323,15.2580645 C6.30645161,15.1975806 6.27822581,15.1169355 6.27822581,15.0322581 C6.27822581,14.9516129 6.30645161,14.8709677 6.36290323,14.8145161 L6.36290323,14.8145161 Z M5.83870968,15.7741935 C6.03225806,15.9677419 6.29435484,16.0806452 6.58467742,16.0806452 C6.87096774,16.0806452 7.12903226,15.9677419 7.3266129,15.7741935 C7.51612903,15.5887097 7.63306452,15.3266129 7.63306452,15.0322581 C7.63306452,14.75 7.50806452,14.4879032 7.3266129,14.2903226 L7.31854839,14.2903226 C7.12903226,14.1048387 6.87096774,13.9919355 6.58467742,13.9919355 C6.29435484,13.9919355 6.03225806,14.1048387 5.83870968,14.2903226 C5.65322581,14.4879032 5.53629032,14.75 5.53629032,15.0322581 C5.53629032,15.3185484 5.65322581,15.5806452 5.83870968,15.7741935 L5.83870968,15.7741935 Z" id="icon_date"></path>
                    </g>
                </g>
            </g>
        </g>
    </g>
</svg>