<?xml version="1.0" encoding="UTF-8"?>
<svg width="16px" height="16px" viewBox="0 0 16 16" version="1.1" xmlns="http://www.w3.org/2000/svg" xmlns:xlink="http://www.w3.org/1999/xlink">
    <title>icon_author</title>
    <defs>
        <polygon id="path-1" points="0 0 16 0 16 16 0 16"></polygon>
    </defs>
    <g id="Web" stroke="none" stroke-width="1" fill="none" fill-rule="evenodd">
        <g id="News_zh" transform="translate(-1095.000000, -380.000000)">
            <g id="img_left" transform="translate(400.000000, 320.000000)">
                <g id="info" transform="translate(538.000000, 0.000000)">
                    <g transform="translate(0.000000, 52.000000)">
                        <g id="author" transform="translate(157.000000, 0.000000)">
                            <g id="icon_author" transform="translate(0.000000, 8.000000)">
                                <mask id="mask-2" fill="white">
                                    <use xlink:href="#path-1"></use>
                                </mask>
                                <g id="Clip-2"></g>
                                <path d="M1.24,5.1380121 L1.24,5.1380121 L5.34,1.0420121 C5.58,0.806012097 5.58,0.418012097 5.344,0.190012097 C5.104,-0.0619879027 4.72,-0.0619879027 4.48,0.182012097 L0.376,4.2860121 C0.14,4.5140121 0.14,4.9100121 0.372,5.1380121 C0.616,5.3820121 0.996,5.3820121 1.24,5.1380121 M7.612,8.6540121 L7.612,8.6540121 L7.592,8.6380121 C7.52,8.5580121 7.464,8.4660121 7.42,8.3700121 L7.42,8.3620121 C7.376,8.2660121 7.356,8.1460121 7.356,8.0340121 C7.356,7.9140121 7.376,7.7980121 7.42,7.7020121 C7.464,7.5900121 7.532,7.4940121 7.612,7.4140121 C7.696,7.3300121 7.792,7.2660121 7.896,7.2180121 C8,7.1860121 8.112,7.1580121 8.236,7.1580121 C8.348,7.1580121 8.464,7.1860121 8.564,7.2180121 L8.58,7.2260121 C8.68,7.2660121 8.768,7.3300121 8.848,7.4140121 C8.936,7.4940121 8.996,7.5900121 9.04,7.7020121 C9.08,7.7980121 9.108,7.9140121 9.108,8.0340121 C9.108,8.1460121 9.08,8.2660121 9.04,8.3620121 L9.04,8.3820121 C8.992,8.4820121 8.936,8.5620121 8.86,8.6420121 L8.86,8.6460121 L8.848,8.6540121 L8.84,8.6580121 C8.764,8.7380121 8.668,8.8060121 8.568,8.8500121 L8.564,8.8500121 C8.464,8.8820121 8.348,8.9100121 8.236,8.9100121 C8.112,8.9100121 8,8.8820121 7.896,8.8500121 L7.896,8.8420121 C7.792,8.8060121 7.696,8.7300121 7.612,8.6540121 M9.716,7.4180121 L9.716,7.4180121 C9.636,7.2180121 9.516,7.0460121 9.372,6.8940121 C9.228,6.7540121 9.048,6.6380121 8.868,6.5540121 L8.848,6.5420121 C8.656,6.4660121 8.452,6.4300121 8.236,6.4300121 C8.016,6.4300121 7.812,6.4660121 7.62,6.5420121 C7.42,6.6300121 7.24,6.7460121 7.088,6.8940121 C6.952,7.0460121 6.824,7.2180121 6.744,7.4180121 C6.664,7.6140121 6.624,7.8140121 6.624,8.0340121 C6.624,8.2500121 6.664,8.4580121 6.744,8.6420121 C6.824,8.8300121 6.94,9.0020121 7.072,9.1500121 L7.088,9.1700121 C7.24,9.3140121 7.416,9.4380121 7.62,9.5260121 C7.812,9.5980121 8.016,9.6460121 8.236,9.6460121 C8.452,9.6460121 8.656,9.5980121 8.848,9.5260121 C8.928,9.4860121 9,9.4460121 9.076,9.3940121 L12.776,13.0940121 C11.788,12.5220121 10.608,11.9940121 9.38,11.5540121 C7.716,10.9540121 5.944,10.5340121 4.456,10.4340121 L3.032,6.3940121 L4.816,4.6180121 L4.816,4.6100121 L6.596,2.8380121 L10.636,4.2540121 C10.74,5.7460121 11.156,7.5140121 11.752,9.1740121 C12.188,10.4020121 12.72,11.5860121 13.296,12.5780121 L9.596,8.8740121 C9.64,8.8140121 9.672,8.7380121 9.708,8.6620121 L9.716,8.6420121 C9.804,8.4580121 9.836,8.2500121 9.836,8.0340121 C9.836,7.8140121 9.804,7.6060121 9.716,7.4180121 M15.176,13.1940121 L15.168,13.1900121 C14.344,12.1580121 13.52,10.5220121 12.9,8.7700121 C12.284,7.0540121 11.868,5.2340121 11.828,3.8060121 C11.824,3.5460121 11.656,3.3260121 11.416,3.2460121 L6.64,1.5580121 C6.408,1.4780121 6.16,1.5460121 6,1.7060121 L3.96,3.7500121 L1.904,5.8060121 C1.728,5.9700121 1.68,6.2260121 1.76,6.4420121 L3.44,11.2220121 C3.528,11.4740121 3.78,11.6380121 4.04,11.6340121 C5.46,11.6780121 7.264,12.0900121 8.972,12.7060121 C10.296,13.1740121 11.564,13.7580121 12.544,14.3780121 L0.36,14.3780121 C0.16,14.3780121 0,14.5420121 0,14.7420121 C0,14.9500121 0.16,15.1100121 0.36,15.1100121 L13.74,15.1100121 C13.908,15.1140121 14.08,15.0540121 14.208,14.9340121 L14.212,14.9260121 L15.124,14.0140121 C15.344,13.7900121 15.364,13.4340121 15.176,13.1940121" id="Fill-1" fill="#1D1D1B" mask="url(#mask-2)"></path>
                            </g>
                        </g>
                    </g>
                </g>
            </g>
        </g>
    </g>
</svg>