<?xml version="1.0" encoding="UTF-8"?>
<svg width="16px" height="16px" viewBox="0 0 16 16" version="1.1" xmlns="http://www.w3.org/2000/svg" xmlns:xlink="http://www.w3.org/1999/xlink">
    <title>Group 3</title>
    <defs>
        <polygon id="path-1" points="0 0.00024650789 16 0.00024650789 16 16.0002465 0 16.0002465"></polygon>
    </defs>
    <g id="Web" stroke="none" stroke-width="1" fill="none" fill-rule="evenodd">
        <g id="Home_zh" transform="translate(-1140.000000, -2965.000000)">
            <g id="Event" transform="translate(0.000000, 2644.000000)">
                <g id="info" transform="translate(1140.000000, 166.000000)">
                    <g id="Group-12" transform="translate(0.000000, 62.000000)">
                        <g id="Group-11" transform="translate(0.000000, 84.000000)">
                            <g id="Group-3" transform="translate(0.000000, 9.000000)">
                                <mask id="mask-2" fill="white">
                                    <use xlink:href="#path-1"></use>
                                </mask>
                                <g id="Clip-2"></g>
                                <path d="M13.142,6.90584 L13.142,6.90584 C12.798,6.68184 12.31,6.57784 12.05,6.23384 L12.034,6.19784 C11.79,5.84984 11.79,5.36584 12.034,5.01784 C12.138,4.86584 12.282,4.74184 12.458,4.66584 L12.518,4.62984 C12.894,4.48984 13.262,4.28584 13.654,4.17384 C14.246,4.01384 13.998,3.08984 13.402,3.24984 C11.874,3.65784 10.506,4.48984 9.538,5.64184 C8.15,7.28584 7.206,10.24184 8.958,12.02584 L8.974,12.05784 C9.286,12.36184 9.654,12.60984 10.066,12.78184 C10.454,12.94184 10.882,13.02984 11.33,13.02984 C11.77,13.02984 12.186,12.94984 12.562,12.79784 C13.394,12.46984 14.07,11.80584 14.406,10.97384 C15.022,9.48984 14.47,7.76184 13.142,6.90584 M7.11,7.57784 L7.11,7.57784 C7.05,7.49784 6.974,7.41784 6.91,7.34184 C6.738,7.17784 6.55,7.02584 6.362,6.90584 C6.174,6.78184 5.958,6.66984 5.738,6.58584 C5.55,6.50984 5.386,6.38984 5.27,6.23384 L5.246,6.19784 C5.134,6.03384 5.062,5.82584 5.062,5.61384 C5.062,5.39384 5.134,5.19384 5.246,5.01784 C5.35,4.86584 5.498,4.74184 5.678,4.66584 L5.734,4.62984 C6.114,4.48984 6.478,4.28584 6.866,4.17384 C7.466,4.01384 7.214,3.08984 6.626,3.24984 C5.09,3.65784 3.726,4.48984 2.758,5.64184 C1.362,7.28584 0.418,10.24184 2.174,12.02584 L2.194,12.05784 C2.818,12.68184 3.67,13.02984 4.554,13.02984 C5.602,13.02984 6.606,12.52184 7.23,11.67384 C6.606,10.37784 6.702,8.91384 7.11,7.57784 M6.546,5.62184 C6.71,5.68584 6.87,5.78584 7.022,5.88184 C7.238,6.02584 7.438,6.16984 7.614,6.33784 C7.886,5.80184 8.214,5.30984 8.61,4.84584 C9.746,3.52184 11.318,2.54584 13.086,2.06584 C15.23,1.49784 16.122,4.78984 13.966,5.35384 C13.862,5.38584 13.574,5.51384 13.33,5.62184 C14.322,6.09784 15.118,6.92984 15.546,7.96184 C15.994,9.06984 15.994,10.32984 15.546,11.44584 C15.07,12.57784 14.15,13.47784 13.018,13.93384 C12.486,14.14184 11.93,14.25384 11.33,14.25384 C10.718,14.25384 10.134,14.13384 9.598,13.90584 C8.974,13.64584 8.394,13.23384 7.942,12.73384 C7.082,13.68984 5.83,14.25384 4.554,14.25384 C3.366,14.25384 2.222,13.78184 1.37,12.94984 L1.334,12.91384 L1.334,12.92184 C-0.922,10.66584 -0.018,7.01384 1.822,4.84584 C2.958,3.52184 4.534,2.54584 6.306,2.06584 C8.454,1.49784 9.338,4.78984 7.182,5.35384 C7.078,5.38584 6.79,5.51384 6.546,5.62184" id="Fill-1" fill="#1D1D1B" mask="url(#mask-2)"></path>
                            </g>
                        </g>
                    </g>
                </g>
            </g>
        </g>
    </g>
</svg>