<?xml version="1.0" encoding="UTF-8"?>
<svg width="34px" height="34px" viewBox="0 0 34 34" version="1.1" xmlns="http://www.w3.org/2000/svg" xmlns:xlink="http://www.w3.org/1999/xlink">
    <title>回到顶部</title>
    <g id="PC" stroke="none" stroke-width="1" fill="none" fill-rule="evenodd">
        <g id="Member_zh" transform="translate(-1702.000000, -539.000000)">
            <g id="SideBar" transform="translate(1560.000000, 540.000000)">
                <g id="回到顶部" transform="translate(143.000000, 0.000000)">
                    <circle id="Oval" stroke="#7D32EA" stroke-width="2" fill="#FFFFFF" cx="16" cy="16" r="16"></circle>
                    <path d="M14.8302639,11.3147188 L8.37229511,17.7630156 C7.99977949,18.1343437 7.83917011,18.5750938 8.21170136,18.9464219 C8.58423261,19.31775 9.02679511,19.16075 9.39842011,18.7864219 L14.8251389,13.3705625 L14.8251389,23.1215 C14.8251389,23.6075469 15.0364514,24 15.5209826,24 C16.0055139,24 16.2778107,23.6075469 16.2778107,23.1215156 L16.2778107,13.3705781 L21.6996857,18.780375 C22.0710139,19.1517031 22.502717,19.32075 22.8770607,18.9494375 C23.2514045,18.578125 23.1007482,18.1252813 22.7261232,17.7539688 L16.265717,11.3086719 C16.265717,11.3086719 15.8789982,10.8649063 15.5858732,10.8649063 C15.2389982,10.8649063 14.8302482,11.3147188 14.8302482,11.3147188 L14.8302639,11.3147188 Z M8.98482636,9.4490625 L22.1057326,9.4490625 C22.7113264,9.4490625 23.0597014,9.26490625 23.0597014,8.739625 C23.0597014,8.21434375 22.7578264,8 22.1057326,8 L8.98604511,8 C8.38226386,8 8.03206074,8.20226563 8.03206074,8.72453125 C8.03206074,9.24679687 8.39371699,9.4490625 8.98602949,9.4490625 L8.98482636,9.4490625 Z" id="Shape" fill="#7D32EA" fill-rule="nonzero"></path>
                </g>
            </g>
        </g>
    </g>
</svg>