<?xml version="1.0" encoding="UTF-8"?>
<svg width="36px" height="36px" viewBox="0 0 36 36" version="1.1" xmlns="http://www.w3.org/2000/svg" xmlns:xlink="http://www.w3.org/1999/xlink">
    <!-- Generator: Sketch 63.1 (92452) - https://sketch.com -->
    <title>形状</title>
    <desc>Created with Sketch.</desc>
    <g id="Page-1" stroke="none" stroke-width="1" fill="none" fill-rule="evenodd">
        <g id="openGauss-下载" transform="translate(-1213.000000, -220.000000)" fill="#666666" fill-rule="nonzero">
            <g id="工具-3" transform="translate(1213.000000, 220.000000)">
                <path d="M30.3762988,35.1221012 C30.0355602,35.1222624 29.7087757,34.9867503 29.4681244,34.7454962 L20.8653877,26.127898 C20.3777914,25.6229133 20.3844907,24.8203765 20.8804495,24.3236043 C21.3764082,23.826832 22.1788391,23.8189112 22.6845052,24.3057965 L30.3762988,32.0123441 L31.7191785,30.6665366 L24.0467667,22.9849114 C23.5591704,22.4799268 23.5658697,21.67739 24.0618285,21.1806177 C24.5577872,20.6838455 25.3602181,20.6759247 25.8658842,21.16281 L34.4492392,29.758255 C34.6910239,29.9997811 34.8268813,30.3275332 34.8268813,30.6693058 C34.8268813,31.0110784 34.6910239,31.3388304 34.4492392,31.5803565 L31.2900108,34.7454962 C31.048336,34.9869127 30.7206445,35.1223878 30.3790676,35.1221012 L30.3762988,35.1221012 Z M20.9982913,2.57072943 C21.0560263,2.40834915 21.0805084,2.2360121 21.0702807,2.06397477 L21.0702807,2.05843646 C21.0597578,1.89402159 21.0174438,1.73320953 20.9456836,1.58491164 C20.9318395,1.55722011 20.9096889,1.53506693 20.893076,1.50737541 C20.8323011,1.39005524 20.7528085,1.28342898 20.6577259,1.19169217 C20.6189624,1.15846237 20.5746612,1.13630915 20.53036,1.10861763 C20.4556017,1.05323461 20.3863811,0.98954416 20.2977787,0.950776044 L20.2202517,0.923084517 L20.2174829,0.923084517 C15.6812328,-0.965696723 10.4521222,0.0993338794 7.01572915,3.61193024 C6.9852721,3.64239088 6.97142795,3.68392816 6.94373969,3.71992715 C6.91051381,3.74761868 6.86898144,3.75869527 6.83852439,3.79192507 L0.376088728,10.3021993 C-0.125362909,10.8092795 -0.125362909,11.6255281 0.376088728,12.1326082 L4.29674378,16.1035709 C4.53502889,16.3450729 4.86013242,16.4810187 5.19938047,16.4810187 C5.53862853,16.4810187 5.86373206,16.3450729 6.10201716,16.1035709 L8.33645829,13.8411745 L11.0554436,16.5937107 C11.2933557,16.8359077 11.6185988,16.9723362 11.9580803,16.9723362 C12.2975618,16.9723362 12.6228049,16.8359077 12.860717,16.5937107 C13.3603457,16.0869607 13.3603457,15.272821 12.860717,14.7660709 L9.23632613,11.1052532 C8.99889129,10.8632189 8.67410495,10.7268544 8.33507385,10.7268544 C7.99604276,10.7268544 7.67125642,10.8632189 7.43382158,11.1052532 L5.19938045,13.3676496 L3.0867676,11.2270958 L8.63826011,5.62233397 C8.67148599,5.58910417 8.68256131,5.54479774 8.71301836,5.5115679 C8.74624423,5.48387637 8.7877766,5.47003063 8.82100252,5.43680083 C10.3669659,3.87211913 12.4067396,2.89075959 14.5940009,2.65934225 L14.3337315,2.86702861 C13.9721518,3.14034162 13.6298513,3.43827079 13.3092665,3.75869527 C13.2871159,3.78084848 13.2815783,3.80853997 13.2621965,3.83069319 C12.357399,4.7515941 11.5966466,5.80370356 11.0056048,6.95152649 L11.0222177,6.95983396 C10.5321358,7.95672838 10.5321358,9.12531012 11.0415995,10.1166662 C11.1025136,10.2329706 11.1800407,10.3381983 11.2714119,10.4268112 C11.2991002,10.4655793 11.3129443,10.5126549 11.348939,10.5486538 L14.1592955,13.392572 C14.3971046,13.6339099 14.7217509,13.7697903 15.0605478,13.7697903 C15.3993447,13.7697903 15.723991,13.6339099 15.9618001,13.392572 C16.4614288,12.885822 16.4614288,12.0716823 15.9618001,11.5649322 L13.2926536,8.85670247 C13.184436,8.61187511 13.1915476,8.33144292 13.3120353,8.09241675 L13.3203418,8.05641779 C13.7890086,7.16620187 14.3860845,6.3497908 15.0923893,5.63341056 C15.2585187,5.46726151 15.4384923,5.32326564 15.6101594,5.17096233 C16.802598,4.14068241 18.2988676,3.52810207 19.8713798,3.42639713 C19.8935304,3.42639713 19.9129122,3.41255138 19.9350628,3.41255138 C20.0788072,3.3995885 20.2192746,3.36212608 20.3503864,3.30178531 C20.3697682,3.29070872 20.3836123,3.27409379 20.4057629,3.26578635 C20.5327561,3.19834006 20.6470571,3.1093247 20.7435594,3.00271701 C20.7546347,2.99164043 20.7601724,2.97502549 20.7684789,2.96671805 C20.8569885,2.86966804 20.9298505,2.7594279 20.9844472,2.63995819 C20.9955224,2.61780498 20.9927536,2.59288261 21.0010601,2.57072943 L20.9982913,2.57072943 Z M8.94836842,35.9999611 C7.79723672,35.9984835 6.66035777,35.7451838 5.61747293,35.2577892 C5.23848225,35.0778256 4.97035076,34.7251521 4.8982574,34.3118047 C4.82616404,33.8984573 4.95907101,33.4758208 5.25475697,33.1781567 L8.80438954,29.6253358 L7.47258512,28.2961433 L3.94233428,31.8212726 C3.64374587,32.123229 3.21526019,32.2581249 2.79756786,32.1816682 C2.37987554,32.1052115 2.02693828,31.8272796 1.85464085,31.4391298 C0.537002764,28.5017162 1.16197549,25.0562573 3.427333,22.7689177 C5.48476121,20.7433236 8.48976047,20.0143336 11.2464925,20.8720491 L20.8709254,11.249249 C20.0054955,8.49331415 20.7354491,5.48469757 22.7675699,3.43193544 C24.2134656,1.97891712 26.1807461,1.16518653 28.23046,1.17226176 C29.3296832,1.17226176 30.4399817,1.41045512 31.4422961,1.86182676 C31.829977,2.03471212 32.1072499,2.387952 32.1831336,2.80563808 C32.2590172,3.22332415 32.1237155,3.6515367 31.821625,3.94976669 L28.2443041,7.52750991 L29.5761086,8.86224074 L33.1811177,5.25957515 C33.4772582,4.96237415 33.8996127,4.82811395 34.3129806,4.89977285 C34.7263484,4.97143174 35.0788838,5.24002205 35.2577358,5.61956482 C36.6511415,8.57497747 36.0469666,12.0864671 33.7459578,14.4060813 C32.3019831,15.8565559 30.3379332,16.6691903 28.2913742,16.6629394 C27.4551893,16.6629394 26.6162355,16.5244819 25.8243518,16.2614125 L16.2552954,25.8205222 C17.1690074,28.5813659 16.4768014,31.6662002 14.4001832,33.7430635 C12.9563837,35.1937997 10.9922194,36.0064814 8.94559959,35.9999611 L8.94836842,35.9999611 Z M8.71578718,33.3581515 C10.1674611,33.4438782 11.586108,32.902369 12.6115228,31.8711173 C14.1343761,30.3480843 14.5358556,27.9998441 13.6082995,26.0282085 C13.37783,25.5384171 13.4797686,24.9566337 13.8630313,24.5744042 L24.578381,13.8577894 C24.9595814,13.4753406 25.5388932,13.371406 26.0292448,13.5974892 C27.9948632,14.5026375 30.3146077,14.1066173 31.868695,12.6005948 C32.9097729,11.559394 33.4247742,10.1332811 33.3527848,8.70439916 L30.4399817,11.6203153 C30.1994307,11.8617931 29.8726338,11.9975297 29.5318074,11.9975297 C29.190981,11.9975297 28.8641842,11.8617931 28.6236331,11.6203153 L25.4837865,8.47455959 C24.9824265,7.9728422 24.9824265,7.15971385 25.4837865,6.65799647 L28.3356754,3.80577082 C26.9291713,3.76557931 25.5681882,4.30643115 24.5728433,5.30111242 C23.052052,6.81623984 22.6385273,9.11964531 23.537303,11.0692542 C23.7574645,11.5572559 23.6527333,12.1305891 23.2742648,12.5092128 L12.5118451,23.2673648 C12.1335072,23.6420037 11.5642383,23.7464187 11.0775942,23.5304342 C9.12321808,22.6682046 6.84113162,23.0790944 5.31013345,24.5688659 C4.30914947,25.5639035 3.76572825,26.9296361 3.80943072,28.3404497 L6.61701844,25.5325304 C6.85756953,25.2910526 7.18436642,25.155316 7.52519279,25.155316 C7.86601916,25.155316 8.19281605,25.2910526 8.43336713,25.5325304 L11.5787514,28.6782861 C11.8202007,28.9188656 11.9559213,29.2457011 11.9559213,29.5865677 C11.9559213,29.9274343 11.8202007,30.2542698 11.5787514,30.4948492 L8.71578718,33.3581515 Z" id="形状"></path>
            </g>
        </g>
    </g>
</svg>