<?xml version="1.0" encoding="UTF-8"?>
<svg width="36px" height="38px" viewBox="0 0 36 38" version="1.1" xmlns="http://www.w3.org/2000/svg" xmlns:xlink="http://www.w3.org/1999/xlink">
    <!-- Generator: Sketch 63.1 (92452) - https://sketch.com -->
    <title>形状结合</title>
    <desc>Created with Sketch.</desc>
    <g id="Page-1" stroke="none" stroke-width="1" fill="none" fill-rule="evenodd">
        <g id="openGauss-下载" transform="translate(-822.000000, -219.000000)" fill="#666666" fill-rule="nonzero">
            <path d="M833.234908,245 L839.118791,250.883883 L833.234908,256.767767 L831.467141,255 L833.748,252.719 L822,252.719256 L822,250.219256 L834.92,250.219 L831.467141,246.767767 L833.234908,245 Z M840.234908,245 L845.454,250.219 L858,250.219256 L858,252.719256 L844.5,252.719256 L844.5,252.501 L840.234908,256.767767 L838.467141,255 L842.584024,250.883918 L838.467141,246.767767 L840.234908,245 Z M833.234908,232 L839.118791,237.883883 L833.234908,243.767767 L831.467141,242 L833.748,239.719 L822,239.719256 L822,237.219256 L834.92,237.219 L831.467141,233.767767 L833.234908,232 Z M840.234908,232 L845.454,237.219 L858,237.219256 L858,239.719256 L844.5,239.719256 L844.5,239.501 L840.234908,243.767767 L838.467141,242 L842.584024,237.883918 L838.467141,233.767767 L840.234908,232 Z M833.234908,219 L839.118791,224.883883 L833.234908,230.767767 L831.467141,229 L833.748,226.719 L822,226.719256 L822,224.219256 L834.92,224.219 L831.467141,220.767767 L833.234908,219 Z M840.234908,219 L845.454,224.219 L858,224.219256 L858,226.719256 L844.5,226.719256 L844.5,226.501 L840.234908,230.767767 L838.467141,229 L842.584024,224.883918 L838.467141,220.767767 L840.234908,219 Z" id="形状结合"></path>
        </g>
    </g>
</svg>