<?xml version="1.0" encoding="UTF-8"?>
<svg width="35px" height="38px" viewBox="0 0 35 38" version="1.1" xmlns="http://www.w3.org/2000/svg" xmlns:xlink="http://www.w3.org/1999/xlink">
    <!-- Generator: Sketch 63.1 (92452) - https://sketch.com -->
    <title>服务器</title>
    <desc>Created with Sketch.</desc>
    <g id="Page-1" stroke="none" stroke-width="1" fill="none" fill-rule="evenodd">
        <g id="openGauss-下载" transform="translate(-433.000000, -218.000000)" fill="#ffffff" fill-rule="nonzero">
            <g id="服务器" transform="translate(433.000000, 218.000000)">
                <path d="M17.5,2.59129464 C27.2596154,2.59129464 32.375,5.80178571 32.375,6.90870536 C32.375,8.015625 27.2596154,11.2261161 17.5,11.2261161 C7.74038462,11.2261161 2.625,8.015625 2.625,6.90870536 C2.625,5.80178571 7.74038462,2.59129464 17.5,2.59129464 M17.5,0 C7.83293269,0 0,3.09174107 0,6.90870536 C0,10.7256696 7.83293269,13.8174107 17.5,13.8174107 C27.1670673,13.8174107 35,10.7256696 35,6.90870536 C35,3.09174107 27.1670673,0 17.5,0 Z M32.375,31.0912946 C32.375,32.2024554 27.2596154,35.4087054 17.5,35.4087054 C7.74038462,35.4087054 2.625,32.1982143 2.625,31.0912946 M0,31.0912946 C0,34.9082589 7.83293269,38 17.5,38 C27.1670673,38 35,34.9082589 35,31.0912946 M32.375,23.0290179 C32.375,24.1401786 27.2596154,27.3464286 17.5,27.3464286 C7.74038462,27.3464286 2.625,24.1401786 2.625,23.0290179 M0,23.0290179 C0,26.8459821 7.83293269,29.9377232 17.5,29.9377232 C27.1670673,29.9377232 35,26.8459821 35,23.0290179 M32.375,14.9709821 C32.375,16.0821429 27.2596154,19.2883929 17.5,19.2883929 C7.74038462,19.2883929 2.625,16.0779018 2.625,14.9709821 M0,14.9709821 C0,18.7879464 7.83293269,21.8796875 17.5,21.8796875 C27.1670673,21.8796875 35,18.7879464 35,14.9709821" id="形状"></path>
                <path d="M2.625,31 L2.625,9.57172922 L0,7 L0,31 M32.375,9.57172922 L32.375,31 L35,31 L35,7" id="形状"></path>
            </g>
        </g>
    </g>
</svg>