<?xml version="1.0" encoding="UTF-8"?>
<svg width="16px" height="16px" viewBox="0 0 16 16" version="1.1" xmlns="http://www.w3.org/2000/svg" xmlns:xlink="http://www.w3.org/1999/xlink">
    <title>delete, close, cancel</title>
    <g id="PC" stroke="none" stroke-width="1" fill="none" fill-rule="evenodd">
        <g id="Stat_zh_UI" transform="translate(-906.000000, -1204.000000)" fill="#919191" fill-rule="nonzero">
            <g id="Individual" transform="translate(400.000000, 1068.000000)">
                <g id="Table2" transform="translate(0.000000, 120.000000)">
                    <g id="company" transform="translate(330.000000, 8.000000)">
                        <g id="Search-click" transform="translate(62.000000, 0.000000)">
                            <g id="delete,-close,-cancel" transform="translate(114.000000, 8.000000)">
                                <path d="M7.99026946,0.00623751871 C3.58081038,0.00623751871 0.00623751871,3.58081038 0.00623751871,7.99026946 C0.00623751871,12.3997285 3.58081038,15.9743014 7.99026946,15.9743014 C12.3997285,15.9743014 15.9743014,12.3997285 15.9743014,7.99026946 C15.9692417,3.58290789 12.397631,0.0112972546 7.99026946,0.00623751871 Z M7.99026946,15.1758982 C4.02175629,15.1758982 0.804640719,11.9587826 0.804640719,7.99026946 C0.804640719,4.02175629 4.02175629,0.804640719 7.99026946,0.804640719 C11.9587826,0.804640719 15.1758982,4.02175629 15.1758982,7.99026946 C15.1714981,11.9569586 11.9569586,15.1714981 7.99026946,15.1758982 L7.99026946,15.1758982 Z" id="Shape"></path>
                                <path d="M10.268513,5.71202595 C10.1126248,5.55618486 9.85993008,5.55618486 9.70404192,5.71202595 L7.99026946,7.42579841 L6.27649701,5.71202595 C6.11985874,5.56073958 5.8708743,5.56290315 5.71688873,5.71688873 C5.56290315,5.8708743 5.56073958,6.11985874 5.71202595,6.27649701 L7.42579841,7.99026946 L5.71202595,9.70404192 C5.60825092,9.80427125 5.56663178,9.95269575 5.6031649,10.0922683 C5.63969802,10.2318409 5.74869798,10.3408409 5.88827057,10.377374 C6.02784317,10.4139071 6.17626767,10.372288 6.27649701,10.268513 L7.99026946,8.55474051 L9.70404192,10.268513 C9.86068018,10.4197993 10.1096646,10.4176358 10.2636502,10.2636502 C10.4176358,10.1096646 10.4197993,9.86068018 10.268513,9.70404192 L8.55474051,7.99026946 L10.268513,6.27649701 C10.4243541,6.12060884 10.4243541,5.86791412 10.268513,5.71202595 Z" id="Path"></path>
                            </g>
                        </g>
                    </g>
                </g>
            </g>
        </g>
    </g>
</svg>