<?xml version="1.0" encoding="UTF-8"?>
<svg width="16px" height="16px" viewBox="0 0 16 16" version="1.1" xmlns="http://www.w3.org/2000/svg" xmlns:xlink="http://www.w3.org/1999/xlink">
    <title>形状</title>
    <g id="Symbols" stroke="none" stroke-width="1" fill="none" fill-rule="evenodd">
        <g id="Navi_State" transform="translate(-1504.000000, -262.000000)" fill="#7440C0" fill-rule="nonzero">
            <g id="Navi/zh" transform="translate(0.000000, 240.000000)">
                <g id="right" transform="translate(1463.000000, 22.000000)">
                    <path d="M53.6,11.2 C54.5,10 55,8.6 55,7 C55,3.1 51.9,0 48,0 C44.1,0 41,3.1 41,7 C41,10.9 44.1,14 48,14 C49.6,14 51,13.5 52.2,12.6 L55.6,16 L57,14.6 L53.6,11.2 Z M48,12 C45.2,12 43,9.8 43,7 C43,4.2 45.2,2 48,2 C50.8,2 53,4.2 53,7 C53,9.8 50.8,12 48,12 Z" id="形状"></path>
                </g>
            </g>
        </g>
    </g>
</svg>