<?xml version="1.0" standalone="no"?><!DOCTYPE svg PUBLIC "-//W3C//DTD SVG 1.1//EN" "http://www.w3.org/Graphics/SVG/1.1/DTD/svg11.dtd"><svg t="1640937948951" class="icon" viewBox="0 0 1024 1024" version="1.1" xmlns="http://www.w3.org/2000/svg" p-id="1746" xmlns:xlink="http://www.w3.org/1999/xlink" width="200" height="200"><defs><style type="text/css"></style></defs><path d="M512 17.066667c273.339733 0 494.933333 221.5936 494.933333 494.933333S785.339733 1006.933333 512 1006.933333 17.066667 785.339733 17.066667 512 238.660267 17.066667 512 17.066667z" opacity=".502" p-id="1747" fill="#ffffff"></path><path d="M512 1024C229.2224 1024 0 794.7776 0 512 0 229.2224 229.2224 0 512 0c282.7776 0 512 229.2224 512 512 0 282.7776-229.2224 512-512 512z m0-972.8C257.501867 51.2 51.2 257.501867 51.2 512s206.301867 460.8 460.8 460.8 460.8-206.301867 460.8-460.8S766.498133 51.2 512 51.2z" fill="#ffffff" p-id="1748"></path><path d="M530.568533 170.666667c4.8128 34.1504 5.495467 77.2096 41.2672 120.2688 27.4944 32.802133 58.453333 62.173867 79.7696 88.832C679.799467 414.6176 699.733333 458.359467 699.733333 502.784c0 71.0656-34.372267 141.431467-57.770666 180.394667h-10.990934c16.503467-36.898133 49.5104-97.723733 46.7456-162.628267-1.365333-36.232533-15.121067-75.178667-38.485333-103.867733-26.146133-33.501867-70.161067-60.142933-108.663467-62.8736v387.447466c0 30.754133-18.568533 58.7776-45.380266 79.274667C459.0592 841.028267 424.669867 853.333333 394.410667 853.333333c-19.2512 0-37.137067-6.144-49.5104-16.401066-13.073067-10.257067-20.6336-25.275733-20.6336-43.042134 0-28.023467 19.2512-56.046933 45.380266-76.544 26.146133-21.179733 59.136-34.850133 86.647467-34.850133 24.081067 0 44.6976 3.413333 57.088 15.035733V170.666667h17.186133z" fill="#ffffff" p-id="1749"></path></svg>