<?xml version="1.0" encoding="UTF-8"?>
<svg width="16px" height="16px" viewBox="0 0 16 16" version="1.1" xmlns="http://www.w3.org/2000/svg" xmlns:xlink="http://www.w3.org/1999/xlink">
    <title>切片</title>
    <g id="PC" stroke="none" stroke-width="1" fill="none" fill-rule="evenodd">
        <g id="Support_zh_mo" transform="translate(-328.000000, -394.000000)" fill="#999999" fill-rule="nonzero">
            <g id="编组-2" transform="translate(0.000000, 374.000000)">
                <g id="icon/16/列表右箭头" transform="translate(328.000000, 20.000000)">
                    <path d="M7.12209217,3.17262485 C7.28281071,2.98709828 7.55016798,2.94860786 7.75418543,3.06933237 L7.82739093,3.12209105 L12.8273909,7.45350642 C13.0269529,7.62638359 13.054223,7.91911047 12.9053388,8.12440022 L12.8412425,8.1968804 L7.84124249,12.865465 C7.63940578,13.0539234 7.32300911,13.0430781 7.13455075,12.8412414 C6.96703221,12.661831 6.95698817,12.391904 7.09858067,12.2017749 L7.15877441,12.1345496 L11.7510085,7.84500733 L7.17262598,3.87792361 C6.9870994,3.71720508 6.94860899,3.4498478 7.0693335,3.24583035 L7.12209217,3.17262485 Z" id="路径-9备份" transform="translate(10.000005, 8.000004) rotate(90.000000) translate(-10.000005, -8.000004) "></path>
                </g>
            </g>
        </g>
    </g>
</svg>