<?xml version="1.0" encoding="UTF-8"?>
<svg width="14px" height="14px" viewBox="0 0 14 14" version="1.1" xmlns="http://www.w3.org/2000/svg" xmlns:xlink="http://www.w3.org/1999/xlink">
    <title>Outlined/UI/time</title>
    <g id="wireframe2_web" stroke="none" stroke-width="1" fill="none" fill-rule="evenodd">
        <g id="G_Events_Upcoming_default_zh" transform="translate(-637.000000, -767.000000)" fill="#252C32">
            <g id="Upcoming_default" transform="translate(550.000000, 510.000000)">
                <g id="events" transform="translate(0.000000, 140.000000)">
                    <g id="card" transform="translate(46.000000, 92.000000)">
                        <g id="time" transform="translate(40.000000, 20.000000)">
                            <g id="Outlined/UI/time" transform="translate(0.000000, 4.000000)">
                                <path d="M7.99999998,0.999999978 C9.85651543,0.999999978 11.6369928,1.73749786 12.9497475,3.05025252 C14.2625021,4.36300717 15,6.14348457 15,7.99999998 C15,11.8659933 11.8659933,15 7.99999998,15 C4.13400674,15 0.999999978,11.8659933 0.999999978,7.99999998 C0.999999978,4.13400674 4.13400674,0.999999978 7.99999998,0.999999978 Z M7.99999998,1.99999998 C4.68629149,1.99999998 1.99999998,4.68629149 1.99999998,7.99999998 C1.99999998,11.3137085 4.68629149,14 7.99999998,14 C9.59129894,14 11.1174224,13.367859 12.2426407,12.2426407 C13.367859,11.1174224 14,9.59129894 14,7.99999998 C14,4.68629149 11.3137085,1.99999998 7.99999998,1.99999998 Z M8.5,3.49999999 L8.5,7.76 L10.81,9.61000001 L10.19,10.39 L7.875,8.54 C7.63813673,8.35035771 7.50018961,8.0634277 7.5,7.76 L7.5,7.76 L7.5,3.49999999 L8.5,3.49999999 Z" id="Style"></path>
                            </g>
                        </g>
                    </g>
                </g>
            </g>
        </g>
    </g>
</svg>