<?xml version="1.0" encoding="UTF-8"?>
<svg width="16px" height="16px" viewBox="0 0 16 16" version="1.1" xmlns="http://www.w3.org/2000/svg" xmlns:xlink="http://www.w3.org/1999/xlink">
    <title>Group 3</title>
    <defs>
        <polygon id="path-1" points="0 0 16 0 16 16 0 16"></polygon>
    </defs>
    <g id="wireframe2_web" stroke="none" stroke-width="1" fill="none" fill-rule="evenodd">
        <g id="G_Events_Upcoming_default_zh" transform="translate(-636.000000, -801.000000)">
            <g id="Upcoming_default" transform="translate(550.000000, 510.000000)">
                <g id="events" transform="translate(0.000000, 140.000000)">
                    <g id="card" transform="translate(46.000000, 92.000000)">
                        <g id="location" transform="translate(40.000000, 55.000000)">
                            <g id="Group-3" transform="translate(0.000000, 4.000000)">
                                <mask id="mask-2" fill="white">
                                    <use xlink:href="#path-1"></use>
                                </mask>
                                <g id="Clip-2"></g>
                                <path d="M10.348,9.34 L10.348,9.34 C9.748,9.948 8.908,10.324 7.984,10.324 C7.056,10.324 6.22,9.948 5.616,9.34 L5.596,9.324 C5,8.716 4.632,7.884 4.632,6.976 C4.632,6.056 5.012,5.216 5.616,4.608 C6.22,4.004 7.056,3.62 7.984,3.62 C8.908,3.62 9.748,4.004 10.348,4.608 C10.956,5.216 11.328,6.056 11.328,6.976 C11.328,7.904 10.956,8.744 10.348,9.34 M7.984,2.892 L7.984,2.892 C6.856,2.892 5.844,3.352 5.096,4.088 C4.36,4.824 3.9,5.848 3.9,6.976 C3.9,8.084 4.348,9.1 5.076,9.836 L5.096,9.86 C5.844,10.596 6.856,11.056 7.984,11.056 C9.104,11.056 10.132,10.596 10.868,9.86 C11.604,9.12 12.064,8.1 12.064,6.976 C12.064,5.848 11.604,4.824 10.868,4.088 C10.132,3.352 9.108,2.892 7.984,2.892 M12.732,10.22 L12.732,10.22 C12.092,11.172 11.164,11.916 10.072,12.34 C9.992,12.372 9.916,12.424 9.86,12.488 L7.984,14.396 L6.104,12.488 C6.04,12.416 5.964,12.356 5.876,12.332 C4.792,11.908 3.872,11.168 3.232,10.22 C2.6,9.296 2.228,8.18 2.228,6.976 C2.228,5.38 2.872,3.948 3.912,2.912 C4.952,1.868 6.396,1.22 7.984,1.22 C9.568,1.22 11.012,1.868 12.052,2.912 C13.092,3.948 13.74,5.38 13.74,6.976 C13.74,8.18 13.368,9.296 12.732,10.22 M12.916,2.044 C11.66,0.776 9.908,0 7.984,0 C6.06,0 4.316,0.776 3.052,2.044 C1.792,3.3 1,5.048 1,6.976 C1,8.432 1.456,9.792 2.22,10.9 C2.976,12.02 4.064,12.904 5.332,13.424 L7.54,15.684 L7.544,15.684 L7.552,15.704 C7.8,15.936 8.18,15.928 8.416,15.684 L10.644,13.424 C11.908,12.904 12.984,12.02 13.748,10.9 C14.512,9.792 14.956,8.432 14.956,6.976 C14.956,5.048 14.18,3.3 12.916,2.044" id="Fill-1" fill="#1D1D1B" mask="url(#mask-2)"></path>
                            </g>
                        </g>
                    </g>
                </g>
            </g>
        </g>
    </g>
</svg>