<svg xmlns="http://www.w3.org/2000/svg" viewBox="0 0 320 180"><rect x="68" y="61" width="3.3" height="2.2" style="fill:#666"/><rect x="74" y="61" width="3.3" height="2.2" style="fill:#666"/><path d="M12.9,120.6l-2.2.3a21,21,0,0,0,.8,3.4l2.1-.7A13.49,13.49,0,0,1,12.9,120.6Z" style="fill:#666"/><path d="M23.9,98.7a30.26,30.26,0,0,0-3.1,1.6l1.2,1.9c.9-.5,1.8-1,2.8-1.5Z" style="fill:#666"/><path d="M17,133a19.65,19.65,0,0,0,2.7,2.2l1.3-1.8a16.43,16.43,0,0,1-2.4-2Z" style="fill:#666"/><path d="M21.7,128a30.62,30.62,0,0,0,3.2,1.3l.7-2.1a15,15,0,0,1-2.9-1.2Z" style="fill:#666"/><path d="M12.8,127.5a18.11,18.11,0,0,0,1.9,2.9l1.7-1.3a24.7,24.7,0,0,1-1.7-2.6Z" style="fill:#666"/><rect x="33.9" y="96.7" width="3.3" height="2.2" style="fill:#666"/><path d="M30.5,96.9c-1.1.2-2.3.4-3.4.7l.6,2.1a14.91,14.91,0,0,1,3.1-.6Z" style="fill:#666"/><path d="M28.2,130.1c1.1.2,2.3.3,3.4.4l.1-2.2a16.12,16.12,0,0,1-3.1-.3Z" style="fill:#666"/><path d="M19.5,104l-1.4-1.7c-.9.8-1.7,1.6-2.5,2.4l1.7,1.4C17.9,105.5,18.7,104.7,19.5,104Z" style="fill:#666"/><path d="M15.4,108.7l-1.9-1.1a30.26,30.26,0,0,0-1.6,3.1l2,.8C14.4,110.6,14.9,109.6,15.4,108.7Z" style="fill:#666"/><rect x="35" y="128.3" width="3.3" height="2.2" style="fill:#666"/><rect x="67.9" y="128.3" width="3.3" height="2.2" style="fill:#666"/><rect x="73.4" y="96.7" width="3.3" height="2.2" style="fill:#666"/><rect x="66.8" y="96.7" width="3.3" height="2.2" style="fill:#666"/><rect x="61.3" y="128.3" width="3.3" height="2.2" style="fill:#666"/><rect x="74.5" y="128.3" width="3.3" height="2.2" style="fill:#666"/><rect x="40.5" y="96.7" width="3.3" height="2.2" style="fill:#666"/><rect x="47.1" y="96.7" width="3.3" height="2.2" style="fill:#666"/><rect x="41.5" y="128.3" width="3.3" height="2.2" style="fill:#666"/><rect x="48.1" y="128.3" width="3.3" height="2.2" style="fill:#666"/><rect x="53.7" y="96.7" width="3.3" height="2.2" style="fill:#666"/><rect x="54.7" y="128.3" width="3.3" height="2.2" style="fill:#666"/><rect x="60.2" y="96.7" width="3.3" height="2.2" style="fill:#666"/><path d="M13.1,114.5,11,114a19.55,19.55,0,0,0-.4,3.5l2.2.1A16.12,16.12,0,0,1,13.1,114.5Z" style="fill:#666"/><rect x="275.9" y="128.3" width="3.3" height="2.2" style="fill:#666"/><rect x="289" y="128.3" width="3.3" height="2.2" style="fill:#666"/><rect x="302.2" y="128.3" width="3.3" height="2.2" style="fill:#666"/><rect x="295.6" y="128.3" width="3.3" height="2.2" style="fill:#666"/><rect x="282.4" y="128.3" width="3.3" height="2.2" style="fill:#666"/><rect x="308.8" y="128.3" width="3.3" height="2.2" style="fill:#666"/><circle cx="104.2" cy="45.6" r="3.4" style="fill:#666"/><circle cx="120" cy="45.6" r="3.4" style="fill:#666"/><circle cx="135.4" cy="45.4" r="3.4" style="fill:#666"/><path d="M142.1,96.7l5.4-5.4a1,1,0,0,0-1.2-1.6,1,1,0,0,0-.2.2l-5.4,5.4-5.4-5.4a1,1,0,0,0-1.4.2,1,1,0,0,0,0,1.2l5.4,5.4-5.4,5.4a1,1,0,0,0,.2,1.4,1,1,0,0,0,1.2,0l5.4-5.4,5.4,5.4a1,1,0,0,0,1.6-1.2,1,1,0,0,0-.2-.2Z" style="fill:#666"/><path d="M208.2,96.7l5.4-5.4a1,1,0,0,0-.2-1.4,1,1,0,0,0-1.2,0l-5.4,5.4-5.4-5.4a1,1,0,1,0-1.6,1.2,1,1,0,0,0,.2.2l5.4,5.4-5.4,5.4a1,1,0,1,0,1.2,1.6,1,1,0,0,0,.2-.2l5.4-5.4,5.4,5.4a1,1,0,0,0,1.4-.2,1,1,0,0,0,0-1.2Z" style="fill:#666"/><path d="M49.8,54.1a4,4,0,1,1,4-4A4,4,0,0,1,49.8,54.1Zm0-6.82a2.88,2.88,0,1,0,2.87,2.89h0A2.9,2.9,0,0,0,49.8,47.28Z" style="fill:#666"/><path d="M233.38,47H174.62c-.31,0-.62-.4-.62-1s.25-1,.62-1h58.76c.31,0,.62.4.62,1S233.69,47,233.38,47Z" style="fill:#666"/><path d="M260,54a4,4,0,1,1,4-4A4,4,0,0,1,260,54Zm0-6.75A2.75,2.75,0,1,0,262.75,50,2.75,2.75,0,0,0,260,47.25Z" style="fill:#666"/><path d="M298,105a5,5,0,1,1,5-5A5,5,0,0,1,298,105Zm0-8.18a3.18,3.18,0,1,0,3.18,3.18h0A3.21,3.21,0,0,0,298,96.82Z" style="fill:#666"/><path d="M213.36,142.21H94.69a.89.89,0,0,1-.9-.88h0v-82H242.51v39.1h1.8V36.68A2.7,2.7,0,0,0,241.62,34H94.69A2.7,2.7,0,0,0,92,36.68V141.32A2.7,2.7,0,0,0,94.69,144H213.36ZM93.88,36.77a.89.89,0,0,1,.89-.89H241.53a.89.89,0,0,1,.9.88h0V57.5H93.88Z" style="fill:#666"/><path id="Rectangle-Copy" d="M244,125H229.6a3.42,3.42,0,0,1-3.59-3.23v-3.54A3.42,3.42,0,0,1,229.6,115H244" style="fill:#d6d6d6;fill-opacity:0.30000001192092896"/><path d="M244,132h15.21a3.68,3.68,0,0,0,3.78-3.55v-3.9a3.68,3.68,0,0,0-3.78-3.55H244" style="fill:#d6d6d6;fill-opacity:0.30000001192092896"/><path d="M246,126H229.18a4,4,0,0,1-4.18-3.81v-4.32a4,4,0,0,1,4.12-3.87H246" style="fill:none;stroke:#666;stroke-linecap:round;stroke-width:2px"/><path d="M243,133h16.81a4,4,0,0,0,4.18-3.81v-4.32a4,4,0,0,0-4.12-3.87H243" style="fill:none;stroke:#666;stroke-linecap:round;stroke-width:2px"/><rect x="252" y="107" width="2" height="6" style="fill:#666"/><rect x="257.83" y="111.83" width="6" height="2" transform="translate(-3.39 217.48) rotate(-45)" style="fill:#666"/><rect x="236" y="127" width="2" height="6" style="fill:#666"/><rect x="226.17" y="126.83" width="6" height="2" transform="translate(-23.27 199.49) rotate(-45)" style="fill:#666"/><path d="M178.5,116.8a1.42,1.42,0,0,1-.6-.2c-5.2-4.2-9.3-.2-9.5-.1a1,1,0,1,1-1.6-1.2,1,1,0,0,1,.2-.2c.1-.1,5.5-5.4,12.1-.1a1.08,1.08,0,0,1,.2,1.4A.91.91,0,0,1,178.5,116.8Z" style="fill:#666"/><rect x="61" y="61" width="3.3" height="2.2" style="fill:#666"/><polygon points="300.7 76.6 302.9 76.6 302.9 72.9 306.6 72.9 306.6 70.7 302.9 70.7 302.9 67 300.7 67 300.7 70.7 297 70.7 297 72.9 300.7 72.9 300.7 76.6" style="fill:#666"/><polygon points="30.7 83.6 32.9 83.6 32.9 79.9 36.6 79.9 36.6 77.7 32.9 77.7 32.9 74 30.7 74 30.7 77.7 27 77.7 27 79.9 30.7 79.9 30.7 83.6" style="fill:#666"/><rect x="291" y="71" width="1.8" height="2.2" style="fill:#666"/><rect x="284" y="71" width="3.6" height="2.2" style="fill:#666"/><rect x="277" y="71" width="3.6" height="2.2" style="fill:#666"/><rect x="270" y="71" width="3.6" height="2.2" style="fill:#666"/></svg>