<?xml version="1.0" encoding="UTF-8"?>
<svg width="14px" height="12px" viewBox="0 0 14 12" version="1.1" xmlns="http://www.w3.org/2000/svg" xmlns:xlink="http://www.w3.org/1999/xlink">
    <title>Style</title>
    <g id="Web" stroke="none" stroke-width="1" fill="none" fill-rule="evenodd">
        <g id="Docs_zh" transform="translate(-626.000000, -330.000000)" fill="#7D32EA">
            <g id="type_zh" transform="translate(400.000000, 320.000000)">
                <g id="编组-3" transform="translate(200.000000, 0.000000)">
                    <g id="编组" transform="translate(26.000000, 10.000000)">
                        <path d="M11.5,-1.00000002 C12.3284271,-1.00000002 13,-0.328427145 13,0.499999978 L13,0.499999978 L13,11.5 C13,12.3284271 12.3284271,13 11.5,13 L11.5,13 L7,13 L7,12 L11.5,12 C11.7761424,12 12,11.7761424 12,11.5 L12,11.5 L12,0.499999978 C12,0.223857607 11.7761424,-2.18751435e-08 11.5,-2.18751435e-08 L11.5,-2.18751435e-08 L7,-2.18751435e-08 L7,-1.00000002 Z M6.99999998,2.78999999 L9.49999998,5.28999999 C9.8877236,5.68003745 9.8877236,6.30996255 9.49999998,6.7 L9.49999998,6.7 L6.99999998,9.20000001 L6.295,8.50000001 L8.295,6.5 L0.999999981,6.5 L0.999999981,5.5 L8.275,5.5 L6.275,3.49999999 L6.99999998,2.78999999 Z" id="Style" transform="translate(7.000000, 6.000000) rotate(-270.000000) translate(-7.000000, -6.000000) "></path>
                    </g>
                </g>
            </g>
        </g>
    </g>
</svg>