<svg width="166" height="44" xmlns="http://www.w3.org/2000/svg"><defs><linearGradient x1="49.699%" y1="3.454%" x2="49.699%" y2="323.454%" id="a"><stop stop-color="#27A8E0" offset="0%"/><stop stop-color="#016699" offset="100%"/></linearGradient><linearGradient x1="50%" y1="17.084%" x2="50%" y2="160.926%" id="b"><stop stop-color="#27A8E0" offset="0%"/><stop stop-color="#016699" offset="100%"/></linearGradient><linearGradient x1="50%" y1="-88.914%" x2="50%" y2="154.045%" id="c"><stop stop-color="#27A8E0" offset="0%"/><stop stop-color="#016699" offset="100%"/></linearGradient><linearGradient x1="50%" y1="-136.259%" x2="50%" y2="106.738%" id="d"><stop stop-color="#27A8E0" offset="0%"/><stop stop-color="#016699" offset="100%"/></linearGradient></defs><g fill-rule="nonzero" fill="none"><path d="M57.43 28.78a5.11 5.11 0 0 1-2.09-2.13 7.2 7.2 0 0 1-.75-3.42 7.61 7.61 0 0 1 .75-3.49 5.36 5.36 0 0 1 2.12-2.27 6.11 6.11 0 0 1 3.11-.78 5.93 5.93 0 0 1 3.07.77 5.23 5.23 0 0 1 2.07 2.22 7.43 7.43 0 0 1 .75 3.44 7.15 7.15 0 0 1-.78 3.45 5.25 5.25 0 0 1-2.12 2.18 6.43 6.43 0 0 1-3.1.74 6.33 6.33 0 0 1-3.03-.71Zm5.39-2.5a5.29 5.29 0 0 0 .73-3 5.88 5.88 0 0 0-.77-3.28 2.58 2.58 0 0 0-2.28-1.16A2.52 2.52 0 0 0 58.22 20a5.77 5.77 0 0 0-.75 3.16 5 5 0 0 0 .82 3.09 2.73 2.73 0 0 0 2.34 1.09 2.46 2.46 0 0 0 2.19-1.06ZM68.74 19.94c0-.92 0-1.93-.1-3h2.66c.102.518.168 1.043.2 1.57a5 5 0 0 1 3.78-1.79 4.38 4.38 0 0 1 2.29.62 4.44 4.44 0 0 1 1.7 2 7.88 7.88 0 0 1 .65 3.41 8.47 8.47 0 0 1-.74 3.7 5.22 5.22 0 0 1-2.07 2.32 5.84 5.84 0 0 1-3.06.79 7.66 7.66 0 0 1-2.49-.42v5.1l-2.82.24V19.94Zm7.43 6.31a5.69 5.69 0 0 0 .83-3.39 5 5 0 0 0-.71-3 2.3 2.3 0 0 0-1.91-.93 3 3 0 0 0-1.52.39 5.53 5.53 0 0 0-1.33 1V27a4.1 4.1 0 0 0 1 .33c.365.08.737.12 1.11.12a3 3 0 0 0 2.53-1.2ZM92.26 23.45h-8.08c.13 2.59 1.37 3.88 3.7 3.88a7.92 7.92 0 0 0 1.78-.21 10.23 10.23 0 0 0 1.75-.57l.59 1.94a10.51 10.51 0 0 1-4.65 1 6.85 6.85 0 0 1-3.32-.74 4.78 4.78 0 0 1-2-2.14 7.53 7.53 0 0 1-.69-3.37 8 8 0 0 1 .73-3.52 5.27 5.27 0 0 1 2-2.26 5.62 5.62 0 0 1 3-.77 5 5 0 0 1 2.93.81 5 5 0 0 1 1.74 2.18 8 8 0 0 1 .56 3l-.04.77Zm-2.75-1.8a3.57 3.57 0 0 0-.75-2.21A2.26 2.26 0 0 0 87 18.7a2.38 2.38 0 0 0-1.79.74 4 4 0 0 0-.94 2.21h5.24ZM94.54 20.06c0-1.153-.03-2.203-.09-3.15h2.64c0 .26.09.59.14 1 .05.41.07.71.08 1a8.83 8.83 0 0 1 1.14-1.09 4.83 4.83 0 0 1 3.08-1.06 3.44 3.44 0 0 1 2.82 1.19 5.3 5.3 0 0 1 1 3.47v7.91h-2.8v-7.78c0-1.76-.66-2.63-2-2.63a3.22 3.22 0 0 0-1.67.47 7.32 7.32 0 0 0-1.53 1.28v8.59h-2.82l.01-9.2ZM111.21 28.43a6.78 6.78 0 0 1-2.64-2.94 10.15 10.15 0 0 1-.89-4.35 9.8 9.8 0 0 1 1-4.68 7.19 7.19 0 0 1 2.9-3 8.64 8.64 0 0 1 4.24-1 10.28 10.28 0 0 1 2.69.35 11.8 11.8 0 0 1 2.36.9l-.54 1.18a11.66 11.66 0 0 0-2.17-.86 8.71 8.71 0 0 0-2.31-.31 7 7 0 0 0-3.51.87 6 6 0 0 0-2.34 2.53 8.73 8.73 0 0 0-.85 4 9.35 9.35 0 0 0 .68 3.65 5.61 5.61 0 0 0 2.17 2.55 6.36 6.36 0 0 0 3.58.94 11.39 11.39 0 0 0 2.22-.23 11.07 11.07 0 0 0 2.09-.63v-4.32h-4.59v-1.27h5.93v6.3a13 13 0 0 1-2.83 1 12.82 12.82 0 0 1-3 .36 7.94 7.94 0 0 1-4.19-1.04ZM132 29.26c0-.2-.07-.49-.1-.84s-.05-.67-.06-.92a5.84 5.84 0 0 1-1.84 1.41 5.58 5.58 0 0 1-2.54.58 4.25 4.25 0 0 1-1.9-.4 3 3 0 0 1-1.29-1.18 3.78 3.78 0 0 1-.46-1.91 3.52 3.52 0 0 1 1.28-2.83 6.6 6.6 0 0 1 4.2-1.07 20.79 20.79 0 0 1 2.52.16v-.49a4.27 4.27 0 0 0-.82-3 3 3 0 0 0-2.32-.87 7.27 7.27 0 0 0-1.91.27 9.59 9.59 0 0 0-1.69.62l-.29-1.09a7.49 7.49 0 0 1 1.74-.64 9.35 9.35 0 0 1 2.33-.29 5.1 5.1 0 0 1 2.32.48 3.32 3.32 0 0 1 1.48 1.62 7.44 7.44 0 0 1 .52 3.07v5c0 .51 0 1.29.09 2.32H132Zm-2.74-1.19a5.84 5.84 0 0 0 1.46-.72 4.74 4.74 0 0 0 1.05-1v-3.11a18.68 18.68 0 0 0-2.36-.14 5.26 5.26 0 0 0-3.3.77 2.57 2.57 0 0 0-.94 2.09 2.27 2.27 0 0 0 .67 1.8 2.62 2.62 0 0 0 1.8.59c.552 0 1.1-.095 1.62-.28ZM137.41 28.33a5.67 5.67 0 0 1-.9-3.51V17h1.34v7.75a4.31 4.31 0 0 0 .67 2.68 2.36 2.36 0 0 0 2 .85 4.42 4.42 0 0 0 2.23-.62 8.22 8.22 0 0 0 1.93-1.55V17H146v9.14c0 .86 0 1.89.1 3.09h-1.18c0-.3-.13-.92-.23-1.87a9.5 9.5 0 0 1-2.06 1.52 5 5 0 0 1-2.42.58 3.33 3.33 0 0 1-2.8-1.13ZM150 29.29a7.68 7.68 0 0 1-1.56-.53l.38-1.13c.466.235.96.41 1.47.52a7.83 7.83 0 0 0 1.66.19 3.58 3.58 0 0 0 2.28-.63A2.06 2.06 0 0 0 155 26a1.83 1.83 0 0 0-.33-1.11 3.11 3.11 0 0 0-.95-.77 18.85 18.85 0 0 0-1.81-.81 10.36 10.36 0 0 1-1.83-.91 3.4 3.4 0 0 1-1.08-1 2.71 2.71 0 0 1-.37-1.46 3.07 3.07 0 0 1 .44-1.64 2.88 2.88 0 0 1 1.3-1.09 5.27 5.27 0 0 1 2.09-.38 8.18 8.18 0 0 1 3.44.81l-.31 1.08a6.74 6.74 0 0 0-3.07-.77 3 3 0 0 0-1.91.52 1.66 1.66 0 0 0-.67 1.37c-.017.363.1.719.33 1 .246.289.549.524.89.69.38.2.95.46 1.71.78.64.257 1.262.557 1.86.9a3.4 3.4 0 0 1 1.12 1.05 2.89 2.89 0 0 1 .45 1.67 3.53 3.53 0 0 1-.52 1.89 3.37 3.37 0 0 1-1.52 1.18 5.68 5.68 0 0 1-2.42.46 8.69 8.69 0 0 1-1.84-.17ZM159.1 29.29a8.13 8.13 0 0 1-1.56-.53l.38-1.13c.466.235.96.41 1.47.52a7.83 7.83 0 0 0 1.66.19 3.56 3.56 0 0 0 2.28-.63 2.06 2.06 0 0 0 .79-1.7 1.83 1.83 0 0 0-.33-1.11 3.11 3.11 0 0 0-.95-.77 18.85 18.85 0 0 0-1.81-.81 10.36 10.36 0 0 1-1.83-.91 3.4 3.4 0 0 1-1.08-1 2.71 2.71 0 0 1-.37-1.46 3.07 3.07 0 0 1 .44-1.64 2.85 2.85 0 0 1 1.31-1.09 5.19 5.19 0 0 1 2.08-.38 8.15 8.15 0 0 1 3.44.81l-.31 1.08a6.74 6.74 0 0 0-3.07-.77 3 3 0 0 0-1.91.52 1.65 1.65 0 0 0-.66 1.37c-.016.36.098.715.32 1 .248.291.554.527.9.69.373.2.943.46 1.71.78.636.258 1.254.56 1.85.9a3.4 3.4 0 0 1 1.15.98 2.89 2.89 0 0 1 .45 1.67 3.44 3.44 0 0 1-.52 1.89 3.4 3.4 0 0 1-1.54 1.24 5.74 5.74 0 0 1-2.42.46 8.78 8.78 0 0 1-1.87-.17Z" fill="#424140"/><path d="m41.15 16.332-13-7.07-7 4s-2.39 1.34-2.54 3.49a1.71 1.71 0 0 1-.68-.86v-5.02a1.16 1.16 0 0 1 .68-1l9.6-5.57 13 7" fill="url(#a)" transform="translate(.58 .268)"/><path d="M.04 11.262a1.23 1.23 0 0 1 .67-.87L16.83.912a7.58 7.58 0 0 1 3.76-.91v5a7.58 7.58 0 0 0-3.76.91l-13.55 8 13.55 8a8.22 8.22 0 0 0 7.51 0l16.13-9.58a1.19 1.19 0 0 0 .68-1v5a1.19 1.19 0 0 1-.68 1l-16.13 9.45a8.16 8.16 0 0 1-7.51 0L.71 17.302a1.19 1.19 0 0 1-.68-1v-5.04h.01Z" fill="url(#b)" transform="translate(.58 .268)"/><path d="M41.12 24.342a1.19 1.19 0 0 1-.68 1l-16.12 9.46a8.22 8.22 0 0 1-7.51 0L.68 25.312a1.19 1.19 0 0 1-.68-1v-5c.028.432.288.815.68 1l16.13 9.52a8.16 8.16 0 0 0 7.51 0l16.1-9.48a1.19 1.19 0 0 0 .68-1l.02 4.99Z" fill="url(#c)" transform="translate(.58 .268)"/><path d="M41.12 32.102a1.19 1.19 0 0 1-.68 1l-16.12 9.45a8.16 8.16 0 0 1-7.51 0L.68 33.072a1.19 1.19 0 0 1-.68-1v-5c.026.433.287.817.68 1l16.13 9.49a8.22 8.22 0 0 0 7.51 0l16.1-9.46a1.17 1.17 0 0 0 .68-1l.02 5Z" fill="url(#d)" transform="translate(.58 .268)"/></g></svg>