<?xml version="1.0" encoding="UTF-8"?>
<svg width="100px" height="100px" viewBox="0 0 100 100" version="1.1" xmlns="http://www.w3.org/2000/svg" xmlns:xlink="http://www.w3.org/1999/xlink">
    <title>切片</title>
    <g id="页面-1" stroke="none" stroke-width="1" fill="none" fill-rule="evenodd" opacity="0.600000024">
        <g id="画板" transform="translate(-533.000000, -42.000000)">
            <g id="编组" transform="translate(533.000000, 42.000000)">
                <rect id="矩形" x="0" y="0" width="100" height="100"></rect>
                <g id="ICT" transform="translate(16.250000, 16.250000)">
                    <path d="M60.0853639,33.7501531 L60.2852871,33.8643617 L66.8201162,38.2760268 C67.524713,38.7517003 67.712028,39.7110815 67.238496,40.4188648 C66.8080123,41.0623041 65.9795699,41.2763045 65.3031278,40.9525154 L65.1053051,40.8391367 L61.242,38.2308339 L61.25,55.8260467 L61.2354893,56.3354496 C61.2354893,56.8628075 60.9868742,57.1849479 60.4896439,57.301871 C60.44108,57.3238787 60.3914301,57.3387485 60.3408014,57.3462164 L60.2641376,57.3518339 L48.367,57.3518339 L52.0962059,61.1836062 C52.5835111,61.6843057 52.6293879,62.4620818 52.2358048,63.0149672 L52.0883369,63.1902445 C51.5971203,63.6869572 50.8340749,63.7337196 50.2916607,63.3325384 L50.1197031,63.1822236 L44.1537941,57.0523326 C43.6664778,56.5516217 43.6206114,55.7738244 44.0142185,55.2209387 L44.161695,55.0456621 L50.127604,49.013391 C50.6734176,48.461506 51.5548049,48.465126 52.0962375,49.0214766 C52.5835269,49.5221921 52.6293791,50.2999697 52.2357785,50.8528422 L52.088305,51.0281147 L49.542,53.6018339 L57.507,53.6018339 L57.501,38.2788339 L53.6352293,40.8454829 C52.9271433,41.3158993 51.9734953,41.120634 51.5051968,40.4093458 C51.0794709,39.7627202 51.2014183,38.9122329 51.7591044,38.4095121 L51.9393704,38.2696805 L58.5799521,33.8580154 C59.0328568,33.5571286 59.6044866,33.5214344 60.0853639,33.7501531 Z" id="形状结合" fill="#FFFFFF"></path>
                    <polygon id="矩形" stroke="#FFFFFF" stroke-width="2" stroke-linecap="round" stroke-linejoin="round" points="35 12.6794765 35 63.4294765 4.48717949 63.4294765 4.48717949 12.6794765"></polygon>
                    <path d="M34.8599745,53.3205839 C35.9285888,53.3205839 3.91577697,53.4667004 4.87807622,53.3358264 L5.10372612,53.3205839 L34.8599745,53.3205839 Z" id="直线-34" stroke="#FFFFFF" stroke-width="2" stroke-linecap="round" stroke-linejoin="round"></path>
                    <ellipse id="椭圆形" stroke="#FFFFFF" stroke-width="2" stroke-linecap="round" stroke-linejoin="round" cx="19.9878426" cy="58.6018339" rx="1.23784262" ry="1.25"></ellipse>
                    <path d="" id="直线-35" stroke="#FFFFFF" stroke-width="2"></path>
                    <path d="M66.1349777,5.36178297 L66.072123,5.14316857 C65.5887387,3.01097391 61.6577277,-0.146820842 56.536265,0.00529714547 C53.7937691,0.0867549225 51.354043,1.33237486 49.1996293,3.41701502 C48.4020964,4.18871879 47.70698,5.01470031 47.0854302,5.87689626 L46.8931928,6.14790882 L46.2446536,7.10459941 C46.2320506,7.12117533 46.216261,7.14180536 46.1952082,7.16931208 L46.1937147,7.19908139 L46.1803662,7.25124838 C46.1760895,7.25956481 46.1704865,7.26783922 46.163107,7.27629211 L46.0939081,7.33091522 L45.9604543,7.40040608 L45.4143143,7.62632804 L44.675264,7.91351775 C40.1845581,7.91351775 36.9322858,10.8679786 36.9322858,15.0581718 C36.9322858,19.325264 40.1970601,22.7997952 44.2892696,23.0064545 L44.675264,23.0161794 L59.7633941,23.0161794" id="路径" stroke="#FFFFFF" stroke-width="2" stroke-linecap="round" stroke-linejoin="round" transform="translate(51.540297, 11.508090) scale(-1, 1) translate(-51.540297, -11.508090) "></path>
                </g>
            </g>
        </g>
    </g>
</svg>