<?xml version="1.0" encoding="UTF-8"?>
<svg width="80px" height="80px" viewBox="0 0 80 80" version="1.1" xmlns="http://www.w3.org/2000/svg" xmlns:xlink="http://www.w3.org/1999/xlink">
    <title>编组备份</title>
    <g id="页面-1" stroke="none" stroke-width="1" fill="none" fill-rule="evenodd">
        <g id="画板" transform="translate(-144.000000, -52.000000)">
            <g id="编组备份" transform="translate(144.000000, 52.000000)">
                <rect id="矩形" x="0" y="0" width="80" height="80"></rect>
                <circle id="椭圆形" fill="#7D32EA" opacity="0.400000006" cx="53" cy="24" r="16"></circle>
                <g id="ICT" transform="translate(13.000000, 13.000000)">
                    <path d="M48.0682911,27.0001225 L48.2282297,27.0914894 L53.4560929,30.6208214 C54.0197704,31.0013602 54.1696224,31.7688652 53.7907968,32.3350918 C53.4464099,32.8498433 52.783656,33.0210436 52.2425022,32.7620123 L52.0842441,32.6713093 L48.994,30.5854671 L49,44.6608373 L48.9883915,45.0683597 C48.9883915,45.4912997 48.7885046,45.7492446 48.388731,45.8421946 C48.3506812,45.859601 48.3116136,45.8712533 48.2717277,45.8770875 L48.2113101,45.8814671 L38.693,45.8814671 L41.6769647,48.946885 C42.0668089,49.3474446 42.1035104,49.9696654 41.7886439,50.4119738 L41.6706695,50.5521956 C41.2776962,50.9495657 40.6672599,50.9869757 40.2333286,50.6660307 L40.0957625,50.5457788 L35.3230353,45.6418661 C34.9331822,45.2412974 34.8964891,44.6190595 35.2113748,44.1767509 L35.329356,44.0365297 L40.1020832,39.2107128 C40.5387341,38.7692048 41.2438439,38.7721008 41.67699,39.2171813 C42.0668215,39.6177537 42.1035033,40.2399757 41.7886228,40.6822738 L41.670644,40.8224917 L39.634,42.8814671 L46.005,42.8814671 L46.001,30.6224671 L42.9081834,32.6763864 C42.3417147,33.0527194 41.5787962,32.8965072 41.2041575,32.3274767 C40.8635767,31.8101762 40.9611346,31.1297863 41.4072835,30.7276097 L41.5514963,30.6157444 L46.8639617,27.0864124 C47.2262854,26.8457029 47.6835893,26.8171475 48.0682911,27.0001225 Z" id="形状结合" fill="#7D32EA"></path>
                    <polygon id="矩形" stroke="#000000" stroke-width="2" stroke-linecap="round" stroke-linejoin="round" points="28 10.1435812 28 50.7435812 3.58974359 50.7435812 3.58974359 10.1435812"></polygon>
                    <path d="M27.8879796,42.6564671 C28.742871,42.6564671 3.13262157,42.7733604 3.90246098,42.6686611 L4.08298089,42.6564671 L27.8879796,42.6564671 Z" id="直线-34" stroke="#000000" stroke-width="2" stroke-linecap="round" stroke-linejoin="round"></path>
                    <ellipse id="椭圆形" stroke="#000000" stroke-width="2" stroke-linecap="round" stroke-linejoin="round" cx="15.9902741" cy="46.8814671" rx="1" ry="1"></ellipse>
                    <path d="" id="直线-35" stroke="#000000" stroke-width="2"></path>
                    <path d="M52.9079822,4.28942638 L52.8576984,4.11453485 C52.470991,2.40877913 49.3261822,-0.117456674 45.229012,0.00423771637 C43.0350153,0.069403938 41.0832344,1.06589989 39.3597035,2.73361202 C38.7216771,3.35097503 38.165584,4.01176025 37.6683441,4.70151701 L37.5145543,4.91832705 L36.9957229,5.68367953 C36.9856405,5.69694026 36.9730088,5.71344429 36.9561666,5.73544966 L36.9549717,5.75926511 L36.944293,5.8009987 C36.9408716,5.80765185 36.9363892,5.81427138 36.9304856,5.82103369 L36.8751265,5.86473218 L36.7683634,5.92032486 L36.3314514,6.10106243 L35.7402112,6.3308142 C32.1476465,6.3308142 29.5458287,8.69438285 29.5458287,12.0465374 C29.5458287,15.4602112 32.1576481,18.2398361 35.4314157,18.4051636 L35.7402112,18.4129435 L47.8107153,18.4129435" id="路径" stroke="#000000" stroke-width="2" stroke-linecap="round" stroke-linejoin="round" transform="translate(41.232237, 9.206472) scale(-1, 1) translate(-41.232237, -9.206472) "></path>
                </g>
            </g>
        </g>
    </g>
</svg>