<?xml version="1.0" encoding="UTF-8"?>
<svg width="80px" height="80px" viewBox="0 0 80 80" version="1.1" xmlns="http://www.w3.org/2000/svg" xmlns:xlink="http://www.w3.org/1999/xlink">
    <title>切片</title>
    <g id="PC" stroke="none" stroke-width="1" fill="none" fill-rule="evenodd">
        <g id="切图" transform="translate(-171.000000, -568.000000)">
            <g id="插画/openEuler/三级插画/12备份-4" transform="translate(171.000000, 568.000000)">
                <circle id="椭圆形备份-4" fill="#7D32EA" opacity="0.400000006" cx="48" cy="52" r="16"></circle>
                <rect id="矩形" stroke="#000000" stroke-width="2" x="16" y="52" width="48" height="16"></rect>
                <path d="M27.2692259,30.3571429 C27.2692259,27.3984746 29.7119809,25 32.725272,25 C35.738563,25 38.181318,27.3984746 38.181318,30.3571429 C38.181318,33.3158112 35.738563,35.7142857 32.725272,35.7142857 C29.7119809,35.7142857 27.2692259,33.3158112 27.2692259,30.3571429 Z M47.274728,35.7142857 C50.2880191,35.7142857 52.7307741,33.3158112 52.7307741,30.3571429 C52.7307741,27.3984746 50.2880191,25 47.274728,25 C44.261437,25 41.818682,27.3984746 41.818682,30.3571429 C41.818682,33.3158112 44.261437,35.7142857 47.274728,35.7142857 Z M59.8054471,47.4107143 L57.186545,42.25 C56.2641295,40.4358339 54.3775889,39.2884873 52.3124772,39.2857143 L45.0377492,39.2857143 C45.3705573,39.7108199 45.6627807,40.1651197 45.9107165,40.6428571 L48.5478054,45.8214286 C49.2003704,47.1251977 49.2856996,48.6332803 48.7842341,50 L58.1868201,50 C58.8171629,49.998127 59.4015698,49.6759068 59.731312,49.1484247 C60.0610542,48.6209426 60.0891055,47.9634254 59.8054471,47.4107143 Z M42.6370889,42.25 C41.7117482,40.4300757 39.8164975,39.2817167 37.7448343,39.2857039 L27.7057096,39.2857039 C25.6340464,39.2817167 23.7387957,40.4300757 22.813455,42.25 L20.1945529,47.4107143 C19.9108945,47.9634254 19.9389458,48.6209426 20.268688,49.1484247 C20.5984302,49.6759068 21.1828371,49.998127 21.8131799,50 L43.637364,50 C44.2677069,49.998127 44.8521137,49.6759068 45.1818559,49.1484247 C45.5115981,48.6209426 45.5396495,47.9634254 45.255991,47.4107143 L42.6370889,42.25 Z" id="Icon-color" fill="#7D32EA" fill-rule="nonzero"></path>
                <polyline id="路径-13" stroke="#000000" stroke-width="2" stroke-linecap="round" stroke-linejoin="round" points="24 28 16 28 16 12 64 12 64 28 56 28"></polyline>
                <polyline id="路径-15" stroke="#000000" stroke-width="2" stroke-linecap="round" stroke-linejoin="round" points="24.0436198 32 16 32 16 48 18.0807292 48"></polyline>
                <polyline id="路径-15" stroke="#000000" stroke-width="2" stroke-linecap="round" stroke-linejoin="round" transform="translate(60.021810, 40.000000) scale(-1, 1) translate(-60.021810, -40.000000) " points="64.0436198 32 56 32 56 48 58.0807292 48"></polyline>
            </g>
        </g>
    </g>
</svg>