<?xml version="1.0" encoding="UTF-8"?>
<svg width="80px" height="80px" viewBox="0 0 80 80" version="1.1" xmlns="http://www.w3.org/2000/svg" xmlns:xlink="http://www.w3.org/1999/xlink">
    <title>编组 15备份</title>
    <g id="PC" stroke="none" stroke-width="1" fill="none" fill-rule="evenodd">
        <g id="切图" transform="translate(-313.000000, -565.000000)">
            <g id="编组-15备份" transform="translate(313.000000, 565.000000)">
                <rect id="矩形备份-10" x="0" y="0" width="80" height="80"></rect>
                <g id="插画/openEuler/三级插画/16" transform="translate(16.000000, 12.000000)">
                    <rect id="矩形" stroke="#FFFFFF" stroke-width="2" x="4.54747351e-13" y="40" width="48" height="16"></rect>
                    <path d="M11.2692259,18.3571429 C11.2692259,15.3984746 13.7119809,13 16.725272,13 C19.738563,13 22.181318,15.3984746 22.181318,18.3571429 C22.181318,21.3158112 19.738563,23.7142857 16.725272,23.7142857 C13.7119809,23.7142857 11.2692259,21.3158112 11.2692259,18.3571429 Z M31.274728,23.7142857 C34.2880191,23.7142857 36.7307741,21.3158112 36.7307741,18.3571429 C36.7307741,15.3984746 34.2880191,13 31.274728,13 C28.261437,13 25.818682,15.3984746 25.818682,18.3571429 C25.818682,21.3158112 28.261437,23.7142857 31.274728,23.7142857 Z M43.8054471,35.4107143 L41.186545,30.25 C40.2641295,28.4358339 38.3775889,27.2884873 36.3124772,27.2857143 L29.0377492,27.2857143 C29.3705573,27.7108199 29.6627807,28.1651197 29.9107165,28.6428571 L32.5478054,33.8214286 C33.2003704,35.1251977 33.2856996,36.6332803 32.7842341,38 L42.1868201,38 C42.8171629,37.998127 43.4015698,37.6759068 43.731312,37.1484247 C44.0610542,36.6209426 44.0891055,35.9634254 43.8054471,35.4107143 Z M26.6370889,30.25 C25.7117482,28.4300757 23.8164975,27.2817167 21.7448343,27.2857039 L11.7057096,27.2857039 C9.63404638,27.2817167 7.73879571,28.4300757 6.81345501,30.25 L4.19455292,35.4107143 C3.91089446,35.9634254 3.93894578,36.6209426 4.26868799,37.1484247 C4.59843019,37.6759068 5.18283707,37.998127 5.81317991,38 L27.637364,38 C28.2677069,37.998127 28.8521137,37.6759068 29.1818559,37.1484247 C29.5115981,36.6209426 29.5396495,35.9634254 29.255991,35.4107143 L26.6370889,30.25 Z" id="Icon-color" fill="#BD72FF" fill-rule="nonzero"></path>
                    <polyline id="路径-13" stroke="#FFFFFF" stroke-width="2" stroke-linecap="round" stroke-linejoin="round" points="8 16 4.54747351e-13 16 4.54747351e-13 0 48 0 48 16 40 16"></polyline>
                    <polyline id="路径-15" stroke="#FFFFFF" stroke-width="2" stroke-linecap="round" stroke-linejoin="round" points="8.04361979 20 0 20 0 36 2.08072917 36"></polyline>
                    <polyline id="路径-15" stroke="#FFFFFF" stroke-width="2" stroke-linecap="round" stroke-linejoin="round" transform="translate(44.021810, 28.000000) scale(-1, 1) translate(-44.021810, -28.000000) " points="48.0436198 20 40 20 40 36 42.0807292 36"></polyline>
                </g>
            </g>
        </g>
    </g>
</svg>