<?xml version="1.0" encoding="UTF-8"?>
<svg width="80px" height="80px" viewBox="0 0 80 80" version="1.1" xmlns="http://www.w3.org/2000/svg" xmlns:xlink="http://www.w3.org/1999/xlink">
    <title>切片</title>
    <g id="PC" stroke="none" stroke-width="1" fill="none" fill-rule="evenodd">
        <g id="切图" transform="translate(-432.000000, -441.000000)">
            <g id="插画/openEuler/三级插画/12备份-4" transform="translate(432.000000, 441.000000)">
                <circle id="椭圆形备份-3" fill="#BD72FF" opacity="0.400000006" cx="34" cy="40" r="16"></circle>
                <g id="编组-2" transform="translate(17.000000, 17.000000)">
                    <g id="编组" transform="translate(8.485281, 8.485281) rotate(-45.000000) translate(-8.485281, -8.485281) translate(4.485281, 0.485281)" stroke="#FFFFFF" stroke-width="2">
                        <circle id="椭圆形" cx="4" cy="4" r="4"></circle>
                        <line x1="4" y1="8" x2="4" y2="16" id="路径-12" stroke-linecap="round" stroke-linejoin="round"></line>
                    </g>
                    <g id="编组" transform="translate(37.485281, 8.485281) scale(-1, 1) rotate(-45.000000) translate(-37.485281, -8.485281) translate(33.485281, 0.485281)" stroke="#FFFFFF" stroke-width="2">
                        <circle id="椭圆形" cx="4" cy="4" r="4"></circle>
                        <line x1="4" y1="8" x2="4" y2="16" id="路径-12" stroke-linecap="round" stroke-linejoin="round"></line>
                    </g>
                    <g id="编组" transform="translate(8.485281, 37.485281) scale(1, -1) rotate(-45.000000) translate(-8.485281, -37.485281) translate(4.485281, 29.485281)" stroke="#FFFFFF" stroke-width="2">
                        <circle id="椭圆形" cx="4" cy="4" r="4"></circle>
                        <line x1="4" y1="8" x2="4" y2="16" id="路径-12" stroke-linecap="round" stroke-linejoin="round"></line>
                    </g>
                    <g id="编组" transform="translate(37.485281, 37.485281) scale(-1, -1) rotate(-45.000000) translate(-37.485281, -37.485281) translate(33.485281, 29.485281)" stroke="#FFFFFF" stroke-width="2">
                        <circle id="椭圆形" cx="4" cy="4" r="4"></circle>
                        <line x1="4" y1="8" x2="4" y2="16" id="路径-12" stroke-linecap="round" stroke-linejoin="round"></line>
                    </g>
                    <path d="M31.695473,20.5081023 L22.1642129,36.4960031 C21.9771785,36.8067118 21.6481597,36.9970019 21.2927835,37 L21.0204617,37 C20.8297381,36.9996364 20.6475552,36.9186338 20.5166666,36.7760014 C20.3864456,36.6328188 20.3220221,36.4391956 20.3396575,36.2440047 L21.1021583,27.2000608 L16.2412156,27.2000608 C15.8754941,27.196001 15.5390201,26.993748 15.3561701,26.6680641 L15.0974644,26.2060669 C14.9675119,25.9868219 14.9675119,25.7113164 15.0974644,25.4920714 L24.6287245,9.50417053 C24.8208289,9.18493122 25.1623342,8.99340465 25.5273861,9 L25.7997079,9 C25.9904315,9.00053723 26.1726144,9.08153983 26.303503,9.22417226 C26.433724,9.36735484 26.4981475,9.56097809 26.4805121,9.75616896 L25.7043953,18.8001129 L30.5653379,18.8001129 C30.9310594,18.8041727 31.2675334,19.0064256 31.4503835,19.3321096 L31.7090891,19.7941067 C31.83489,20.0159638 31.8296357,20.2914862 31.695473,20.5081023 Z" id="Icon-color" fill="#BD72FF" fill-rule="nonzero"></path>
                </g>
            </g>
        </g>
    </g>
</svg>