<?xml version="1.0" encoding="UTF-8"?>
<svg width="80px" height="80px" viewBox="0 0 80 80" version="1.1" xmlns="http://www.w3.org/2000/svg" xmlns:xlink="http://www.w3.org/1999/xlink">
    <title>切片</title>
    <g id="PC" stroke="none" stroke-width="1" fill="none" fill-rule="evenodd">
        <g id="切图" transform="translate(-432.000000, -62.000000)">
            <g id="插画/openEuler/三级插画/12备份-4" transform="translate(432.000000, 62.000000)">
                <circle id="椭圆形" fill="#BD72FF" opacity="0.400000006" cx="22" cy="40" r="16"></circle>
                <path d="M46,16 L46,24 L46,24 C41.496894,24 37.3413827,25.4882303 33.9984803,27.9996769 L14,28 L14,16 L46,16 Z" id="形状结合" stroke="#FFFFFF" stroke-width="2" stroke-linejoin="round"></path>
                <path d="M26.4000192,40.0002624 L14,40 L14,28 L33.9994852,27.998922 C30.1588966,30.8838927 27.3907219,35.1193589 26.4000192,40.0002624 Z" id="形状结合" stroke="#FFFFFF" stroke-width="2" stroke-linejoin="round"></path>
                <path d="M26,44 C26,46.8444363 26.5937973,49.5501839 27.6641945,52.0000452 L14,52 L14,40 L26.400222,39.9992634 C26.1377734,41.2919315 26,42.6298764 26,44 Z" id="形状结合" stroke="#FFFFFF" stroke-width="2" stroke-linejoin="round"></path>
                <path d="M46,64 L14,64 L14,52 L27.6645101,52.0007674 C30.7509117,59.0639767 37.7990209,64 46,64 Z" id="形状结合" stroke="#FFFFFF" stroke-width="2" stroke-linejoin="round"></path>
                <circle id="椭圆形" stroke="#FFFFFF" stroke-width="2" cx="46" cy="44" r="20"></circle>
                <path d="M40,40.1213203 L52,40.1213203 M46,40.1213203 L46,52.1213203 M41.8786797,35 L46.1213203,39.2426407 M50.1213203,35 L45.8786797,39.2426407 M39,44.1213203 L53,44.1213203" id="形状结合" stroke="#BD72FF" stroke-width="2" stroke-linecap="round" stroke-linejoin="round"></path>
            </g>
        </g>
    </g>
</svg>