<?xml version="1.0" encoding="UTF-8"?>
<svg width="80px" height="80px" viewBox="0 0 80 80" version="1.1" xmlns="http://www.w3.org/2000/svg" xmlns:xlink="http://www.w3.org/1999/xlink">
    <title>切片</title>
    <g id="PC" stroke="none" stroke-width="1" fill="none" fill-rule="evenodd">
        <g id="切图" transform="translate(-432.000000, -314.000000)">
            <g id="插画/openEuler/三级插画/12备份-4" transform="translate(432.000000, 314.000000)">
                <circle id="椭圆形备份-2" fill="#BD72FF" opacity="0.400000006" cx="56" cy="24" r="16"></circle>
                <path d="M44.8064516,10 C45.3587364,10 45.8064516,10.4477153 45.8064516,11 L45.8069992,16.5078572 C48.1989938,17.0971508 50.4509587,18.0422335 52.5035507,19.2837624 L56.4003153,15.388122 C56.7908396,14.9975977 57.4240046,14.9975977 57.8145289,15.388122 L64.611878,22.1854711 C65.0024023,22.5759954 65.0024023,23.2091604 64.611878,23.5996847 L60.7162376,27.4964493 C61.9577665,29.5490413 62.9028492,31.8010062 63.4921428,34.1930008 L69,34.1935484 C69.5522847,34.1935484 70,34.6412636 70,35.1935484 L70,44.8064516 C70,45.3587364 69.5522847,45.8064516 69,45.8064516 L63.4921428,45.8069992 C62.9028492,48.1989938 61.9577665,50.4509587 60.7162376,52.5035507 L64.611878,56.4003153 C65.0024023,56.7908396 65.0024023,57.4240046 64.611878,57.8145289 L57.8145289,64.611878 C57.4240046,65.0024023 56.7908396,65.0024023 56.4003153,64.611878 L52.5035507,60.7162376 C50.4509587,61.9577665 48.1989938,62.9028492 45.8069992,63.4921428 L45.8064516,69 C45.8064516,69.5522847 45.3587364,70 44.8064516,70 L35.1935484,70 C34.6412636,70 34.1935484,69.5522847 34.1935484,69 L34.1930008,63.4921428 C31.8010062,62.9028492 29.5490413,61.9577665 27.4964493,60.7162376 L23.5996847,64.611878 C23.2091604,65.0024023 22.5759954,65.0024023 22.1854711,64.611878 L15.388122,57.8145289 C14.9975977,57.4240046 14.9975977,56.7908396 15.388122,56.4003153 L19.2837624,52.5035507 C18.0422335,50.4509587 17.0971508,48.1989938 16.5078572,45.8069992 L11,45.8064516 C10.4477153,45.8064516 10,45.3587364 10,44.8064516 L10,35.1935484 C10,34.6412636 10.4477153,34.1935484 11,34.1935484 L16.5078572,34.1930008 C17.0971508,31.8010062 18.0422335,29.5490413 19.2837624,27.4964493 L15.388122,23.5996847 C14.9975977,23.2091604 14.9975977,22.5759954 15.388122,22.1854711 L22.1854711,15.388122 C22.5759954,14.9975977 23.2091604,14.9975977 23.5996847,15.388122 L27.4964493,19.2837624 C29.5490413,18.0422335 31.8010062,17.0971508 34.1930008,16.5078572 L34.1935484,11 C34.1935484,10.4477153 34.6412636,10 35.1935484,10 L44.8064516,10 Z" id="形状结合" stroke="#FFFFFF" stroke-width="2"></path>
                <path d="M40,31 C41.6802484,31 43.2529534,31.4604476 44.5988195,32.2620472 C44.0967797,32.0917688 43.5591067,32 43,32 C40.2385763,32 38,34.2385763 38,37 C38,39.7614237 40.2385763,42 43,42 C45.7614237,42 48,39.7614237 48,37 C48,36.4408933 47.9082312,35.9032203 47.7389343,35.4012218 C48.5395524,36.7470466 49,38.3197516 49,40 C49,43.9184405 46.4958532,47.2520062 43.000578,48.4876786 L43,57 L37,57 L37.0004159,48.4880298 C33.5046215,47.252638 31,43.9188119 31,40 C31,35.0294373 35.0294373,31 40,31 Z" id="形状结合" fill="#BD72FF"></path>
                <circle id="椭圆形" stroke="#FFFFFF" stroke-width="2" cx="40" cy="40" r="17"></circle>
            </g>
        </g>
    </g>
</svg>