<?xml version="1.0" encoding="UTF-8"?>
<svg width="80px" height="80px" viewBox="0 0 80 80" version="1.1" xmlns="http://www.w3.org/2000/svg" xmlns:xlink="http://www.w3.org/1999/xlink">
    <title>编组 13备份</title>
    <g id="PC" stroke="none" stroke-width="1" fill="none" fill-rule="evenodd">
        <g id="切图" transform="translate(-313.000000, -314.000000)">
            <g id="编组-13备份" transform="translate(313.000000, 314.000000)">
                <rect id="矩形备份-8" x="0" y="0" width="80" height="80"></rect>
                <g id="插画/openEuler/三级插画/14" transform="translate(10.000000, 10.000000)">
                    <path d="M34.8064516,0 C35.3587364,-1.08250786e-15 35.8064516,0.44771525 35.8064516,1 L35.8069992,6.50785722 C38.1989938,7.09715077 40.4509587,8.04223347 42.5035507,9.28376237 L46.4003153,5.38812204 C46.7908396,4.99759774 47.4240046,4.99759774 47.8145289,5.38812204 L54.611878,12.1854711 C55.0024023,12.5759954 55.0024023,13.2091604 54.611878,13.5996847 L50.7162376,17.4964493 C51.9577665,19.5490413 52.9028492,21.8010062 53.4921428,24.1930008 L59,24.1935484 C59.5522847,24.1935484 60,24.6412636 60,25.1935484 L60,34.8064516 C60,35.3587364 59.5522847,35.8064516 59,35.8064516 L53.4921428,35.8069992 C52.9028492,38.1989938 51.9577665,40.4509587 50.7162376,42.5035507 L54.611878,46.4003153 C55.0024023,46.7908396 55.0024023,47.4240046 54.611878,47.8145289 L47.8145289,54.611878 C47.4240046,55.0024023 46.7908396,55.0024023 46.4003153,54.611878 L42.5035507,50.7162376 C40.4509587,51.9577665 38.1989938,52.9028492 35.8069992,53.4921428 L35.8064516,59 C35.8064516,59.5522847 35.3587364,60 34.8064516,60 L25.1935484,60 C24.6412636,60 24.1935484,59.5522847 24.1935484,59 L24.1930008,53.4921428 C21.8010062,52.9028492 19.5490413,51.9577665 17.4964493,50.7162376 L13.5996847,54.611878 C13.2091604,55.0024023 12.5759954,55.0024023 12.1854711,54.611878 L5.38812204,47.8145289 C4.99759774,47.4240046 4.99759774,46.7908396 5.38812204,46.4003153 L9.28376237,42.5035507 C8.04223347,40.4509587 7.09715077,38.1989938 6.50785722,35.8069992 L1,35.8064516 C0.44771525,35.8064516 -3.01980663e-14,35.3587364 -3.01980663e-14,34.8064516 L-2.84217094e-14,25.1935484 C-3.01980663e-14,24.6412636 0.44771525,24.1935484 1,24.1935484 L6.50785722,24.1930008 C7.09715077,21.8010062 8.04223347,19.5490413 9.28376237,17.4964493 L5.38812204,13.5996847 C4.99759774,13.2091604 4.99759774,12.5759954 5.38812204,12.1854711 L12.1854711,5.38812204 C12.5759954,4.99759774 13.2091604,4.99759774 13.5996847,5.38812204 L17.4964493,9.28376237 C19.5490413,8.04223347 21.8010062,7.09715077 24.1930008,6.50785722 L24.1935484,1 C24.1935484,0.44771525 24.6412636,1.01453063e-16 25.1935484,0 L34.8064516,0 Z" id="形状结合" stroke="#FFFFFF" stroke-width="2"></path>
                    <path d="M30,21 C31.6802484,21 33.2529534,21.4604476 34.5988195,22.2620472 C34.0967797,22.0917688 33.5591067,22 33,22 C30.2385763,22 28,24.2385763 28,27 C28,29.7614237 30.2385763,32 33,32 C35.7614237,32 38,29.7614237 38,27 C38,26.4408933 37.9082312,25.9032203 37.7389343,25.4012218 C38.5395524,26.7470466 39,28.3197516 39,30 C39,33.9184405 36.4958532,37.2520062 33.000578,38.4876786 L33,47 L27,47 L27.0004159,38.4880298 C23.5046215,37.252638 21,33.9188119 21,30 C21,25.0294373 25.0294373,21 30,21 Z" id="形状结合" fill="#BD72FF"></path>
                    <circle id="椭圆形" stroke="#FFFFFF" stroke-width="2" cx="30" cy="30" r="17"></circle>
                </g>
            </g>
        </g>
    </g>
</svg>