<?xml version="1.0" encoding="UTF-8"?>
<svg width="101px" height="101px" viewBox="0 0 101 101" version="1.1" xmlns="http://www.w3.org/2000/svg" xmlns:xlink="http://www.w3.org/1999/xlink">
    <title>插画/openEuler/三级插画/1 2</title>
    <g id="PC" stroke="none" stroke-width="1" fill="none" fill-rule="evenodd" opacity="0.600000024">
        <g id="切图" transform="translate(-907.000000, -536.000000)">
            <g id="插画/openEuler/三级插画/1" transform="translate(907.500000, 536.166667)">
                <rect id="矩形" x="0" y="0" width="100" height="100"></rect>
                <path d="M56.7580645,12 C57.3103493,12 57.7580645,12.4477153 57.7580645,13 L57.7585138,20.1347636 C60.7487654,20.8714186 63.5639525,22.052886 66.1298779,23.6049688 L71.1771709,18.5583758 C71.5676952,18.1678516 72.2008601,18.1678516 72.5913844,18.5583758 L81.4416242,27.4086156 C81.8321484,27.7991399 81.8321484,28.4323048 81.4416242,28.8228291 L76.3950312,33.8701221 C77.947114,36.4360475 79.1285814,39.2512346 79.8652364,42.2414862 L87,42.2419355 C87.5522847,42.2419355 88,42.6896507 88,43.2419355 L88,55.7580645 C88,56.3103493 87.5522847,56.7580645 87,56.7580645 L79.8652364,56.7585138 C79.1285814,59.7487654 77.947114,62.5639525 76.3950312,65.1298779 L81.4416242,70.1771709 C81.8321484,70.5676952 81.8321484,71.2008601 81.4416242,71.5913844 L72.5913844,80.4416242 C72.2008601,80.8321484 71.5676952,80.8321484 71.1771709,80.4416242 L66.1298779,75.3950312 C63.5639525,76.947114 60.7487654,78.1285814 57.7585138,78.8652364 L57.7580645,86 C57.7580645,86.5522847 57.3103493,87 56.7580645,87 L44.2419355,87 C43.6896507,87 43.2419355,86.5522847 43.2419355,86 L43.2414862,78.8652364 C40.2512346,78.1285814 37.4360475,76.947114 34.8701221,75.3950312 L29.8228291,80.4416242 C29.4323048,80.8321484 28.7991399,80.8321484 28.4086156,80.4416242 L19.5583758,71.5913844 C19.1678516,71.2008601 19.1678516,70.5676952 19.5583758,70.1771709 L24.6049688,65.1298779 C23.052886,62.5639525 21.8714186,59.7487654 21.1347636,56.7585138 L14,56.7580645 C13.4477153,56.7580645 13,56.3103493 13,55.7580645 L13,43.2419355 C13,42.6896507 13.4477153,42.2419355 14,42.2419355 L21.1347636,42.2414862 C21.8714186,39.2512346 23.052886,36.4360475 24.6049688,33.8701221 L19.5583758,28.8228291 C19.1678516,28.4323048 19.1678516,27.7991399 19.5583758,27.4086156 L28.4086156,18.5583758 C28.7991399,18.1678516 29.4323048,18.1678516 29.8228291,18.5583758 L34.8701221,23.6049688 C37.4360475,22.052886 40.2512346,20.8714186 43.2414862,20.1347636 L43.2419355,13 C43.2419355,12.4477153 43.6896507,12 44.2419355,12 L56.7580645,12 Z" id="形状结合" stroke="#FFFFFF" stroke-width="2"></path>
                <path d="M50.5,38.25 C52.59762,38.25 54.561155,38.8240859 56.2420577,39.8237104 C55.6160878,39.6138785 54.9463428,39.5 54.25,39.5 C50.7982203,39.5 48,42.2982203 48,45.75 C48,49.2017797 50.7982203,52 54.25,52 C57.7017797,52 60.5,49.2017797 60.5,45.75 C60.5,45.0536572 60.3861215,44.3839122 60.1759719,43.7583725 C61.1759141,45.438845 61.75,47.40238 61.75,49.5 C61.75,54.3981252 58.6197212,58.5651345 54.250523,60.1096687 L54.25,70.75 L46.75,70.75 L46.7504762,60.1100219 C42.3807561,58.5657698 39.25,54.3984985 39.25,49.5 C39.25,43.2867966 44.2867966,38.25 50.5,38.25 Z" id="形状结合" fill="#FFFFFF"></path>
                <circle id="椭圆形" stroke="#FFFFFF" stroke-width="2" cx="50.5" cy="49.5" r="21.25"></circle>
            </g>
        </g>
    </g>
</svg>