<svg viewBox="0 0 24 24" xmlns="http://www.w3.org/2000/svg" xmlns:xlink="http://www.w3.org/1999/xlink" width="24.000000" height="24.000000" fill="none" customFrame="#000000">
	<defs>
		<clipPath id="clipPath_0">
			<rect width="24.000000" height="24.000000" x="0.000000" y="0.000000" fill="rgb(255,255,255)" />
		</clipPath>
		<clipPath id="clipPath_1">
			<rect width="24.000000" height="24.000000" x="0.000000" y="0.000000" fill="rgb(255,255,255)" />
		</clipPath>
	</defs>
	<rect id="文档" width="24.000000" height="24.000000" x="0.000000" y="0.000000" />
	<g id="文档" customFrame="url(#clipPath_0)">
		<rect id="文档" width="24.000000" height="24.000000" x="0.000000" y="0.000000" />
		<g id="文档" customFrame="url(#clipPath_1)">
			<rect id="文档" width="24.000000" height="24.000000" x="0.000000" y="0.000000" />
			<g id="编组 16">
				<rect id="矩形" width="24.000000" height="24.000000" x="0.000000" y="0.000000" fill="rgb(216,216,216)" fill-opacity="0" />
				<rect id="矩形" width="23.000000" height="23.000000" x="0.500000" y="0.500000" stroke="rgb(151,151,151)" stroke-opacity="0" stroke-width="1.000000" />
				<path id="形状结合" d="M15.6811 2.79151C15.5088 2.65311 15.2934 2.5766 15.07 2.5766L5.78667 2.58977L5.63912 2.59594C4.71456 2.67227 3.98828 3.4468 3.98828 4.39076L3.98828 19.6244L3.99447 19.7722C4.07094 20.6986 4.84695 21.4252 5.79187 21.4238L18.2105 21.4061L18.3581 21.3999C19.2826 21.3236 20.0089 20.5491 20.0089 19.6051L20.0089 17.1594L20.0025 17.0644C19.9562 16.7227 19.6633 16.4594 19.3089 16.4594C18.9223 16.4594 18.6089 16.7728 18.6089 17.1594L18.6089 19.6051L18.6008 19.6858C18.5635 19.8684 18.4021 20.0058 18.2085 20.0061L5.78985 20.0238L5.70903 20.0158C5.52625 19.9786 5.38856 19.8172 5.38828 19.6234L5.38828 4.39076L5.39641 4.31003C5.43373 4.12747 5.59511 3.99005 5.78869 3.98977L14.5704 3.9769L14.5704 6.32937L14.5761 6.47785C14.6518 7.45779 15.471 8.22937 16.4704 8.22937L18.6086 8.22937L18.6089 14.5305L18.6153 14.6255C18.6617 14.9672 18.9545 15.2305 19.3089 15.2305C19.6955 15.2305 20.0089 14.9171 20.0089 14.5305L20.0089 7.744L20.0011 7.62042C19.975 7.41653 19.885 7.2249 19.7424 7.07401L15.779 2.88186L15.6811 2.79151ZM17.5847 6.82937L15.9704 5.12181L15.9704 6.32937C15.9704 6.57483 16.1472 6.77898 16.3805 6.82131L16.4704 6.82937L17.5847 6.82937ZM12.7029 7.96552C12.7029 7.57892 12.3895 7.26552 12.0029 7.26552L8.56232 7.26552L8.46734 7.27191C8.12567 7.31826 7.86232 7.61114 7.86232 7.96552C7.86232 8.35212 8.17572 8.66552 8.56232 8.66552L12.0029 8.66552L12.0979 8.65913C12.4396 8.61278 12.7029 8.3199 12.7029 7.96552ZM16.1349 12.0002C16.1349 11.6136 15.8215 11.3002 15.4349 11.3002L8.56232 11.3002L8.46733 11.3066C8.12566 11.3529 7.86232 11.6458 7.86232 12.0002C7.86232 12.3868 8.17572 12.7002 8.56232 12.7002L15.4349 12.7002L15.5299 12.6938C15.8715 12.6475 16.1349 12.3546 16.1349 12.0002ZM16.1349 16.0349C16.1349 15.6483 15.8215 15.3349 15.4349 15.3349L8.56232 15.3349L8.46733 15.3413C8.12566 15.3876 7.86232 15.6805 7.86232 16.0349C7.86232 16.4215 8.17572 16.7349 8.56232 16.7349L15.4349 16.7349L15.5299 16.7285C15.8715 16.6821 16.1349 16.3893 16.1349 16.0349Z" fill="currentColor" fill-opacity="0.800000012" fill-rule="evenodd" />
			</g>
		</g>
	</g>
</svg>
